<svg width="161" height="161" viewBox="0 0 161 161" fill="none" xmlns="http://www.w3.org/2000/svg">
<path opacity="0.4" d="M80.5578 160.278C124.74 160.124 160.432 124.182 160.278 79.9994C160.124 35.817 124.182 0.124949 79.9995 0.279103C35.817 0.433259 0.124968 36.3752 0.279124 80.5577C0.433281 124.741 36.3752 160.432 80.5578 160.278Z" fill="#060F66"/>
<path d="M80.1371 39.7183C63.5772 39.7761 50.1842 53.2629 50.242 69.8225C50.2987 86.0624 63.0646 99.2179 79.9462 99.639L80.6662 99.6365L81.2262 99.6346L81.3862 99.634C97.5441 99.0176 110.218 85.8533 110.242 69.6132C110.184 53.0536 96.697 39.6605 80.1371 39.7183Z" fill="#060F66"/>
<path d="M134.729 138.889C120.535 152.058 101.523 160.205 80.5634 160.278C59.6036 160.351 40.5355 152.338 26.2498 139.267C28.1444 131.981 33.3212 125.323 40.9033 120.176C62.6923 105.54 98.2121 105.416 119.943 119.9C127.641 124.993 132.784 131.616 134.729 138.889Z" fill="#060F66"/>
</svg>
