<svg width="79" height="70" viewBox="0 0 79 70" fill="none" xmlns="http://www.w3.org/2000/svg">
<path d="M32.2754 35.4595C33.791 38.5468 35.9307 41.3147 37.8028 44.189C37.9514 44.4286 38.1 44.6415 38.2486 44.881C39.4076 46.6642 40.3585 48.5538 41.1312 50.5233C41.6958 52.0669 41.9335 53.6904 41.785 55.3139C41.5769 57.4963 40.9529 59.6255 39.9128 61.595C38.6349 64.0701 36.525 65.7202 33.9396 66.9977C31.9485 67.9558 29.7792 68.5946 27.5504 68.9672C24.8758 69.4995 22.1419 69.7124 19.4079 69.5527C15.188 69.2599 11.087 68.4615 7.43181 66.3856C4.10348 64.5226 1.87469 61.9143 0.953454 58.4544C0.151089 55.3672 0.24024 52.1468 1.19119 49.0861C2.11243 45.9722 3.53885 42.9648 5.35161 40.1702C6.18369 38.8661 7.04549 37.5886 7.52097 36.1514C7.61012 35.8853 7.69927 35.8587 7.99644 35.9385C10.9087 36.8434 13.9399 37.4289 17.0008 37.6685C18.5461 37.7749 20.1211 37.7483 21.6961 37.6152C24.3112 37.4289 26.9263 37.0031 29.482 36.391C30.433 36.1781 31.3245 35.7788 32.2754 35.4595Z" fill="#FFD574"/>
<path d="M44.9641 35.6458C45.083 35.6724 45.2018 35.699 45.291 35.7522C47.7575 36.7902 50.4321 37.1362 53.1066 37.3757C55.8406 37.562 58.5746 37.5886 61.3086 37.4555C63.3591 37.4023 65.4393 37.1628 67.4303 36.7103C68.2624 36.524 69.0945 36.2579 69.8672 35.8853C70.1346 35.7788 70.2535 35.8054 70.4021 36.0184C71.5016 37.8281 72.928 39.425 74.3842 41.0219C76.9101 43.7898 78.188 46.9836 78.6932 50.4701C79.2281 54.1429 78.3663 57.5761 76.5535 60.8231C74.9785 63.6176 72.4823 65.8799 69.362 67.3171C67.7275 68.0889 66.0633 68.8075 64.2803 69.2067C62.7647 69.5261 61.1897 69.6325 59.6147 69.5793C55.1868 69.4196 50.8184 68.568 46.7174 67.0509C44.9047 66.3856 43.1216 65.6137 41.6655 64.4161C41.1306 63.9902 40.6551 63.4846 40.239 62.9789C40.0905 62.8192 40.0607 62.5531 40.2093 62.3668C41.7546 59.8118 42.4084 57.0438 42.4976 54.1429C42.5273 53.4509 42.4381 52.7589 42.2895 52.0935C41.7843 50.1241 40.982 48.2078 39.9122 46.4246C39.615 45.9722 39.5555 45.4133 39.7933 44.9076C40.1796 44.0027 40.6254 43.0978 41.1603 42.2462C42.4084 40.117 43.7457 38.0411 44.9047 35.8587C44.8749 35.7788 44.9344 35.699 44.9641 35.6458ZM40.5957 5.11887V7.24803C40.6254 7.46095 40.5957 7.75371 40.9225 7.75371C41.2494 7.75371 41.1603 7.43433 41.1603 7.22141C41.19 5.731 41.19 4.24059 41.19 2.75017C41.1603 2.08481 40.9523 1.44606 40.5659 0.887152C40.774 0.621007 41.1008 0.621007 41.3683 0.594393C43.4782 0.221789 45.5882 0.035486 47.7278 0.00887141C48.1141 0.00887141 48.649 -0.0709718 48.8273 0.248403C49.0056 0.567777 48.5599 0.887153 48.2924 1.12668C47.6386 1.7122 47.2523 2.51064 47.2523 3.33569C47.1632 4.69303 46.9254 6.02376 46.7471 7.3811C46.6877 7.88678 46.658 8.39246 46.658 8.92475C46.658 9.11105 46.6877 9.32396 46.9254 9.35058C47.2226 9.37719 47.2523 9.13766 47.2523 8.92475C47.282 7.78032 47.4603 6.66251 47.5792 5.51808C47.6684 4.66642 47.7872 3.84137 47.9061 3.01632C49.9863 3.12277 51.9476 2.83001 53.9387 2.51064C55.0382 2.32434 56.1378 2.13804 57.2373 1.97835C57.5048 1.92512 57.7722 1.92512 58.0694 1.95173C58.6043 1.97835 58.7826 2.21788 58.5746 2.67033C58.4557 2.96309 58.3071 3.25585 58.1288 3.52199C56.4647 6.31652 54.6222 9.00459 52.8986 11.7725C52.6906 12.0919 52.3934 12.3314 52.0368 12.4645C50.016 13.2895 47.9061 13.8751 45.707 14.221C42.973 14.6735 40.1796 14.8066 37.3862 14.6203C34.2659 14.4073 31.2347 13.6888 28.4116 12.4911C27.8767 12.2516 27.5201 11.879 27.0743 11.5596C25.4696 10.4152 23.7757 9.40381 22.1412 8.31261C21.4577 7.86016 20.804 7.3811 20.1799 6.84881C20.0016 6.68912 19.853 6.52944 19.7044 6.34313C19.229 5.67777 19.4073 4.79949 20.1205 4.32043C20.4771 4.05428 20.9228 3.86798 21.3686 3.73491C23.5082 3.09616 25.7073 2.72356 27.9658 2.6171C28.3521 2.59048 28.7682 2.6171 29.1545 2.67033C29.4814 2.67033 29.7191 2.90986 29.7191 3.20262V3.28246C29.6894 3.62845 29.6003 4.00106 29.4814 4.32043C29.1248 5.1721 29.0951 6.13022 29.422 7.0085C29.8974 8.4723 30.4918 9.88287 31.205 11.2668C31.2942 11.4531 31.413 11.6394 31.5319 11.7991C31.621 11.9322 31.7399 12.0653 31.9479 11.9854C32.156 11.9056 32.1262 11.7459 32.0371 11.5862C31.9479 11.4265 31.8588 11.2136 31.7696 11.0539C31.205 9.98933 30.7295 8.89813 30.3135 7.75371C30.2243 7.62063 30.1946 7.43433 30.1946 7.27464C34.1173 7.35449 37.4456 6.02376 40.5065 3.97444C40.8631 4.24059 40.5659 4.69303 40.5957 5.11887Z" fill="#FFD574"/>
<path d="M38.9615 44.8809C37.2082 42.0597 35.128 39.3983 33.4935 36.5239C32.9289 35.5126 32.5723 34.4214 32.394 33.2769C32.3345 32.8245 32.4534 32.372 32.7506 31.9994C34.385 29.6307 35.8115 27.1556 37.0893 24.6006C37.3568 24.0949 37.5351 23.5626 37.6836 23.0303C37.8619 22.3117 37.5648 22.019 36.7624 22.0722C35.3657 22.2053 33.9393 22.3916 32.5723 22.6577C31.2944 22.9239 29.9869 23.0836 28.6496 23.1368C28.3822 23.1634 28.085 23.1634 27.8175 23.0836C27.7581 22.8174 28.0255 22.711 28.1741 22.5513C28.4416 22.3117 28.6793 22.0722 28.8873 21.7794C29.2142 21.1939 29.0062 20.7149 28.293 20.5286C27.8175 20.4221 27.3123 20.3689 26.8071 20.3689H24.6081C25.4104 19.0914 26.0345 17.8139 26.718 16.563C26.8369 16.3501 26.9557 16.2968 27.2529 16.4033C29.1845 17.1751 31.2647 17.4147 33.3449 17.6542C36.3761 17.9736 39.4667 18.0534 42.4978 17.8937C45.8559 17.7607 49.1248 17.2816 52.2748 16.1904C52.5125 16.1105 52.6908 15.9775 52.8989 16.2969C53.8795 17.7607 55.2762 18.8518 56.6135 20.0229C56.7918 20.1826 56.9701 20.3423 57.1781 20.4753C57.4456 20.635 57.5348 20.9012 57.4456 21.1673C57.3267 21.5665 57.5347 21.9391 57.7131 22.3117C58.0994 23.1634 58.0399 23.4296 57.1781 23.9352C55.2762 25.0264 53.3149 26.0378 51.0861 26.5435C50.5512 26.6765 50.0163 26.7298 49.4517 26.7298C48.4116 26.7298 47.7875 26.1709 48.2927 25.1861C48.471 24.8667 48.6196 24.5474 48.7979 24.228C49.3922 22.9771 48.6196 22.2851 47.52 22.1521C46.4205 22.019 45.4398 22.1787 44.3997 22.3117C42.9139 22.498 41.4874 22.844 40.0907 23.3497C39.5261 23.536 38.9912 23.8022 38.5454 24.1481C37.4162 24.9998 37.2676 26.0112 38.2186 27.0225C39.2884 28.1669 40.5662 29.1517 41.9926 29.9501C43.0625 30.5889 44.0728 31.2542 45.0832 31.9196C45.4398 32.1591 45.4993 32.3454 45.3804 32.7446C44.8752 34.4214 44.1323 36.0449 43.1813 37.5619C42.3195 38.9991 41.4577 40.4363 40.5959 41.8468C40.0907 42.6985 39.645 43.5502 39.2587 44.4551C39.1992 44.6147 39.1695 44.7744 38.9615 44.8809Z" fill="#FFD574"/>
<path d="M48.4709 27.2091C49.9865 27.4486 51.3535 27.1559 52.6611 26.6768C54.2658 26.0913 55.8408 25.3727 57.2969 24.521C57.4455 24.4146 57.6238 24.3347 57.8021 24.3081C57.8616 24.5477 57.8913 24.8138 57.8616 25.0533C57.8913 25.8518 57.8913 26.6502 57.8913 27.4486C57.8913 27.6349 57.8913 27.7946 57.921 27.9809C57.9507 28.1672 58.0993 28.3269 58.337 28.2737C58.5154 28.2471 58.6342 28.0874 58.6342 27.9277V27.3954C58.6639 25.905 58.5451 24.4146 58.4856 22.9242C58.4559 22.658 58.3668 22.3919 58.2479 22.1523C58.1587 21.9394 58.0696 21.7531 57.9804 21.5136C57.8913 21.141 57.9804 21.0345 58.3965 20.9281C58.5748 20.8748 58.7234 20.8482 58.9017 20.8482C60.4767 20.795 62.022 20.7152 63.597 20.6885C64.1913 20.6353 64.7857 20.6885 65.38 20.795C65.9447 20.9547 66.0635 21.1942 65.7366 21.6201C65.6178 21.7797 65.4692 21.9394 65.3206 22.0725C64.964 22.4185 64.7263 22.8443 64.6371 23.3234C64.3994 24.5477 64.0725 25.7187 63.7753 26.9163L63.6862 27.3156C63.6564 27.5285 63.6862 27.7414 63.9833 27.768C64.2211 27.7946 64.3399 27.6616 64.3994 27.4753C64.4588 27.289 64.5182 27.1293 64.548 26.9696C64.756 26.0381 64.9937 25.0799 65.2017 24.1484C65.3206 23.6161 65.3206 23.6428 65.9744 23.6161C67.5791 23.5895 69.2136 23.4298 70.7886 23.1903C71.8881 23.004 72.9876 22.8709 74.0872 22.7112C74.2655 22.6846 74.4438 22.6846 74.6221 22.6846C74.8598 22.6846 74.9193 22.7911 74.9193 22.9774C74.8896 23.2169 74.8004 23.4565 74.6518 23.6694C72.9282 26.4905 71.3829 29.3915 69.6296 32.1594C69.4513 32.4522 69.1838 32.6917 68.8272 32.7982C67.4008 33.2506 65.9149 33.57 64.4291 33.7829C61.7248 34.2087 58.9908 34.3684 56.2568 34.3152C53.8795 34.262 51.5021 33.9426 49.2139 33.3038C47.728 32.8514 46.3313 32.1594 45.1129 31.3077C44.1619 30.669 43.1813 30.0303 42.2006 29.4447C41.1308 28.7794 40.1204 28.0608 39.1991 27.2357C38.9317 26.9962 38.694 26.7567 38.4859 26.4639C38.0402 25.8784 38.0699 25.4259 38.5751 24.867C38.9911 24.4412 39.4963 24.1218 40.0907 23.9355C41.5171 23.4032 43.0029 23.0306 44.5482 22.8443C45.4992 22.7112 46.4502 22.5516 47.4308 22.7112C48.2926 22.8443 48.5304 23.2169 48.2332 23.9355C48.144 24.1218 48.0549 24.3081 47.936 24.4944C47.3714 25.2929 47.4011 26.1445 47.6091 27.0228C47.7874 27.768 48.0846 28.46 48.3521 29.1786C48.4115 29.3117 48.4709 29.4181 48.5601 29.5246C48.6492 29.6576 48.7978 29.7109 48.9464 29.631C49.095 29.5778 49.1841 29.4447 49.1544 29.3117C49.095 29.1254 49.0356 28.9124 48.9761 28.7261C48.7681 28.2205 48.5898 27.7148 48.4709 27.2091ZM11.2946 27.2357C12.7805 27.3688 14.2961 27.2091 15.7225 26.7034C17.3867 26.1711 18.9914 25.4792 20.4773 24.6275C20.507 24.6009 20.5664 24.6275 20.6853 24.6275C20.6853 25.5324 20.715 26.4373 20.715 27.3422C20.715 27.7946 20.7447 28.2205 20.8042 28.6729L20.8933 28.9923C20.9528 29.0721 21.0419 29.1254 21.1311 29.0987C21.2202 29.0987 21.3094 29.0455 21.3688 28.9391C21.3985 28.8326 21.4282 28.7261 21.3985 28.6197C21.2202 27.422 21.3094 26.2244 21.2499 25.0001C21.2202 24.4412 21.1311 23.9089 21.3688 23.35C21.5471 22.9774 21.3391 22.5516 21.0716 22.2056C20.923 22.0193 20.7745 21.8596 20.6556 21.6999C20.715 21.487 20.8933 21.5136 21.0122 21.487C23.1518 21.0611 25.2915 20.7418 27.5203 20.9547C27.6094 20.9547 27.7283 20.9547 27.8174 20.9813C28.4118 21.0878 28.5009 21.2741 28.1443 21.6999C28.1146 21.7531 28.0552 21.8064 27.9957 21.8596C27.1339 22.4451 26.8962 23.2968 26.807 24.2017C26.7179 25.1864 26.5396 26.1445 26.4207 27.1293C26.391 27.2357 26.391 27.3422 26.391 27.4486C26.391 27.5817 26.5099 27.7148 26.6585 27.7148C26.8368 27.7148 26.9259 27.6083 26.9259 27.4486C27.0151 26.7567 27.1042 26.0913 27.1934 25.3993C27.2528 24.9469 27.3122 24.4678 27.3717 24.0154C27.4014 23.7758 27.4608 23.6428 27.7877 23.6694C29.6599 23.7758 31.5024 23.3766 33.3151 23.0572C34.3552 22.8709 35.4251 22.7645 36.4652 22.6048C36.6435 22.5516 36.8515 22.5782 37.0001 22.6846C36.9406 23.1903 36.7623 23.6694 36.5246 24.1218C35.2765 26.6768 33.85 29.152 32.2453 31.5207C32.067 31.7602 31.7995 31.9465 31.5024 32.053C29.5113 32.9845 27.3717 33.5966 25.1429 33.8894C19.348 34.6878 13.7909 34.049 8.47151 31.8134C8.20405 31.707 7.9366 31.5739 7.69886 31.3876C6.77763 30.5625 5.67809 29.9238 4.6677 29.2318C3.74647 28.6197 2.88467 27.9277 2.0823 27.2091C1.72569 26.9163 1.45824 26.5704 1.27994 26.1711C1.07191 25.7187 1.16107 25.1598 1.57711 24.8138C1.87428 24.5477 2.20117 24.3081 2.58749 24.1484C4.54883 23.2435 6.68848 22.7379 8.88755 22.658C9.30359 22.6048 9.74935 22.658 10.1357 22.7911C10.73 23.0306 10.9678 23.3766 10.8489 23.9621C10.7597 24.3347 10.6409 24.6807 10.4626 25.0533C10.1951 25.7187 10.1951 26.4373 10.4328 27.076C10.9083 28.46 11.5324 29.7907 12.1564 31.1214C12.1862 31.1747 12.1862 31.2013 12.2159 31.2545C12.305 31.4142 12.4239 31.6005 12.6616 31.494C12.8994 31.3876 12.8102 31.2279 12.7508 31.0682L12.4833 30.4295L11.2352 27.6349C11.2946 27.5817 11.2649 27.422 11.2946 27.2357ZM40.5959 5.11903C40.5364 4.85288 40.5364 4.56012 40.5661 4.29397C40.5661 4.13429 40.5959 3.9746 40.4175 3.89476C40.4473 3.84153 40.5067 3.7883 40.5364 3.73507C40.685 3.65523 40.7147 3.7883 40.7147 3.86814C40.6553 4.26736 40.7444 4.71981 40.5959 5.11903Z" fill="#FFD574"/>
<path d="M22.7662 47.8349C22.9742 48.0744 23.1525 48.2341 23.3011 48.4204C23.628 48.793 23.8063 49.2189 23.836 49.6979C23.8657 50.0173 24.0143 50.0971 24.3412 50.0971C25.2327 50.0705 26.1539 50.0705 27.0455 50.0971C27.3426 50.0971 27.729 50.0439 27.8181 50.4165C27.8775 50.656 27.6101 50.7891 27.0157 50.7891C26.0945 50.7891 25.1733 50.8157 24.252 50.7891C23.9251 50.7359 23.628 50.8956 23.5091 51.1617C23.0336 51.9335 22.3501 52.5723 21.4883 52.9981C20.2402 53.6901 18.7841 54.0627 17.3279 54.0893C17.3873 54.3288 17.5954 54.4353 17.744 54.5418C18.9624 55.5797 20.2402 56.5645 21.3695 57.6823C21.6369 57.9484 21.9044 58.2412 22.1421 58.5339C22.2907 58.667 22.2907 58.9065 22.1421 59.0396C22.1421 59.0396 22.1124 59.0662 22.0827 59.0662C21.8449 59.2259 21.6666 59.0929 21.518 58.9332C19.8836 57.1234 17.9223 55.6596 16.0204 54.1159C15.9609 54.0627 15.8718 54.0095 15.8123 53.9296C15.6935 53.8232 15.634 53.6635 15.7232 53.5038C15.7826 53.3441 15.9609 53.2643 16.1392 53.2909C16.3175 53.2909 16.4661 53.3175 16.6444 53.3441C18.5166 53.4772 20.3591 52.9715 21.8152 51.9069C22.2015 51.6408 22.5284 51.3214 22.7662 50.9222C22.6176 50.6827 22.4096 50.7891 22.2313 50.7891C20.7157 50.869 19.2001 50.9488 17.7142 51.0286C17.4765 51.0286 17.1199 51.1617 17.0902 50.7891C17.0605 50.4165 17.3873 50.4165 17.6548 50.3899C18.3977 50.31 19.1704 50.2834 19.9133 50.2302C20.8345 50.177 21.7558 50.1237 22.677 50.0971C23.0336 50.0971 23.1228 49.9641 23.0931 49.6447C22.9742 48.7398 21.8152 47.7551 20.686 47.7551C19.1109 47.7284 17.5062 47.7817 15.9312 47.8083C14.8911 47.8349 13.851 47.9414 12.8109 47.9946H12.3651C12.2463 47.968 12.1274 47.8881 12.1274 47.7817C12.0977 47.6486 12.1571 47.5155 12.3057 47.4623C12.484 47.4091 12.692 47.3558 12.8703 47.3558C17.0307 46.9566 21.1912 47.0098 25.3516 47.1163C25.8865 47.1163 26.1242 47.2494 26.0945 47.4889C26.0054 47.8615 25.6487 47.8349 25.3219 47.8349C24.4601 47.8083 23.5983 47.8083 22.7662 47.8349ZM61.1906 47.8881C61.3689 48.1543 61.5175 48.3406 61.6363 48.5269C61.9038 48.9261 62.0227 49.3785 61.993 49.831C61.9632 50.1504 62.1118 50.2568 62.4387 50.2834C63.3302 50.3633 64.2217 50.4697 65.1133 50.5762C65.4104 50.6028 65.7968 50.5762 65.8265 50.9754C65.8562 51.2149 65.559 51.3214 64.9944 51.2416C64.0732 51.1351 63.1519 51.0553 62.2307 50.9488C61.9335 50.869 61.6066 51.002 61.458 51.2416C60.8934 51.9602 60.1208 52.5191 59.1995 52.8384C57.8623 53.3973 56.3764 53.6103 54.9202 53.4772C54.9202 53.7167 55.1283 53.8498 55.2768 53.9829C56.3467 55.1273 57.4759 56.2451 58.4566 57.4694C58.6943 57.7621 58.9321 58.0815 59.1104 58.4009C59.2292 58.5606 59.1995 58.7735 59.0212 58.8799L58.9915 58.9065C58.7538 59.0396 58.5755 58.9066 58.4566 58.7203C57.0896 56.7774 55.3363 55.1007 53.6424 53.3707C53.583 53.2909 53.5235 53.2376 53.4641 53.1578C53.3452 53.0247 53.3452 52.8651 53.4047 52.732C53.4938 52.5989 53.6721 52.5191 53.8504 52.5723C54.0287 52.5989 54.1773 52.6521 54.3556 52.6787C56.1981 53.0247 58.1 52.7054 59.675 51.8005C60.091 51.5876 60.4477 51.2948 60.7448 50.9222C60.626 50.6827 60.3882 50.7625 60.2396 50.7359C58.724 50.656 57.2382 50.5762 55.7226 50.4963C55.4849 50.4963 55.1283 50.5496 55.1283 50.2036C55.1283 49.8576 55.4849 49.8842 55.7226 49.8842C56.4655 49.8842 57.2382 49.9374 57.9811 49.9641C58.9024 50.0173 59.8236 50.0439 60.7448 50.1237C61.1014 50.1504 61.2203 50.0173 61.2203 49.7245C61.2203 48.8196 60.2099 47.7284 59.1104 47.5954C57.5354 47.4091 55.9603 47.276 54.3853 47.1429C53.3452 47.0631 52.3051 47.0365 51.2353 47.0098C51.0867 47.0098 50.9381 46.9832 50.7895 46.9566C50.6707 46.93 50.5815 46.8502 50.5518 46.7171C50.5221 46.584 50.6112 46.4509 50.7895 46.4243C50.9976 46.3977 51.1759 46.3711 51.3839 46.3711C55.574 46.3977 59.7047 46.9034 63.8057 47.4623C64.3406 47.5421 64.5486 47.6752 64.4892 47.8881C64.3703 48.2607 64.0137 48.1809 63.6868 48.1543C62.8548 48.0744 62.0227 47.968 61.1906 47.8881Z" fill="#010100"/>
</svg>
