<svg width="76" height="23" viewBox="0 0 76 23" fill="none" xmlns="http://www.w3.org/2000/svg">
<path d="M1.29517 13.9599C1.29517 13.0319 1.48183 12.2213 1.85517 11.5279C2.23917 10.8346 2.76717 10.3013 3.43917 9.92795C4.12183 9.55462 4.9005 9.36795 5.77517 9.36795C6.89517 9.36795 7.8285 9.66128 8.57517 10.2479C9.3325 10.8346 9.8285 11.6613 10.0632 12.728H7.15117C6.90583 12.0453 6.43117 11.7039 5.72717 11.7039C5.22583 11.7039 4.82583 11.9013 4.52717 12.2959C4.2285 12.68 4.07917 13.2346 4.07917 13.9599C4.07917 14.6853 4.2285 15.2453 4.52717 15.64C4.82583 16.024 5.22583 16.216 5.72717 16.216C6.43117 16.216 6.90583 15.8746 7.15117 15.192H10.0632C9.8285 16.2373 9.3325 17.0586 8.57517 17.656C7.81784 18.2533 6.8845 18.552 5.77517 18.552C4.9005 18.552 4.12183 18.3653 3.43917 17.992C2.76717 17.6186 2.23917 17.0853 1.85517 16.392C1.48183 15.6986 1.29517 14.888 1.29517 13.9599ZM11.3027 13.944C11.3027 13.0266 11.4733 12.2213 11.8147 11.5279C12.1667 10.8346 12.6413 10.3013 13.2387 9.92795C13.836 9.55462 14.5027 9.36795 15.2387 9.36795C15.868 9.36795 16.4173 9.49595 16.8867 9.75195C17.3667 10.0079 17.7347 10.3439 17.9907 10.7599V9.49595H20.7267V18.424H17.9907V17.16C17.724 17.576 17.3507 17.912 16.8707 18.168C16.4013 18.424 15.852 18.552 15.2227 18.552C14.4973 18.552 13.836 18.3653 13.2387 17.992C12.6413 17.608 12.1667 17.0693 11.8147 16.376C11.4733 15.672 11.3027 14.8613 11.3027 13.944ZM17.9907 13.9599C17.9907 13.2773 17.7987 12.7386 17.4147 12.3439C17.0413 11.9493 16.5827 11.7519 16.0387 11.7519C15.4947 11.7519 15.0307 11.9493 14.6467 12.3439C14.2733 12.7279 14.0867 13.2613 14.0867 13.944C14.0867 14.6266 14.2733 15.1706 14.6467 15.576C15.0307 15.9706 15.4947 16.168 16.0387 16.168C16.5827 16.168 17.0413 15.9706 17.4147 15.576C17.7987 15.1813 17.9907 14.6426 17.9907 13.9599ZM25.762 10.7599C26.0287 10.3439 26.3967 10.0079 26.866 9.75195C27.3354 9.49595 27.8847 9.36795 28.514 9.36795C29.25 9.36795 29.9167 9.55462 30.514 9.92795C31.1114 10.3013 31.5807 10.8346 31.922 11.5279C32.274 12.2213 32.45 13.0266 32.45 13.944C32.45 14.8613 32.274 15.672 31.922 16.376C31.5807 17.0693 31.1114 17.608 30.514 17.992C29.9167 18.3653 29.25 18.552 28.514 18.552C27.8954 18.552 27.346 18.424 26.866 18.168C26.3967 17.912 26.0287 17.5813 25.762 17.176V22.68H23.026V9.49595H25.762V10.7599ZM29.666 13.944C29.666 13.2613 29.474 12.7279 29.09 12.3439C28.7167 11.9493 28.2527 11.7519 27.698 11.7519C27.154 11.7519 26.69 11.9493 26.306 12.3439C25.9327 12.7386 25.746 13.2773 25.746 13.9599C25.746 14.6426 25.9327 15.1813 26.306 15.576C26.69 15.9706 27.154 16.168 27.698 16.168C28.242 16.168 28.706 15.9706 29.09 15.576C29.474 15.1706 29.666 14.6266 29.666 13.944ZM39.9334 18.424L37.5974 14.1839H36.9414V18.424H34.2054V7.19195H38.7974C39.6828 7.19195 40.4348 7.34662 41.0534 7.65595C41.6828 7.96528 42.1521 8.39195 42.4614 8.93595C42.7708 9.46928 42.9254 10.0666 42.9254 10.7279C42.9254 11.4746 42.7121 12.1413 42.2854 12.728C41.8694 13.3146 41.2508 13.7306 40.4294 13.9759L43.0214 18.424H39.9334ZM36.9414 12.248H38.6374C39.1388 12.248 39.5121 12.1253 39.7574 11.88C40.0134 11.6346 40.1414 11.2879 40.1414 10.8399C40.1414 10.4133 40.0134 10.0773 39.7574 9.83195C39.5121 9.58662 39.1388 9.46395 38.6374 9.46395H36.9414V12.248ZM56.0162 18.552C55.2375 18.552 54.5442 18.4186 53.9362 18.152C53.3282 17.8853 52.8482 17.5226 52.4962 17.064C52.1442 16.5946 51.9468 16.072 51.9042 15.4959H54.6082C54.6402 15.8053 54.7842 16.056 55.0402 16.248C55.2962 16.44 55.6108 16.536 55.9842 16.536C56.3255 16.536 56.5868 16.472 56.7682 16.344C56.9602 16.2053 57.0562 16.0293 57.0562 15.816C57.0562 15.56 56.9228 15.3733 56.6562 15.2559C56.3895 15.128 55.9575 14.9893 55.3602 14.84C54.7202 14.6906 54.1868 14.536 53.7602 14.3759C53.3335 14.2053 52.9655 13.9439 52.6562 13.5919C52.3468 13.2293 52.1922 12.7439 52.1922 12.136C52.1922 11.624 52.3308 11.1599 52.6082 10.7439C52.8962 10.3173 53.3122 9.98128 53.8562 9.73595C54.4108 9.49062 55.0668 9.36795 55.8242 9.36795C56.9442 9.36795 57.8242 9.64528 58.4642 10.2C59.1148 10.7546 59.4882 11.4906 59.5842 12.4079H57.0562C57.0135 12.0986 56.8748 11.8533 56.6402 11.6719C56.4162 11.4906 56.1175 11.4 55.7442 11.4C55.4242 11.4 55.1788 11.4639 55.0082 11.5919C54.8375 11.7093 54.7522 11.8746 54.7522 12.0879C54.7522 12.3439 54.8855 12.536 55.1522 12.6639C55.4295 12.7919 55.8562 12.9199 56.4322 13.0479C57.0935 13.2186 57.6322 13.3893 58.0482 13.5599C58.4642 13.72 58.8268 13.9866 59.1362 14.36C59.4562 14.7226 59.6215 15.2133 59.6322 15.832C59.6322 16.3546 59.4828 16.824 59.1842 17.24C58.8962 17.6453 58.4748 17.9653 57.9202 18.2C57.3762 18.4346 56.7415 18.552 56.0162 18.552ZM70.042 13.8159C70.042 14.072 70.026 14.3386 69.994 14.616H63.802C63.8447 15.1706 64.0207 15.5973 64.33 15.896C64.65 16.184 65.0394 16.328 65.498 16.328C66.1807 16.328 66.6554 16.04 66.922 15.464H69.834C69.6847 16.0506 69.4127 16.5786 69.018 17.048C68.634 17.5173 68.1487 17.8853 67.562 18.152C66.9754 18.4186 66.3194 18.552 65.594 18.552C64.7194 18.552 63.9407 18.3653 63.258 17.992C62.5754 17.6186 62.042 17.0853 61.658 16.392C61.274 15.6986 61.082 14.888 61.082 13.9599C61.082 13.0319 61.2687 12.2213 61.642 11.5279C62.026 10.8346 62.5594 10.3013 63.242 9.92795C63.9247 9.55462 64.7087 9.36795 65.594 9.36795C66.458 9.36795 67.226 9.54928 67.898 9.91195C68.57 10.2746 69.0927 10.7919 69.466 11.4639C69.85 12.1359 70.042 12.92 70.042 13.8159ZM67.242 13.096C67.242 12.6266 67.082 12.2533 66.762 11.9759C66.442 11.6986 66.042 11.5599 65.562 11.5599C65.1034 11.5599 64.714 11.6933 64.394 11.9599C64.0847 12.2266 63.8927 12.6053 63.818 13.096H67.242Z" fill="white"/>
<path d="M47.5942 8.98901L51.1885 17.9727H43.9998L47.5942 8.98901Z" fill="#00D09C"/>
<ellipse cx="47.5942" cy="5.24593" rx="1.79716" ry="2.24593" fill="#FF0000"/>
</svg>
