<svg width="198" height="198" viewBox="0 0 198 198" fill="none" xmlns="http://www.w3.org/2000/svg">
<rect width="198" height="198" rx="30" fill="#060F66"/>
<path d="M12.092 101.119C12.092 98.857 12.547 96.881 13.457 95.191C14.393 93.501 15.68 92.201 17.318 91.291C18.982 90.381 20.88 89.926 23.012 89.926C25.742 89.926 28.017 90.641 29.837 92.071C31.683 93.501 32.892 95.516 33.464 98.116H26.366C25.768 96.452 24.611 95.62 22.895 95.62C21.673 95.62 20.698 96.101 19.97 97.063C19.242 97.999 18.878 99.351 18.878 101.119C18.878 102.887 19.242 104.252 19.97 105.214C20.698 106.15 21.673 106.618 22.895 106.618C24.611 106.618 25.768 105.786 26.366 104.122H33.464C32.892 106.67 31.683 108.672 29.837 110.128C27.991 111.584 25.716 112.312 23.012 112.312C20.88 112.312 18.982 111.857 17.318 110.947C15.68 110.037 14.393 108.737 13.457 107.047C12.547 105.357 12.092 103.381 12.092 101.119ZM36.4853 101.08C36.4853 98.844 36.9013 96.881 37.7333 95.191C38.5913 93.501 39.7483 92.201 41.2043 91.291C42.6603 90.381 44.2853 89.926 46.0793 89.926C47.6133 89.926 48.9523 90.238 50.0963 90.862C51.2663 91.486 52.1633 92.305 52.7873 93.319V90.238H59.4563V112H52.7873V108.919C52.1373 109.933 51.2273 110.752 50.0573 111.376C48.9133 112 47.5743 112.312 46.0403 112.312C44.2723 112.312 42.6603 111.857 41.2043 110.947C39.7483 110.011 38.5913 108.698 37.7333 107.008C36.9013 105.292 36.4853 103.316 36.4853 101.08ZM52.7873 101.119C52.7873 99.455 52.3193 98.142 51.3833 97.18C50.4733 96.218 49.3553 95.737 48.0293 95.737C46.7033 95.737 45.5723 96.218 44.6363 97.18C43.7263 98.116 43.2713 99.416 43.2713 101.08C43.2713 102.744 43.7263 104.07 44.6363 105.058C45.5723 106.02 46.7033 106.501 48.0293 106.501C49.3553 106.501 50.4733 106.02 51.3833 105.058C52.3193 104.096 52.7873 102.783 52.7873 101.119ZM71.73 93.319C72.38 92.305 73.277 91.486 74.421 90.862C75.565 90.238 76.904 89.926 78.438 89.926C80.232 89.926 81.857 90.381 83.313 91.291C84.769 92.201 85.913 93.501 86.745 95.191C87.603 96.881 88.032 98.844 88.032 101.08C88.032 103.316 87.603 105.292 86.745 107.008C85.913 108.698 84.769 110.011 83.313 110.947C81.857 111.857 80.232 112.312 78.438 112.312C76.93 112.312 75.591 112 74.421 111.376C73.277 110.752 72.38 109.946 71.73 108.958V122.374H65.061V90.238H71.73V93.319ZM81.246 101.08C81.246 99.416 80.778 98.116 79.842 97.18C78.932 96.218 77.801 95.737 76.449 95.737C75.123 95.737 73.992 96.218 73.056 97.18C72.146 98.142 71.691 99.455 71.691 101.119C71.691 102.783 72.146 104.096 73.056 105.058C73.992 106.02 75.123 106.501 76.449 106.501C77.775 106.501 78.906 106.02 79.842 105.058C80.778 104.07 81.246 102.744 81.246 101.08ZM106.273 112L100.579 101.665H98.9797V112H92.3107V84.622H103.504C105.662 84.622 107.495 84.999 109.003 85.753C110.537 86.507 111.681 87.547 112.435 88.873C113.189 90.173 113.566 91.629 113.566 93.241C113.566 95.061 113.046 96.686 112.006 98.116C110.992 99.546 109.484 100.56 107.482 101.158L113.8 112H106.273ZM98.9797 96.946H103.114C104.336 96.946 105.246 96.647 105.844 96.049C106.468 95.451 106.78 94.606 106.78 93.514C106.78 92.474 106.468 91.655 105.844 91.057C105.246 90.459 104.336 90.16 103.114 90.16H98.9797V96.946ZM145.474 112.312C143.576 112.312 141.886 111.987 140.404 111.337C138.922 110.687 137.752 109.803 136.894 108.685C136.036 107.541 135.555 106.267 135.451 104.863H142.042C142.12 105.617 142.471 106.228 143.095 106.696C143.719 107.164 144.486 107.398 145.396 107.398C146.228 107.398 146.865 107.242 147.307 106.93C147.775 106.592 148.009 106.163 148.009 105.643C148.009 105.019 147.684 104.564 147.034 104.278C146.384 103.966 145.331 103.628 143.875 103.264C142.315 102.9 141.015 102.523 139.975 102.133C138.935 101.717 138.038 101.08 137.284 100.222C136.53 99.338 136.153 98.155 136.153 96.673C136.153 95.425 136.491 94.294 137.167 93.28C137.869 92.24 138.883 91.421 140.209 90.823C141.561 90.225 143.16 89.926 145.006 89.926C147.736 89.926 149.881 90.602 151.441 91.954C153.027 93.306 153.937 95.1 154.171 97.336H148.009C147.905 96.582 147.567 95.984 146.995 95.542C146.449 95.1 145.721 94.879 144.811 94.879C144.031 94.879 143.433 95.035 143.017 95.347C142.601 95.633 142.393 96.036 142.393 96.556C142.393 97.18 142.718 97.648 143.368 97.96C144.044 98.272 145.084 98.584 146.488 98.896C148.1 99.312 149.413 99.728 150.427 100.144C151.441 100.534 152.325 101.184 153.079 102.094C153.859 102.978 154.262 104.174 154.288 105.682C154.288 106.956 153.924 108.1 153.196 109.114C152.494 110.102 151.467 110.882 150.115 111.454C148.789 112.026 147.242 112.312 145.474 112.312ZM179.663 100.768C179.663 101.392 179.624 102.042 179.546 102.718H164.453C164.557 104.07 164.986 105.11 165.74 105.838C166.52 106.54 167.469 106.891 168.587 106.891C170.251 106.891 171.408 106.189 172.058 104.785H179.156C178.792 106.215 178.129 107.502 177.167 108.646C176.231 109.79 175.048 110.687 173.618 111.337C172.188 111.987 170.589 112.312 168.821 112.312C166.689 112.312 164.791 111.857 163.127 110.947C161.463 110.037 160.163 108.737 159.227 107.047C158.291 105.357 157.823 103.381 157.823 101.119C157.823 98.857 158.278 96.881 159.188 95.191C160.124 93.501 161.424 92.201 163.088 91.291C164.752 90.381 166.663 89.926 168.821 89.926C170.927 89.926 172.799 90.368 174.437 91.252C176.075 92.136 177.349 93.397 178.259 95.035C179.195 96.673 179.663 98.584 179.663 100.768ZM172.838 99.013C172.838 97.869 172.448 96.959 171.668 96.283C170.888 95.607 169.913 95.269 168.743 95.269C167.625 95.269 166.676 95.594 165.896 96.244C165.142 96.894 164.674 97.817 164.492 99.013H172.838Z" fill="white"/>
<path d="M125.787 90.6514L133.573 112.369H118L125.787 90.6514Z" fill="#00D09C"/>
<ellipse cx="125.475" cy="83.7673" rx="5.60629" ry="4.76726" fill="#FF0000"/>
</svg>
