<svg width="53" height="41" viewBox="0 0 53 41" fill="none" xmlns="http://www.w3.org/2000/svg">
<path d="M9.67508 40.3386V37.7802C9.67508 36.7992 9.04556 36.1598 7.96652 36.1598C7.4271 36.1598 6.84263 36.3303 6.43797 36.8847C6.12341 36.4156 5.6739 36.1598 4.99953 36.1598C4.54981 36.1598 4.1005 36.2876 3.74068 36.7567V36.245H2.7966V40.3386H3.74068V38.0785C3.74068 37.3538 4.14535 37.0125 4.77487 37.0125C5.40399 37.0125 5.71895 37.3963 5.71895 38.0785V40.3386H6.66303V38.0785C6.66303 37.3538 7.11234 37.0125 7.69681 37.0125C8.32634 37.0125 8.64089 37.3963 8.64089 38.0785V40.3386H9.67508ZM23.6563 36.245H22.1279V35.0085H21.1839V36.245H20.3297V37.055H21.1837V38.9315C21.1837 39.8697 21.5883 40.4239 22.6674 40.4239C23.072 40.4239 23.5213 40.296 23.8363 40.1255L23.5664 39.3578C23.2967 39.5284 22.9821 39.5711 22.7573 39.5711C22.3078 39.5711 22.1279 39.3153 22.1279 38.8887V37.055H23.6563V36.245ZM31.6587 36.1596C31.1192 36.1596 30.7596 36.4156 30.5348 36.7567V36.245H29.5907V40.3386H30.5348V38.036C30.5348 37.3538 30.8493 36.97 31.4338 36.97C31.6136 36.97 31.8385 37.0127 32.0183 37.0552L32.288 36.2025C32.1082 36.1598 31.8385 36.1598 31.6587 36.1598V36.1596ZM19.5654 36.5861C19.1157 36.2876 18.4864 36.1598 17.812 36.1598C16.7332 36.1598 16.0139 36.6714 16.0139 37.4816C16.0139 38.164 16.5534 38.5476 17.4974 38.6756L17.947 38.7184C18.4415 38.8035 18.7112 38.9315 18.7112 39.1447C18.7112 39.4431 18.3516 39.6564 17.7221 39.6564C17.0928 39.6564 16.5982 39.4431 16.2834 39.23L15.8339 39.9122C16.3285 40.2533 17.0029 40.4239 17.677 40.4239C18.9359 40.4239 19.6553 39.8697 19.6553 39.102C19.6553 38.3771 19.0708 37.9933 18.1716 37.8654L17.7221 37.8227C17.3174 37.78 17.0029 37.6949 17.0029 37.4391C17.0029 37.1405 17.3174 36.97 17.812 36.97C18.3516 36.97 18.891 37.1831 19.1607 37.3111L19.5654 36.5861ZM44.6512 36.1598C44.1115 36.1598 43.7519 36.4156 43.5271 36.7567V36.245H42.583V40.3386H43.5271V38.036C43.5271 37.3538 43.8418 36.97 44.4261 36.97C44.6061 36.97 44.831 37.0127 45.0108 37.0552L45.2805 36.2025C45.1007 36.1598 44.831 36.1598 44.6512 36.1598ZM32.6027 38.2918C32.6027 39.5284 33.5018 40.4239 34.8956 40.4239C35.5249 40.4239 35.9744 40.296 36.4239 39.9549L35.9744 39.23C35.6148 39.4858 35.2552 39.6137 34.8505 39.6137C34.0862 39.6137 33.5468 39.102 33.5468 38.2918C33.5468 37.5243 34.0862 37.0125 34.8505 36.97C35.2552 36.97 35.6148 37.0978 35.9744 37.3538L36.4239 36.6289C35.9744 36.2876 35.5249 36.1598 34.8956 36.1598C33.5018 36.1598 32.6027 37.0552 32.6027 38.2918ZM41.3243 38.2918V36.245H40.3803V36.7567C40.0655 36.373 39.616 36.1598 39.0315 36.1598C37.8177 36.1598 36.8736 37.0552 36.8736 38.2918C36.8736 39.5284 37.8177 40.4239 39.0315 40.4239C39.6608 40.4239 40.1106 40.2108 40.3803 39.8269V40.3386H41.3243V38.2918ZM37.8626 38.2918C37.8626 37.5669 38.3571 36.97 39.1663 36.97C39.9305 36.97 40.4702 37.5243 40.4702 38.2918C40.4702 39.0167 39.9305 39.6137 39.1663 39.6137C38.3571 39.5709 37.8626 39.0167 37.8626 38.2918ZM26.5786 36.1598C25.3198 36.1598 24.4206 37.0125 24.4206 38.2918C24.4206 39.5711 25.3196 40.4239 26.6235 40.4239C27.2528 40.4239 27.8823 40.2533 28.3769 39.8697L27.9272 39.23C27.5676 39.4858 27.1181 39.6564 26.6686 39.6564C26.0841 39.6564 25.4996 39.4006 25.3647 38.6754H28.5567V38.3345C28.6018 37.0125 27.7924 36.1598 26.5784 36.1598H26.5786ZM26.5786 36.9272C27.1629 36.9272 27.5678 37.2685 27.6575 37.9082H25.4097C25.4996 37.3538 25.9043 36.9272 26.5786 36.9272ZM50.0009 38.2918V34.6246H49.0568V36.7567C48.742 36.373 48.2925 36.1598 47.7081 36.1598C46.4943 36.1598 45.5502 37.0552 45.5502 38.2918C45.5502 39.5284 46.4943 40.4239 47.7081 40.4239C48.3376 40.4239 48.7871 40.2108 49.0568 39.8269V40.3386H50.0009V38.2918ZM46.5393 38.2918C46.5393 37.5669 47.0337 36.97 47.843 36.97C48.6073 36.97 49.1467 37.5243 49.1467 38.2918C49.1467 39.0167 48.6073 39.6137 47.843 39.6137C47.0337 39.5709 46.5393 39.0167 46.5393 38.2918ZM14.9798 38.2918V36.245H14.0357V36.7567C13.7209 36.373 13.2714 36.1598 12.6869 36.1598C11.4731 36.1598 10.5291 37.0552 10.5291 38.2918C10.5291 39.5284 11.4731 40.4239 12.6869 40.4239C13.3165 40.4239 13.766 40.2108 14.0357 39.8269V40.3386H14.9798V38.2918ZM11.4731 38.2918C11.4731 37.5669 11.9677 36.97 12.7768 36.97C13.5411 36.97 14.0807 37.5243 14.0807 38.2918C14.0807 39.0167 13.5411 39.6137 12.7768 39.6137C11.9677 39.5709 11.4731 39.0167 11.4731 38.2918Z" fill="white"/>
<path d="M20.1495 16.1228C20.1495 11.2191 22.5771 6.86951 26.3084 4.05508C23.5662 2.0083 20.1047 0.771729 16.3283 0.771729C7.38169 0.771729 0.143799 7.63698 0.143799 16.1228C0.143799 24.6085 7.38169 31.4739 16.3281 31.4739C20.1045 31.4739 23.566 30.2374 26.3084 28.1904C22.5771 25.4187 20.1495 21.0266 20.1495 16.1228Z" fill="#EB001B"/>
<path d="M52.5182 16.1228C52.5182 24.6085 45.2803 31.4739 36.3339 31.4739C32.5575 31.4739 29.096 30.2374 26.3536 28.1904C30.13 25.3761 32.5127 21.0266 32.5127 16.1228C32.5127 11.2191 30.0849 6.86951 26.3536 4.05508C29.0958 2.0083 32.5575 0.771729 36.3339 0.771729C45.2803 0.771729 52.5184 7.67971 52.5184 16.1228H52.5182Z" fill="#F79E1B"/>
</svg>
