<svg width="21" height="20" viewBox="0 0 21 20" fill="none" xmlns="http://www.w3.org/2000/svg">
<path d="M10.736 10.4165C9.96245 10.4165 9.22059 10.7238 8.67361 11.2708C8.12663 11.8178 7.81934 12.5596 7.81934 13.3332C7.81934 14.1067 8.12663 14.8486 8.67361 15.3956C9.22059 15.9425 9.96245 16.2498 10.736 16.2498C11.5096 16.2498 12.2514 15.9425 12.7984 15.3956C13.3454 14.8486 13.6527 14.1067 13.6527 13.3332C13.6527 12.5596 13.3454 11.8178 12.7984 11.2708C12.2514 10.7238 11.5096 10.4165 10.736 10.4165ZM9.486 13.3332C9.486 13.0017 9.6177 12.6837 9.85212 12.4493C10.0865 12.2149 10.4045 12.0832 10.736 12.0832C11.0675 12.0832 11.3855 12.2149 11.6199 12.4493C11.8543 12.6837 11.986 13.0017 11.986 13.3332C11.986 13.6647 11.8543 13.9826 11.6199 14.2171C11.3855 14.4515 11.0675 14.5832 10.736 14.5832C10.4045 14.5832 10.0865 14.4515 9.85212 14.2171C9.6177 13.9826 9.486 13.6647 9.486 13.3332Z" fill="#060F66"/>
<path d="M15.341 4.26348L12.6918 0.549316L2.95096 8.33098L2.41096 8.32515V8.33348H1.98596V18.3335H19.486V8.33348H18.6843L17.0893 3.66765L15.341 4.26348ZM16.9235 8.33348H8.5668L14.791 6.21182L16.0593 5.80598L16.9235 8.33348ZM13.6943 4.82515L7.2693 7.01515L12.3576 2.95015L13.6943 4.82515ZM3.65263 15.141V11.5243C4.00421 11.3997 4.32355 11.1983 4.58737 10.9346C4.8512 10.6709 5.05285 10.3517 5.17763 10.0001H16.2943C16.419 10.3518 16.6206 10.6712 16.8845 10.935C17.1483 11.1988 17.4677 11.4004 17.8193 11.5251V15.1418C17.4677 15.2665 17.1483 15.4682 16.8845 15.732C16.6206 15.9958 16.419 16.3152 16.2943 16.6668H5.1793C5.05445 16.3149 4.8526 15.9953 4.58848 15.7313C4.32436 15.4673 4.00463 15.2656 3.65263 15.141Z" fill="#060F66"/>
</svg>
