<svg width="100" height="102" viewBox="0 0 100 102" fill="none" xmlns="http://www.w3.org/2000/svg">
<path d="M34.2225 53.5469C34.1853 57.4678 30.6547 59.7906 27.217 58.3969C26.1578 57.9695 25.1915 57.3191 24.4111 56.4829C22.4785 54.4946 22.5343 51.3171 24.5226 49.3845C25.8419 48.1023 27.7559 47.6564 29.5026 48.1952C29.9486 48.3067 30.3946 48.4554 30.822 48.6412C32.9775 49.7376 34.0924 51.4657 34.2225 53.5469Z" fill="black"/>
<path d="M28.0533 57.617C25.6933 57.6727 23.5563 55.6844 23.5006 53.2316C23.3891 50.7044 25.3588 48.5674 27.886 48.4559C30.4132 48.3444 32.5501 50.3141 32.6616 52.8413C32.7731 55.3685 30.8034 57.5055 28.2762 57.617H28.0533ZM32.8103 54.7739C33.0519 54.8296 33.1634 54.9783 33.312 55.034C33.5908 55.127 33.5536 55.3128 33.4607 55.5172C33.1448 56.2419 33.2377 56.149 32.6059 55.7216C32.4944 55.6658 32.4387 55.5358 32.4944 55.4243C32.4944 55.4057 32.513 55.3871 32.5316 55.3685C32.6245 55.2013 32.7174 54.9783 32.8103 54.7739ZM33.6279 54.6996C32.9218 54.3651 32.9218 54.3651 33.089 53.4917C33.8509 53.7519 33.9067 54.0863 33.6279 54.6996ZM31.844 56.4463C31.9184 56.2605 32.0484 56.1118 32.1971 55.9817C32.3643 56.0561 32.5316 56.149 32.6616 56.279C32.8289 56.372 32.8846 56.5949 32.7731 56.7622C32.7174 56.8365 32.6616 56.8923 32.5687 56.9109C32.4758 56.948 32.4015 56.8923 32.3457 56.8365C32.1785 56.725 32.0113 56.5764 31.844 56.4463ZM33.6837 53.213C33.2377 53.1015 33.0147 52.8413 33.0519 52.3954C33.0705 52.2467 32.959 52.098 33.0147 51.9494C33.5164 52.0795 33.6465 52.321 33.6837 53.213ZM31.0822 57.0967C31.1936 57.0038 31.268 56.948 31.3237 56.8923C31.4724 56.725 31.621 56.7436 31.7511 56.8923C31.8069 56.948 31.8812 57.0038 31.9369 57.0595C31.9927 57.1153 32.2157 57.1896 32.0856 57.3754C31.9927 57.5612 31.7697 57.617 31.5839 57.5241C31.5653 57.5055 31.5467 57.5055 31.5281 57.4869C31.3981 57.3754 31.268 57.2453 31.0822 57.0967ZM30.1716 57.6541C30.7663 57.2639 30.7663 57.2639 31.268 57.8585C30.6548 58.2488 30.7105 58.1559 30.1716 57.6541ZM29.1496 57.9886C29.5398 57.7656 29.8557 57.8214 30.0973 58.2302C29.577 58.4532 29.4655 58.416 29.1496 57.9886ZM32.6245 50.6486L32.959 51.0946C33.0147 51.1504 33.0519 51.2433 33.0519 51.3362C32.9032 51.4105 32.8103 51.3362 32.736 51.2061C32.6431 51.0203 32.5687 50.8345 32.4944 50.6486C32.513 50.6115 32.5687 50.5929 32.6059 50.63C32.6245 50.63 32.6245 50.6486 32.6245 50.6486ZM28.0161 58.1744C28.4621 58.0444 28.4621 58.0444 28.6479 58.3045C28.4435 58.3045 28.2205 58.2674 28.0161 58.1744ZM32.29 50.3513C32.2343 50.2956 32.1228 50.2398 32.2157 50.1841C32.3086 50.1283 32.3829 50.2584 32.4201 50.3513C32.3829 50.4071 32.3457 50.4071 32.29 50.3513Z" fill="#FFD574"/>
<path d="M32.6246 50.6481H32.4945C32.4388 50.6481 32.4202 50.5923 32.4202 50.5552C32.383 50.518 32.383 50.4622 32.4202 50.4251L32.4388 50.4065C32.5317 50.4622 32.606 50.5366 32.6246 50.6481Z" fill="#FFD574"/>
<path d="M32.4387 50.4254C32.4387 50.4626 32.4201 50.5183 32.4201 50.5555C32.3644 50.4998 32.3086 50.4254 32.29 50.3325H32.4201C32.4387 50.3697 32.4387 50.3883 32.4387 50.4254ZM27.9604 52.135C27.7374 51.8748 27.5702 51.5961 27.4772 51.2616C27.4215 51.0758 27.4958 50.9643 27.7002 50.9457H28.0719C28.6665 51.0015 28.7037 51.0944 28.3692 51.5775C28.2577 51.7634 28.1276 51.912 27.9604 52.135ZM27.9046 52.9712C27.979 53.0455 28.0161 53.0641 28.0161 53.1013C28.109 53.3057 28.2949 53.5287 28.0905 53.7145C27.8861 53.9003 27.6073 53.8074 27.3472 53.6587C27.5516 53.4172 27.7188 53.2128 27.9046 52.9712Z" fill="#FFD574"/>
<path d="M51.9315 10.7891C51.8943 14.71 48.3637 17.0328 44.926 15.6391C43.8668 15.2117 42.9005 14.5613 42.1201 13.7251C40.2061 11.7368 40.2619 8.55925 42.2502 6.6267C43.5695 5.36311 45.4649 4.91713 47.2116 5.45602C47.6576 5.56751 48.1036 5.71617 48.531 5.90199C50.6865 6.97976 51.8014 8.70791 51.9315 10.7891Z" fill="black"/>
<path d="M45.7622 14.8589C43.4023 14.8961 41.2653 12.9264 41.2096 10.4549C41.0981 7.92776 43.0678 5.7908 45.595 5.69789C48.1222 5.60498 50.2591 7.55611 50.352 10.0833C50.445 12.6105 48.4938 14.7474 45.9666 14.8403C45.8923 14.8403 45.8366 14.8589 45.7622 14.8589ZM50.5193 11.9973C50.7609 12.053 50.8723 12.2017 51.021 12.2574C51.2997 12.3503 51.2626 12.5361 51.1697 12.7406C50.8538 13.4653 50.9467 13.3723 50.3149 12.945C50.2034 12.8892 50.1476 12.7591 50.2034 12.6476C50.2034 12.6291 50.222 12.6105 50.2406 12.5919C50.3335 12.4247 50.4264 12.2203 50.5193 11.9973ZM51.3369 11.9229C50.6308 11.5885 50.6308 11.5885 50.798 10.7151C51.5599 10.9752 51.6156 11.3097 51.3369 11.9229ZM49.553 13.6697C49.6273 13.4838 49.7574 13.3352 49.9061 13.2051C50.0733 13.2794 50.2406 13.3723 50.3706 13.5024C50.5379 13.5953 50.5936 13.8183 50.4821 13.9856C50.4264 14.0599 50.3706 14.1156 50.2777 14.1342C50.1848 14.1714 50.1105 14.1156 50.0547 14.0599C49.8875 13.9484 49.7203 13.7997 49.553 13.6697ZM51.3927 10.4364C50.9467 10.3249 50.7237 10.0647 50.7609 9.61874C50.7794 9.47008 50.6679 9.32142 50.7237 9.17276C51.2254 9.30284 51.3741 9.56299 51.3927 10.4364ZM48.7911 14.32C48.8655 14.2457 48.9584 14.19 49.0327 14.1156C49.1814 13.9484 49.33 13.967 49.4601 14.1156C49.5158 14.1714 49.5902 14.2271 49.6459 14.2829C49.7017 14.3386 49.9247 14.413 49.7946 14.5988C49.7017 14.7846 49.4787 14.8403 49.2929 14.7474C49.2743 14.7289 49.2557 14.7289 49.2371 14.7103C49.107 14.5988 48.977 14.4687 48.7911 14.32ZM47.8806 14.8961C48.4752 14.5059 48.4752 14.5059 48.977 15.1005C48.3637 15.4721 48.4381 15.3978 47.8806 14.8961ZM46.8586 15.212C47.2488 14.989 47.5647 15.0448 47.8063 15.4536C47.286 15.6765 47.1745 15.658 46.8586 15.212ZM50.352 7.89059L50.6865 8.33656C50.7423 8.41089 50.7794 8.48522 50.7794 8.57813C50.6308 8.65246 50.5193 8.57813 50.4635 8.44806C50.3706 8.26224 50.2963 8.07641 50.222 7.89059C50.2406 7.85343 50.2963 7.83484 50.3335 7.87201L50.352 7.89059ZM45.7251 15.3978C46.171 15.2677 46.171 15.2677 46.3569 15.5279C46.1525 15.5279 45.9295 15.4907 45.7251 15.3978ZM49.999 7.57469C49.9432 7.51895 49.8317 7.4632 49.9247 7.40745C50.0176 7.35171 50.0919 7.48178 50.1291 7.57469C50.1105 7.61186 50.0547 7.63044 50.0176 7.61186C50.0176 7.59327 49.999 7.59328 49.999 7.57469Z" fill="#FFD574"/>
<path d="M50.3519 7.89074H50.2218C50.1661 7.89074 50.1475 7.83499 50.1475 7.79783C50.1103 7.76066 50.1103 7.70492 50.1475 7.66775L50.1661 7.64917C50.2404 7.70492 50.3147 7.77925 50.3519 7.89074Z" fill="#FFD574"/>
<path d="M50.1477 7.64882C50.1477 7.68598 50.1291 7.74173 50.1291 7.77889C50.0548 7.72315 50.0176 7.64882 49.999 7.55591H50.1291C50.1477 7.59307 50.1477 7.63024 50.1477 7.64882ZM45.6879 9.37697C45.465 9.11682 45.2977 8.83808 45.2048 8.5036C45.1491 8.31778 45.2234 8.20629 45.4278 8.1877H45.7809C46.3755 8.24345 46.4127 8.33636 46.0782 8.8195C45.9667 8.98674 45.8366 9.15398 45.6879 9.37697ZM45.6136 10.1946C45.6879 10.2689 45.7251 10.2875 45.7251 10.3247C45.818 10.5291 46.0038 10.7521 45.7994 10.9379C45.595 11.1237 45.3163 11.0308 45.0562 10.8821C45.2606 10.6406 45.4278 10.4362 45.6136 10.1946Z" fill="#FFD574"/>
<path d="M92.6451 18.7986C92.608 22.7194 89.0773 25.0422 85.6396 23.6485C84.5804 23.2211 83.6142 22.5708 82.8337 21.7346C80.9197 19.7463 80.9755 16.5687 82.9638 14.6361C84.2831 13.3725 86.1785 12.908 87.9252 13.4655C88.3712 13.577 88.8172 13.7256 89.2446 13.9114C91.4001 14.9892 92.5151 16.7174 92.6451 18.7986Z" fill="black"/>
<path d="M86.4759 22.8679C84.1159 22.9237 81.979 20.9354 81.9232 18.4825C81.8117 15.9554 83.7814 13.8184 86.3086 13.7069C88.8358 13.5954 90.9728 15.5651 91.0843 18.0923C91.1957 20.6195 89.226 22.7565 86.6988 22.8679H86.4759ZM91.2329 20.0063C91.4745 20.062 91.586 20.2107 91.7346 20.2664C92.0134 20.3779 91.9762 20.5452 91.8833 20.7496C91.5674 21.4743 91.6603 21.3814 91.0285 20.954C90.8984 20.8611 90.8613 20.7682 90.9356 20.6195C91.0471 20.4337 91.14 20.2293 91.2329 20.0063ZM92.0505 19.9505C91.3444 19.6161 91.3444 19.6161 91.5116 18.7427C92.2735 19.0028 92.3293 19.3187 92.0505 19.9505ZM90.2666 21.6787C90.341 21.4929 90.471 21.3442 90.6197 21.2141C90.7869 21.2885 90.9542 21.3814 91.0843 21.5114C91.2515 21.6044 91.3072 21.8273 91.1957 21.9946C91.14 22.0689 91.0657 22.1247 90.9913 22.1618C90.8984 22.199 90.8241 22.1432 90.7684 22.0875C90.6011 21.9574 90.4339 21.8273 90.2666 21.6787ZM92.1063 18.464C91.6603 18.3339 91.4373 18.0923 91.4745 17.6463C91.4931 17.4977 91.3816 17.349 91.4373 17.2004C91.939 17.3119 92.0691 17.572 92.1063 18.464ZM89.5048 22.3476C89.6163 22.2547 89.6906 22.199 89.7463 22.1432C89.895 21.976 90.0251 22.0132 90.1737 22.1618C90.2295 22.2176 90.3038 22.2733 90.3595 22.3291C90.4153 22.3848 90.6383 22.4591 90.5082 22.645C90.4153 22.8308 90.1923 22.8865 90.0065 22.7936C89.9879 22.775 89.9693 22.775 89.9507 22.7565C89.8207 22.6264 89.6906 22.4963 89.5048 22.3476ZM88.5942 22.9051C89.1889 22.5149 89.1889 22.5149 89.6906 23.1095C89.0774 23.4812 89.1331 23.4068 88.5942 22.9051ZM87.5722 23.2396C87.9624 23.0166 88.2783 23.0724 88.5199 23.4812C87.9996 23.7041 87.8881 23.667 87.5722 23.2396ZM91.0657 15.8996L91.4001 16.3456C91.4559 16.4199 91.4931 16.4942 91.4931 16.5871C91.3444 16.6615 91.2515 16.5871 91.1772 16.4571C91.0843 16.2713 91.0099 16.0854 90.9356 15.8996C90.9542 15.8624 91.0099 15.8439 91.0471 15.881L91.0657 15.8996ZM86.4387 23.4254C86.8847 23.2953 86.8847 23.2953 87.0891 23.5555C86.8661 23.5555 86.6431 23.4997 86.4387 23.4254ZM90.7126 15.6023C90.6569 15.5465 90.5454 15.4908 90.6383 15.4351C90.7312 15.3793 90.8055 15.5094 90.8427 15.6023C90.8241 15.6395 90.7684 15.658 90.7312 15.6395C90.7312 15.6209 90.7312 15.6023 90.7126 15.6023Z" fill="#FFD574"/>
<path d="M91.0658 15.8997H90.9357C90.88 15.8997 90.8614 15.8439 90.8614 15.8067C90.8242 15.7696 90.8242 15.7138 90.8614 15.6767L90.88 15.6581C90.9543 15.7138 91.0286 15.7882 91.0658 15.8997Z" fill="#FFD574"/>
<path d="M90.8613 15.6763C90.8613 15.732 90.8613 15.7692 90.8427 15.8064C90.787 15.7506 90.7312 15.6763 90.7126 15.5834H90.8427C90.8613 15.6205 90.8613 15.6391 90.8613 15.6763ZM86.4016 17.3859C86.1786 17.1443 86.0113 16.847 85.9184 16.5125C85.8627 16.3267 85.937 16.1966 86.1414 16.1966C86.2715 16.1966 86.383 16.1966 86.5131 16.2152C87.1077 16.2709 87.1449 16.3638 86.7918 16.847C86.6803 17.0142 86.5502 17.1629 86.4016 17.3859ZM86.3272 18.2221C86.4016 18.2964 86.4387 18.315 86.4387 18.3521C86.5316 18.5565 86.7175 18.7795 86.5131 18.9653C86.3087 19.1512 86.0485 19.0583 85.7698 18.9096C85.9742 18.668 86.1414 18.445 86.3272 18.2221Z" fill="#FFD574"/>
<path d="M89.6906 69.8809C89.6534 73.8018 86.1228 76.1246 82.6851 74.7309C81.6259 74.3035 80.6596 73.6531 79.8792 72.8169C77.9652 70.81 78.0209 67.6511 80.0278 65.7185C81.3472 64.4549 83.2426 64.0089 84.9893 64.5478C85.4353 64.6593 85.8812 64.808 86.3086 64.9938C88.4456 66.0716 89.5605 67.7997 89.6906 69.8809Z" fill="black"/>
<path d="M83.5027 73.9506C81.1428 74.0063 79.0058 72.018 78.9501 69.5652C78.8386 67.038 80.8083 64.901 83.3355 64.7895C85.8627 64.6781 87.9996 66.6478 88.1111 69.175C88.2226 71.7021 86.2529 73.8391 83.7257 73.9506H83.5027ZM88.2783 71.0889C88.5199 71.1447 88.6314 71.2933 88.7801 71.3491C89.0588 71.4606 89.0216 71.6278 88.9287 71.8322C88.6128 72.5569 88.7057 72.4826 88.0739 72.0366C87.9624 71.9809 87.9067 71.8508 87.9624 71.7393C87.9624 71.7207 87.981 71.7021 87.9996 71.6836C88.0925 71.5163 88.1669 71.3119 88.2783 71.0889ZM89.096 71.0146C88.3898 70.6801 88.3898 70.6801 88.5571 69.8067C89.319 70.0855 89.3561 70.4014 89.096 71.0146ZM87.2935 72.7613C87.3678 72.5755 87.4979 72.4268 87.6466 72.2968C87.8138 72.3711 87.981 72.464 88.1111 72.5941C88.2783 72.687 88.3341 72.91 88.2226 73.0772C88.1669 73.1516 88.1111 73.2073 88.0182 73.2259C87.9253 73.263 87.851 73.2073 87.7952 73.1515C87.628 73.0401 87.4607 72.8914 87.2935 72.7613ZM89.1331 69.528C88.6872 69.4165 88.4642 69.1564 88.5013 68.7104C88.5199 68.5617 88.4084 68.4131 88.4642 68.2644C88.9659 68.3945 89.1146 68.6546 89.1331 69.528ZM86.5502 73.4117C86.6617 73.3188 86.736 73.263 86.7918 73.2073C86.9404 73.0401 87.0705 73.0586 87.2192 73.2073C87.2749 73.263 87.3492 73.3188 87.405 73.3745C87.4607 73.4303 87.6837 73.5046 87.5536 73.6904C87.4607 73.8763 87.2377 73.932 87.0519 73.8391C87.0333 73.8205 87.0148 73.8205 86.9962 73.8019C86.8661 73.6904 86.7174 73.5789 86.5502 73.4117ZM85.6211 73.9878C86.2157 73.5975 86.2157 73.5975 86.7174 74.1922C86.1042 74.5638 86.1786 74.4895 85.6211 73.9878ZM84.6176 74.3036C85.0079 74.0807 85.3238 74.1364 85.5653 74.5452C85.0265 74.7682 84.9335 74.7496 84.6176 74.3036ZM88.0925 66.9822L88.427 67.4282C88.4828 67.5025 88.5199 67.5769 88.5199 67.6698C88.3713 67.7441 88.2783 67.6698 88.204 67.5397C88.1111 67.3539 88.0368 67.1681 87.9624 66.9822C87.981 66.9451 88.0368 66.9265 88.0739 66.9637C88.0739 66.9637 88.0925 66.9637 88.0925 66.9822ZM83.4841 74.4895C83.9301 74.3594 83.9301 74.3594 84.1345 74.6195C83.8929 74.6195 83.6885 74.5824 83.4841 74.4895ZM87.758 66.6664C87.7023 66.6106 87.5908 66.5549 87.6837 66.4991C87.7766 66.4434 87.851 66.5734 87.8881 66.6664C87.8695 66.7035 87.8138 66.7221 87.7766 66.7035C87.7766 66.6849 87.758 66.6849 87.758 66.6664Z" fill="#FFD574"/>
<path d="M88.0926 66.9824H87.9626C87.9068 66.9824 87.8882 66.9267 87.8882 66.8895C87.8511 66.8523 87.8511 66.7966 87.8882 66.7594L87.9068 66.7408C87.9811 66.7966 88.0555 66.8709 88.0926 66.9824Z" fill="#FFD574"/>
<path d="M87.9067 66.7406C87.9067 66.7778 87.9067 66.8335 87.8881 66.8707C87.8324 66.8149 87.7766 66.7406 87.7581 66.6477H87.8881C87.9067 66.6849 87.9067 66.722 87.9067 66.7406ZM83.4284 68.4688C83.2054 68.2272 83.0382 67.9299 82.9453 67.5954C82.8895 67.4096 82.9638 67.2981 83.1682 67.2795H83.5399C84.1345 67.3352 84.1717 67.4282 83.8186 67.9113C83.7071 68.0785 83.5771 68.2458 83.4284 68.4688ZM83.3727 69.2864C83.447 69.3607 83.4841 69.3793 83.4841 69.4165C83.5771 69.6209 83.7629 69.8438 83.5585 70.0297C83.3541 70.2155 83.0939 70.1226 82.8152 69.9739C83.001 69.7324 83.1682 69.5279 83.3727 69.2864Z" fill="#FFD574"/>
<path d="M70.8111 85.2484C71.0527 85.4156 71.3314 85.5085 71.6287 85.4714C72.9852 85.4714 74.3603 85.6015 75.7168 85.6015C76.33 85.6015 76.9618 85.6944 77.575 85.6758C79.3589 85.5829 81.1428 85.5457 82.9081 85.1183C84.1903 84.7838 85.5282 84.6538 86.8661 84.7653C87.8882 84.8582 88.873 85.1741 89.7464 85.6758C90.3968 86.0474 90.9914 86.4748 91.4002 87.1252C91.7161 87.6269 91.8833 88.203 91.8833 88.7976V89.7825C91.9019 91.6407 91.0286 92.9972 89.4677 93.9635C89.096 94.205 88.7058 94.4466 88.3341 94.6882C87.8882 94.9669 87.405 95.1527 86.9033 95.2456C86.5317 95.3386 86.1786 95.4872 85.8255 95.6173C84.2089 96.1748 82.5365 96.5092 80.8641 96.8251C79.8235 97.011 78.7643 97.1596 77.7051 97.3083C77.1848 97.3826 76.6459 97.3826 76.107 97.4383C74.8806 97.5684 73.6542 97.587 72.4277 97.5127C71.5915 97.4569 70.7368 97.4569 69.9006 97.364C68.9157 97.2711 67.9494 97.141 66.9831 97.011C65.7939 96.8437 64.6046 96.6579 63.4339 96.3977C61.6686 96.0261 59.9219 95.543 58.2123 94.9483C56.8558 94.4652 55.5179 93.9449 54.3101 93.1644C53.511 92.6627 52.7306 92.1238 52.1917 91.2876C51.3555 90.0055 51.6156 88.6489 52.5076 87.6083C53.0279 87.0137 53.7154 86.6421 54.4401 86.3262C55.7409 85.7873 57.116 85.4342 58.5282 85.267C59.1229 85.1741 59.7361 85.1183 60.3307 85.1369C60.6652 85.1369 61.0182 85.0997 61.3527 85.044C61.5943 85.044 61.65 85.2484 61.743 85.3971C62.0589 85.9174 62.3376 86.4377 62.5792 86.9951C62.8765 87.6641 63.2667 88.2959 63.6941 88.8719C63.6755 89.1878 63.6383 89.5037 63.564 89.801C63.4525 90.47 63.6569 90.9903 64.2516 91.3434C65.3479 91.9938 66.5743 92.3282 67.8193 92.5698C68.3768 92.6627 68.9529 92.7185 69.5289 92.6999C70.6439 92.6813 71.7774 92.737 72.8923 92.8857C74.0258 92.9972 75.1779 92.8485 76.2557 92.4211C76.4787 92.4211 76.7202 92.4211 76.9432 92.4769C76.8689 92.2725 76.6645 92.1982 76.6273 92.0123C76.5902 91.8265 76.6645 91.6221 76.6831 91.4177C76.6831 91.269 76.6459 91.1204 76.5902 90.9903C76.5158 90.7859 76.5344 90.6187 76.776 90.5629C76.9061 90.5258 77.0361 90.6001 77.2034 90.4886C76.7388 89.9311 75.9584 90.1355 75.4566 89.7453C73.84 88.6675 72.1118 88.5189 70.3279 89.225C69.9563 89.3737 69.6032 89.5409 69.2316 89.6896C68.6741 89.9311 68.414 89.7267 68.5255 89.1507C68.6184 88.4817 68.8228 87.8313 69.1387 87.2367C69.6218 86.8279 70.0121 86.3076 70.2722 85.7315C70.4023 85.5457 70.4952 85.2856 70.8111 85.2484Z" fill="#E1F0FF"/>
<path d="M64.6789 21.7533C64.7719 21.8276 64.9019 21.7904 65.0134 21.8276C65.255 21.9948 65.4408 21.7719 65.6638 21.7533C65.7939 21.7347 65.9054 21.809 66.0169 21.7904C66.1469 21.9205 66.3699 21.9391 66.5186 21.8462C66.6115 21.7904 66.723 21.6604 66.8716 21.7904C67.3548 21.9577 67.8751 21.9763 68.3768 22.0878C69.5103 22.3107 70.5509 22.8125 71.573 23.3328C71.6101 23.6672 71.8889 23.4628 72.0375 23.5557C72.0747 23.723 72.2233 23.7787 72.3534 23.8531C72.1862 24.4105 72.6507 24.0389 72.7808 24.1504C72.8737 24.3734 72.9666 24.5964 73.2639 24.5778C73.171 24.8937 73.171 24.8937 73.4126 25.0052C73.4312 25.0609 73.4498 25.0981 73.4869 25.1538C74.1745 25.99 74.3789 26.9563 74.3789 27.9969C74.3789 28.4429 74.4346 28.8889 74.4718 29.3348C74.5461 29.948 74.4532 30.5798 74.2116 31.1559C74.1373 31.3231 74.1001 31.4346 74.3045 31.5275C75.4938 32.0664 76.0513 33.0884 76.4229 34.2591C76.6645 35.0767 76.7388 35.9315 76.6645 36.7677C76.4601 36.9721 76.2371 36.8235 76.0327 36.7863C75.6796 36.6934 75.308 36.5819 74.862 36.6562C75.4938 36.9164 76.1999 36.7306 76.6273 37.3066C76.6831 37.4553 76.6831 37.6225 76.6273 37.7712C76.4229 37.9941 76.2557 37.8083 76.0699 37.734C75.7911 37.6225 75.531 37.4181 75.085 37.3809C75.3637 37.6411 75.6425 37.6968 75.8469 37.8269C76.0513 37.957 76.3672 38.0313 76.4601 38.3472C76.4043 38.4773 76.2928 38.5888 76.1442 38.6445C75.7911 38.7189 75.6796 38.3472 75.3637 38.2543C75.531 38.6445 76.0141 38.756 76.0513 39.202C75.9212 39.3692 75.8654 39.5736 75.7168 39.7409C75.4009 39.6851 75.4195 39.3507 75.2337 39.1834C75.085 39.0348 75.0107 38.8304 74.7691 38.6817C74.8806 39.0162 75.085 39.2206 75.2151 39.4807C75.308 39.6665 75.5124 39.8338 75.4009 40.0939C74.862 40.67 74.2116 41.116 73.4869 41.3947C73.1153 41.5062 72.8737 41.8778 72.9295 42.2681C72.948 42.5096 73.0781 42.8441 72.6879 42.9556C72.4835 42.6583 72.5764 42.3238 72.5764 42.0079C72.5764 41.7663 72.5021 41.7292 72.3162 41.8407C70.904 42.6955 69.3431 42.9184 67.745 43.1043C67.1504 43.16 66.5372 43.1043 65.9797 43.3644C65.8682 43.4202 65.7381 43.383 65.6824 43.2715C65.6081 43.16 65.4408 43.1228 65.3293 43.1972C65.1435 43.1972 64.9577 43.1786 64.7719 43.1228C64.586 42.9928 64.3816 43.0671 64.1772 43.0485C63.1738 42.5654 62.1889 42.0822 61.3527 41.3575C61.1855 41.246 61.0554 41.116 60.9439 40.9673C60.7767 39.871 60.1449 39.0348 59.383 38.2915C59.0857 38.0313 58.7884 37.7526 58.5468 37.4553C58.5096 37.2323 58.3796 37.0465 58.1752 36.935C57.5248 36.5633 56.9673 36.043 56.3541 35.597C55.3507 34.8909 54.4216 34.0361 53.4739 33.2557C53.3252 33.1442 53.2509 32.9769 53.288 32.8097C53.3066 32.5124 53.3809 32.2337 53.5296 31.9735C53.9384 31.3417 54.403 30.7285 54.9047 30.171C55.7595 29.6879 56.7257 29.4092 57.7106 29.3348C58.361 29.3162 59.0299 29.372 59.6617 29.4835C61.0554 29.6879 62.4119 30.0038 63.8242 29.9295C64.2144 29.9295 64.6232 29.8551 64.9948 29.7251C65.3293 29.595 65.4222 29.372 65.3107 29.0189C64.9948 28.0898 64.1401 27.6996 63.2295 28.0898C62.8021 28.2571 62.4491 28.5358 62.1518 28.8703C61.6686 29.4277 61.0926 29.595 60.3864 29.4277C59.7175 29.2791 59.0299 29.2047 58.3238 29.1676C57.4133 29.1304 56.5213 29.2605 55.6666 29.5764C55.5179 29.6321 55.3321 29.7622 55.1834 29.595C55.0348 29.4277 55.1463 29.2233 55.2206 29.0561C55.7966 27.7925 56.5213 26.6032 57.5434 25.6555C57.7106 25.5069 57.9893 25.3582 57.7292 25.0609C57.692 25.0237 57.6734 24.968 57.6549 24.9308C57.8964 24.8379 58.1194 24.7078 58.3052 24.5406C59.9591 23.2398 61.743 22.1807 63.8799 21.9205C63.9542 21.9019 64.01 21.8833 64.0843 21.8648C64.2516 21.8462 64.456 21.7347 64.6789 21.7533Z" fill="#38A1FC"/>
<path d="M58.5655 37.4175C58.9371 37.752 59.3088 38.0865 59.6618 38.421C60.0521 38.8112 60.3865 39.2572 60.6281 39.7403C60.8511 40.112 60.9812 40.5393 60.9626 40.9667C61.1112 41.357 60.9254 41.6729 60.7582 41.9888C60.5724 42.3418 60.6095 42.5462 60.9812 42.732C61.613 43.0665 62.1333 43.5311 62.7836 43.847C63.3411 44.1071 63.4526 44.07 63.8057 43.5497C63.9357 43.3638 63.9543 43.0851 64.2331 42.9922C64.4003 42.7506 64.5675 42.825 64.7162 42.9922C64.8091 43.4939 64.5118 43.8656 64.2145 44.1815C63.8428 44.5903 63.7871 44.9805 64.0472 45.4451C64.1959 45.6866 64.1401 46.1326 64.456 46.1698C64.7719 46.2069 64.902 45.7795 65.0878 45.5565C65.5338 45.1106 65.6453 44.4044 65.3666 43.8284C65.2737 43.6054 65.1436 43.3453 65.2737 43.0851C65.4409 42.8807 65.5524 42.8621 65.6639 43.0294C65.7196 43.1037 65.6825 43.2338 65.7754 43.2895C65.9984 43.4196 66.0169 43.6612 66.0727 43.8656C66.3143 44.5345 66.3143 44.5345 67.039 44.5345C68.3955 44.5531 69.6033 44.0514 70.8112 43.5311C70.9412 43.4753 71.0527 43.401 71.1828 43.3453C71.796 43.1037 72.2606 42.7692 72.1305 42.0073C72.1305 41.8773 72.1677 41.7658 72.2606 41.6729C72.3721 41.5985 72.465 41.5056 72.6508 41.5428C72.6694 41.9702 72.688 42.4161 72.7066 42.8435C72.8366 43.1409 72.6136 43.2895 72.4464 43.4382C72.1677 43.6612 71.8703 43.8284 71.5545 43.9771C69.9935 44.7203 68.4141 45.3707 66.6302 45.2221C66.2957 45.1849 65.9612 45.3707 65.8311 45.6866C65.7011 45.9282 65.5338 46.1698 65.348 46.3556C64.8463 46.8016 64.7719 47.3776 64.7162 47.9908C64.5304 49.7933 64.326 51.5958 64.1401 53.3983C64.0286 54.1601 63.9915 54.9406 63.9915 55.721C64.0286 56.6316 63.7313 57.3563 62.9695 57.9137C62.4863 58.2668 62.0775 58.7314 61.613 59.103C60.8883 59.6976 60.5724 59.6233 60.1821 58.7499C59.4203 57.0404 59.4388 55.3494 60.2379 53.6398C61.1298 51.6701 61.9103 49.6446 62.8765 47.7121C62.9323 47.5634 63.0066 47.4334 63.0995 47.3033C63.7313 46.56 63.5827 45.8167 63.1924 45.0362C63.1181 44.869 62.988 44.7203 62.8208 44.6274C62.0775 44.3115 61.4457 43.8284 60.7768 43.401C60.2565 43.0665 60.2565 43.0665 59.8848 43.5868C59.2902 44.4416 58.5655 45.2035 57.7479 45.8353C57.6364 45.9282 57.5063 46.0211 57.3576 46.0954C57.2276 46.1883 57.0417 46.1698 56.9302 46.0397C56.8187 45.9096 56.8187 45.7052 56.9488 45.5937L56.9674 45.5751C57.0975 45.4451 57.2461 45.315 57.3948 45.2035C58.5097 44.2744 59.4388 43.1223 60.0892 41.8215C60.4609 41.0782 60.4609 40.3907 59.9591 39.6846C59.3645 38.8484 58.6212 38.1422 57.7664 37.5662C56.5028 36.7114 55.2021 35.9309 54.05 34.9275C53.251 34.2585 52.5448 33.4967 51.9502 32.6419C51.2441 31.6199 50.4636 30.635 49.869 29.5387C49.7017 29.2228 49.5159 29.2228 49.2558 29.39C48.4382 29.9475 47.6949 30.5793 46.8958 31.1553C45.2978 32.2888 43.5139 33.0321 41.6371 33.571C40.8752 33.794 40.8566 33.794 41.2654 34.4629C42.4175 36.3026 43.6068 38.1422 45.0934 39.7589C45.7995 40.5022 46.6357 41.0968 47.5648 41.5428C48.3267 41.933 49.1257 42.2861 49.7947 42.8621C50.8538 43.7912 51.5786 44.869 51.6715 46.3556C51.7458 47.805 51.56 49.2172 51.3556 50.6295C51.3184 50.9268 51.2627 51.2055 51.1697 51.4843C50.5751 53.0452 51.1697 54.4017 51.9688 55.6839C52.805 56.966 53.8456 58.081 55.072 59.0101C57.7293 61.0913 60.6653 62.7265 63.5455 64.4361C63.8242 64.6033 64.1401 64.6963 64.4746 64.7148C65.1993 64.752 65.924 64.8635 66.6487 64.7892C67.1319 64.7334 67.615 64.7706 68.0982 64.7706C69.882 64.752 71.6474 64.4733 73.4127 64.2503C73.6171 64.2503 73.7843 64.1016 73.7843 63.8972C73.7843 63.8601 73.7843 63.8229 73.7657 63.7857C73.5985 62.5779 73.5428 61.3515 73.4127 60.125C73.3012 58.9543 73.2454 57.7837 73.1525 56.613C73.041 55.2007 72.8738 53.7885 72.7995 52.3762C72.7809 51.986 72.6136 51.6329 72.2977 51.3914C71.9818 51.1126 71.7403 50.7596 71.573 50.3879C71.4801 50.2021 71.3686 49.9791 71.6102 49.8305C71.8518 49.6818 72.0376 49.8676 72.1677 50.072C72.3349 50.3508 72.5393 50.6109 72.7623 50.8525C72.9853 51.1126 73.3383 51.2055 73.6542 51.0755C75.7169 50.295 77.8167 49.7004 79.8607 48.8828C80.7341 48.5297 81.4959 47.9351 82.0162 47.1546C82.4065 46.5972 82.7967 46.0583 83.1498 45.4822C83.4285 45.0548 83.5214 44.5345 83.3728 44.0514C82.7595 41.8401 82.2764 39.5731 81.6632 37.3618C81.5145 36.8043 81.4588 36.7671 80.9199 36.8786C80.1394 37.0459 79.3776 37.2317 78.5042 37.3989C78.9873 37.6963 79.4333 37.9378 79.8793 38.1794C80.2695 38.3652 80.6226 38.6254 80.9199 38.9413C81.0686 39.0899 81.2172 39.2943 81.0128 39.4802C80.8084 39.666 80.6226 39.5545 80.4553 39.4244C79.8235 38.997 79.1732 38.5882 78.5042 38.2351C77.8538 37.8821 77.1291 37.6591 76.4973 37.2689C76.0514 36.953 75.5311 36.953 75.0293 36.8415C74.8807 36.8043 74.732 36.7857 74.5834 36.7486C74.509 36.73 74.4904 36.6557 74.4904 36.5813C74.4904 36.507 74.5462 36.4512 74.6019 36.4327C74.7134 36.4141 74.8435 36.4141 74.955 36.4141C75.3081 36.4327 75.6797 36.507 76.0142 36.6185C76.2 36.6928 76.3858 36.73 76.5717 36.73C76.9247 36.953 77.3335 37.0273 77.7423 36.953C78.9502 36.73 80.1209 36.4512 81.3101 36.1725C81.5145 36.1168 81.5331 36.0239 81.5145 35.838C81.4959 35.2991 81.5145 35.2991 82.0348 35.2062C82.2392 35.1691 82.4436 35.1133 82.6295 35.039C83.0011 34.9089 83.0383 34.9275 83.2241 35.3363C83.3727 35.5036 83.4842 35.708 83.5214 35.9309C84.116 37.9564 84.6921 39.9819 85.1009 42.0445C85.1566 42.2861 85.1752 42.5276 85.1381 42.7692C85.1566 43.2338 85.2124 43.6983 85.3239 44.1443C85.4168 44.6089 85.3425 44.9619 84.9151 45.2035C84.785 45.2778 84.6549 45.3893 84.562 45.5008C84.1718 45.891 84.1532 45.9096 83.763 45.5194C83.3913 46.0583 83.0197 46.5972 82.6852 47.1546C81.9977 48.2324 80.9756 49.05 79.7864 49.496C78.6343 49.9605 77.445 50.3322 76.2558 50.7224C75.3266 51.0197 74.4533 51.41 73.5242 51.7073C73.3198 51.7816 73.264 51.8931 73.2826 52.0975C73.3755 53.231 73.4498 54.3645 73.5428 55.5166C73.6357 56.5944 73.7286 57.6908 73.8029 58.7685C73.9516 60.571 74.0631 62.3921 74.3046 64.1945C74.3232 64.3804 74.3418 64.5848 74.1745 64.6591C73.8587 64.752 73.8958 64.975 73.933 65.198C74.0816 66.1828 74.2117 67.1863 74.379 68.1711C74.6391 69.6949 74.955 71.2372 75.1222 72.7795C75.2895 74.5448 75.1037 76.3102 74.6019 78.0011C74.3604 78.8559 74.0073 79.6921 73.5799 80.4912C72.7623 82.0149 71.8518 83.5015 70.8669 84.9137C70.7926 85.0067 70.7368 85.1181 70.6811 85.2111C70.4024 85.527 70.1794 85.8986 70.0121 86.2888C69.8263 86.6976 69.529 87.0321 69.1388 87.2551C68.9715 87.4223 68.7671 87.5524 68.5441 87.6453C67.2434 88.1842 65.8869 88.6116 64.5304 88.9275C64.1773 89.0018 63.8428 89.0576 63.5641 88.7789C63.1924 88.5744 63.0066 88.2214 62.8394 87.8683C62.4306 86.9578 61.966 86.0844 61.4457 85.2296C61.39 85.1553 61.3528 85.0996 61.2785 85.0438L61.2413 84.9509C61.2227 84.9137 61.1856 84.8766 61.167 84.8394C60.8697 84.3191 60.498 83.836 60.0706 83.4086C58.7141 81.9963 57.339 80.5841 55.964 79.1718C55.9454 79.1532 55.9082 79.1347 55.871 79.1161C55.7596 79.0975 55.6481 79.0418 55.5551 78.9488C54.4216 77.6481 53.4182 76.2916 53.028 74.5634C52.9722 74.2475 52.9536 73.9316 52.9722 73.5972C52.9165 73.3184 52.8607 73.0211 52.805 72.7424C52.7864 72.6495 52.7492 72.5565 52.7121 72.4822C52.0245 72.7238 51.3184 72.891 50.5937 72.9839C48.7541 73.1326 47.0259 72.8724 45.4278 71.8504C44.1085 70.9956 42.8077 70.1223 41.4327 69.3604C39.816 68.4499 38.1064 67.7437 36.2668 67.465C35.1704 67.3164 34.0741 67.242 32.9592 67.2049C32.6247 67.2049 32.3088 67.1677 31.9929 67.0748C31.7327 67.1305 31.4912 66.9633 31.4354 66.7031C31.4168 66.666 31.4168 66.6102 31.4354 66.5731C31.3982 65.5696 31.2496 64.5848 31.3053 63.5999C31.3053 63.4512 31.3611 63.3026 31.4354 63.1725C31.5655 62.8752 31.7885 62.615 32.0672 62.4478C32.5503 62.1133 32.9777 61.6859 33.2936 61.2028C33.9626 60.2923 34.5572 59.3446 35.0775 58.3411C35.7651 57.0404 36.4526 55.7396 37.3446 54.5689C38.0507 53.6212 38.8869 52.785 39.816 52.0603C40.7823 51.317 41.8972 50.9454 43.0865 50.7224C44.5545 50.4251 45.8552 50.8897 47.1002 51.5772C47.8249 52.0046 48.5868 52.3948 49.3487 52.7479C50.1477 53.0824 50.1663 53.0824 50.315 52.2462C50.5379 51.0941 50.7795 49.942 50.891 48.7713C50.9839 47.7493 51.0397 46.7272 50.8538 45.7238C50.7609 45.2407 50.5379 44.7761 50.222 44.3859C49.646 43.5868 48.847 42.955 47.955 42.5462C45.7995 41.6171 44.1642 40.1119 42.8635 38.1794C41.9715 36.8415 40.9867 35.5593 40.262 34.1099C40.2248 33.9612 40.0576 33.8683 39.9089 33.9055C39.6116 33.9612 39.4258 33.8126 39.2957 33.5338C39.2399 33.4223 39.1842 33.3108 39.147 33.1994C38.9426 32.5676 39.0355 32.3817 39.6673 32.1587L39.816 32.103C40.1691 31.8243 40.615 31.7871 41.0053 31.6199C42.2689 31.1181 43.4767 30.4678 44.5731 29.6687C45.6508 28.8883 46.8215 28.2565 47.8435 27.4017C47.9364 27.3274 48.0479 27.2902 48.178 27.2902C48.2709 27.2159 48.3638 27.123 48.4567 27.0672C48.8098 26.8256 49.1257 26.8628 49.2372 27.253C49.8876 29.3342 51.337 30.9323 52.5077 32.6976C52.6749 32.7348 52.8236 32.8463 52.9165 32.9949C54.0314 34.3329 55.4065 35.3549 56.8745 36.2654C56.9117 36.284 56.9674 36.3212 57.0046 36.3398C57.6178 36.7114 58.231 36.8972 58.5655 37.4175Z" fill="black"/>
<path d="M48.3452 27.2906C47.8249 27.7366 47.2674 28.1454 46.6914 28.517C45.9667 28.9816 45.242 29.4647 44.5359 29.9664C43.3466 30.7841 42.0644 31.4344 40.7265 31.9176C40.4849 32.0105 40.2434 32.0848 39.9832 32.1034C40.0575 31.1 40.2805 30.1337 40.4292 29.1302C40.6336 27.6622 40.838 26.1942 41.0238 24.7262C41.1353 23.983 41.2096 23.2211 41.2282 22.4592C41.2282 21.4929 40.9495 21.177 40.039 20.9169C38.2365 20.4152 36.5083 19.7462 35.0218 18.5198C34.3156 17.9251 33.9068 17.219 33.944 16.2713C33.944 15.7139 33.9811 15.175 34.0369 14.6175C34.167 13.9114 34.4271 13.7813 35.0775 14.1158C35.189 14.7476 35.1518 15.3794 35.2447 16.0112C35.3377 16.7173 35.6164 17.2934 36.2668 17.6278C35.5792 17.2376 35.3562 16.5872 35.2819 15.8625C35.2262 15.5095 35.189 15.1564 35.1704 14.7848C35.1704 14.5989 35.1518 14.3945 35.3005 14.2644L36.0995 14.3759C36.3225 14.5618 36.2482 14.8219 36.2482 15.0449C36.2668 15.751 36.6198 16.42 37.2145 16.8102C36.434 16.0855 36.1181 15.1192 36.434 14.3574C37.0472 14.2644 37.3817 14.4131 37.5675 14.9706C37.7348 15.4723 38.0321 15.6581 38.5338 15.7324C40.3734 15.9369 42.1573 16.5315 43.7554 17.4606C44.1642 17.6836 44.4615 18.0924 44.5359 18.5569C44.6102 18.9286 44.6474 19.3188 44.6288 19.6905C44.6288 20.0621 44.6288 20.4152 44.6474 20.7868C44.6659 21.3629 44.8146 21.9203 45.1119 22.4221C46.0596 23.9458 46.9144 25.5253 48.0107 26.9747C48.1222 27.0862 48.2151 27.1977 48.3452 27.2906Z" fill="#38A1FC"/>
<path d="M11.6452 72.7238C9.63835 70.9399 8.30043 68.7844 8.04027 66.0713C7.83587 63.8229 8.39334 61.7974 10.0843 60.1808C11.2364 59.0844 12.5743 58.7685 14.0981 59.0473C14.9157 59.2145 15.6962 59.4932 16.4209 59.902C17.1456 60.3108 17.8517 60.7382 18.5207 61.2214C18.595 61.4815 18.4277 61.6488 18.2977 61.816C17.6473 62.7265 16.8668 63.5442 16.1793 64.4175C14.3025 66.7589 12.8717 69.4161 11.9425 72.2592C11.8868 72.4451 11.9054 72.6866 11.6452 72.7238Z" fill="black"/>
<path d="M41.544 85.2667C41.3396 85.3411 41.1166 85.3782 40.8936 85.3597C39.4628 85.4154 38.0319 85.3782 36.6011 85.2482C35.4304 85.1367 34.2597 85.0623 33.1262 84.8393C32.8846 84.3748 32.9776 83.8917 33.0147 83.4271C33.2563 80.0637 34.0553 76.7747 35.3747 73.6714C35.4862 73.3927 35.5791 73.0768 35.8764 72.9095L39.9087 74.2661C40.0202 74.4147 40.0574 74.6191 40.0202 74.8049C39.8716 77.0348 39.853 79.2647 40.3361 81.4574C40.5777 82.5537 40.9307 83.6315 41.4139 84.6535C41.4882 84.8393 41.6369 85.0252 41.544 85.2667Z" fill="#38A1FC"/>
<path d="M31.1009 70.6427C32.4388 71.4046 33.8325 72.0735 35.2633 72.6496C35.3005 72.6682 35.3191 72.6867 35.3377 72.7239C35.4491 72.9283 35.3191 73.0956 35.2447 73.2628C34.0926 76.013 33.2379 78.856 32.9034 81.8292C32.7919 82.5911 32.7361 83.3715 32.7547 84.152C32.7733 84.375 32.8105 84.598 32.6618 84.8024C30.6549 84.4679 28.7038 83.8918 26.827 83.0928C26.7527 83.0556 26.6597 83.0556 26.604 82.9813C26.5297 82.8141 26.5111 82.6097 26.5668 82.4238C26.9571 79.8595 27.403 77.3137 28.4622 74.9166C29.0569 73.5601 29.7258 72.2222 30.6363 71.0515C30.7478 70.8843 30.9151 70.7356 31.1009 70.6427Z" fill="#38A1FC"/>
<path d="M26.1392 82.7953C25.2287 82.4422 24.3368 82.0148 23.482 81.5503C22.5157 81.0485 21.5866 80.5097 20.6761 79.915C20.6389 79.7478 20.6575 79.562 20.7132 79.4133C21.4008 77.0348 22.0326 74.6191 23.2404 72.4264C24.0766 70.8655 25.0801 69.3789 26.2136 68.0038C26.2879 67.8737 26.4366 67.7808 26.5852 67.7437C27.886 68.7099 29.2611 69.5647 30.6176 70.4195C30.6176 70.5867 30.5432 70.754 30.4317 70.884C28.5735 73.4112 27.44 76.2729 26.8082 79.339C26.6038 80.361 26.4551 81.383 26.2879 82.405C26.2879 82.5351 26.3065 82.7024 26.1392 82.7953Z" fill="#38A1FC"/>
<path d="M22.2371 64.1951L24.7457 66.2578C25.2288 66.648 25.712 67.0382 26.1765 67.4284C26.2323 67.6514 26.0465 67.7815 25.935 67.9116C24.021 70.1972 22.5344 72.8173 21.5681 75.6232C21.1779 76.7567 20.862 77.9088 20.5647 79.0609C20.509 79.2653 20.5461 79.5255 20.2488 79.5998C19.5241 79.2096 18.8366 78.745 18.1862 78.2433C17.2942 77.6115 16.4394 76.9611 15.6218 76.255C15.7705 75.4374 16.1235 74.6755 16.4394 73.9136C17.2013 72.0926 17.9074 70.2529 18.8366 68.5062C19.617 67.0382 20.509 65.6445 21.7725 64.511C21.9212 64.3995 22.0327 64.2323 22.2371 64.1951ZM85.2495 42.8255C85.1008 42.3424 84.9707 41.8407 84.8964 41.3204C84.469 39.3135 83.8372 37.3624 83.3169 35.3926C83.6328 35.4298 83.8001 35.1511 84.023 35.0024C84.5805 34.6865 84.8964 34.0733 84.8592 33.4415C84.8407 33.0513 84.8778 32.6425 84.8592 32.2523C84.8407 31.9549 84.8778 31.6576 84.9522 31.3789C85.1008 30.9515 85.1566 30.5055 85.1008 30.0595C85.0265 29.7065 85.2309 29.3906 85.5282 29.1676C86.1043 28.7402 86.4759 28.0898 86.5688 27.3837C86.5874 27.235 86.5874 27.0678 86.5688 26.9191C86.5131 26.6776 86.5316 26.436 86.606 26.213C86.829 25.5998 87.4608 25.4326 87.9253 25.8971C88.204 26.1759 88.3899 26.5661 88.4085 26.9563C88.4456 27.3465 88.427 27.7553 88.3527 28.1456C88.2784 28.5358 88.3713 28.6287 88.7615 28.5358C89.1517 28.4429 89.5606 28.4429 89.9322 28.5358C90.0809 28.573 90.2481 28.5915 90.3968 28.5915C91.01 28.6287 91.2887 28.4057 91.3816 27.7925C91.4002 27.5138 91.4374 27.235 91.4931 26.9749C91.6975 26.3988 92.0506 26.3059 92.5337 26.6962C92.6824 27.105 92.5151 27.4952 92.4594 27.904C92.3479 28.7588 92.1621 29.595 91.5489 30.2825C92.0134 29.8551 92.3107 29.2791 92.3851 28.6473C92.5151 27.9783 92.5709 27.3094 92.7567 26.6776C92.8868 26.6032 93.0354 26.5289 93.1655 26.4546C93.7044 26.1387 94.2247 26.6032 94.1318 27.1236C94.0575 27.7739 94.0575 28.4429 94.1318 29.0933C94.1504 29.4092 94.1318 29.7065 94.1318 30.0224C94.1132 30.394 93.946 30.7285 93.6486 30.9515C93.1283 31.3789 92.5337 31.7134 91.9019 31.9549C91.0843 32.308 90.2667 32.5867 89.4119 32.8283C88.7058 32.9955 88.1483 33.5344 87.9625 34.2406C87.7023 35.0953 87.5351 35.9501 87.3493 36.8049C87.0334 38.2543 86.6431 39.6852 86.1972 41.0974C86.0113 41.7478 85.6954 42.3238 85.2495 42.8255ZM40.4105 74.3968C41.5998 74.7127 42.7891 74.9728 44.0155 75.1401C44.7774 75.233 45.5578 75.2701 46.3383 75.3445C46.4683 75.5303 46.5427 75.7533 46.5427 75.9763C46.8214 78.6335 47.639 81.0678 49.2371 83.2233C49.3486 83.3348 49.4043 83.4835 49.4043 83.6507C48.0293 84.2082 46.617 84.617 45.149 84.8772C44.1456 85.0816 43.1421 85.2116 42.1387 85.2674C41.8414 85.1187 41.7485 84.84 41.6184 84.5799C40.6707 82.5358 40.169 80.3059 40.1504 78.0389C40.1318 76.9983 40.0575 75.9205 40.2433 74.8799C40.2433 74.6941 40.299 74.5269 40.4105 74.3968Z" fill="#38A1FC"/>
<path d="M11.6453 72.7243C11.6824 72.6872 11.701 72.6314 11.7196 72.5943C12.2213 70.6803 13.1133 68.9336 14.0981 67.224C14.8786 65.8861 15.7891 64.6225 16.8111 63.4518C17.3128 62.8572 17.8146 62.2625 18.2791 61.6307C18.3906 61.5192 18.4649 61.3892 18.5207 61.2405C19.6914 62.0395 20.7691 62.9687 21.8655 63.8606C21.5868 64.3623 21.1222 64.6596 20.7691 65.087C19.2454 66.9453 18.149 69.0265 17.2571 71.2192C16.6625 72.65 16.0307 74.0808 15.5104 75.5488C15.4546 75.6975 15.4175 75.8461 15.2502 75.9205C13.9866 74.9356 12.7974 73.8578 11.6453 72.7243ZM53.1022 73.6163C53.2509 73.8393 53.1765 74.118 53.2323 74.3596C53.5854 75.9391 54.3844 77.2584 55.425 78.4662L55.9825 79.1352C54.3844 81.1978 52.2474 82.5172 49.8689 83.4834C49.3114 83.1118 49.0513 82.4986 48.7354 81.9597C47.639 80.0829 46.9887 77.9831 46.8028 75.8276C46.7843 75.6603 46.7099 75.4931 46.8586 75.3258H46.9143C49.0327 75.4931 50.9281 74.6569 52.8606 73.9508C53.0093 73.9136 53.1022 73.7649 53.1022 73.6163ZM31.5654 63.1545C31.5097 64.2508 31.6583 65.3472 31.6955 66.4435C31.6955 66.7594 31.7884 67.001 32.1415 67.0753C30.9708 67.4841 29.8187 67.2797 28.6666 67.0567C26.9942 66.7408 25.8049 65.6817 24.6528 64.5296C24.7643 64.3437 24.9873 64.3437 25.1545 64.288C25.3032 64.2508 25.4519 64.1951 25.5819 64.1022C25.712 64.0093 25.7678 63.842 25.6934 63.6934C25.6191 63.5261 25.4704 63.5633 25.3218 63.6005C25.0988 63.6376 24.8944 63.7305 24.6714 63.7863C24.4856 63.842 24.3183 63.9349 24.1325 63.8049L24.0396 63.5819C24.5413 62.9872 25.266 62.9315 25.9536 62.8386C26.604 62.7643 26.7526 62.8386 27.979 63.4518C27.3101 62.7271 26.4739 62.597 25.5448 62.7085C24.9501 62.7828 24.4113 63.0244 23.8724 63.2288C23.7795 63.0616 23.7051 62.8757 23.668 62.6713C23.6308 62.5227 23.5007 62.4112 23.3335 62.4112C23.3707 62.1325 23.5936 62.2254 23.7423 62.2068C23.9653 62.1882 24.1883 62.2068 24.4113 62.1696C24.5785 62.1325 24.7272 62.0767 24.7272 61.8723C24.7272 61.6679 24.5413 61.6679 24.3741 61.6493C24.1325 61.6122 23.891 61.7794 23.668 61.5936C24.0768 60.906 24.7272 60.6645 25.4704 60.7016C26.2323 60.7574 26.957 61.0733 27.5145 61.6307C27.8304 61.9281 28.1463 62.2068 28.4622 62.5041C29.3727 63.3403 30.3762 63.619 31.5654 63.1545ZM57.0231 36.3589C55.5365 35.5041 54.18 34.4078 53.0465 33.107C52.9164 32.9583 52.8049 32.8097 52.6934 32.6796C52.7306 32.6424 52.7863 32.6053 52.8049 32.5681C53.0093 31.7133 53.5854 31.0815 54.0685 30.394C54.5516 29.7064 54.5702 29.3348 54.1242 28.6473C53.9198 28.3128 53.6783 27.9969 53.4553 27.6624C53.0279 27.0492 52.9721 26.213 53.8641 25.6555C54.1614 25.4697 54.4773 25.3396 54.8118 25.2839C55.7409 25.1166 56.67 24.9308 57.6177 24.9122L57.6734 24.968C57.6363 25.3025 57.3947 25.5069 57.1717 25.7299C56.094 26.7705 55.4064 28.0526 54.8675 29.4277C54.7746 29.6879 54.7746 29.9666 54.8489 30.2268C54.5331 30.6727 54.2172 31.1187 53.8827 31.5461C53.5854 31.8992 53.3995 32.3451 53.3438 32.7911C53.3066 32.9212 53.3624 33.0698 53.4739 33.1256C54.3472 33.8317 55.2206 34.5564 56.1125 35.2811C56.2798 35.4298 56.4842 35.5413 56.67 35.6528C56.7629 35.7085 56.8744 35.7271 56.9302 35.8014C57.2832 36.3031 57.8779 36.489 58.3424 36.8606C58.5096 36.9721 58.6211 37.1765 58.584 37.3809L57.116 36.3961C57.0788 36.3775 57.0974 36.3031 57.0231 36.3589Z" fill="#38A1FC"/>
<path d="M95.8227 47.657C95.897 52.8786 94.429 57.6542 91.716 62.0582C91.6417 62.1697 91.5673 62.2812 91.4744 62.3927C91.4187 62.467 91.3258 62.4856 91.2329 62.4299C91.1585 62.3927 91.1214 62.2998 91.14 62.2069C91.1957 62.0025 91.2886 61.8167 91.4187 61.6494C92.4965 59.8655 93.3698 57.9887 94.0574 56.0376C95.0051 53.1202 95.451 50.0727 95.3581 47.0066C95.321 45.3156 95.1723 43.6247 94.9121 41.9523C94.8192 41.339 94.652 40.7258 94.429 40.1498C94.2989 39.7967 94.1874 39.4251 94.0574 39.072C94.0016 38.9419 93.9645 38.7933 94.1317 38.7189C94.2989 38.6446 94.3918 38.7747 94.429 38.9233C94.7449 39.8525 95.1723 40.7444 95.321 41.7293C95.6369 43.6804 95.8041 45.6687 95.8227 47.657ZM27.4772 39.3136C27.6816 35.1326 28.6479 31.0259 30.3389 27.2165C30.9707 25.7114 31.8069 24.3177 32.8289 23.0541C32.9032 22.9612 32.9776 22.8683 33.0705 22.7754C33.1262 22.7011 33.2563 22.6825 33.3306 22.7382C33.3306 22.7382 33.3492 22.7382 33.3492 22.7568C33.4421 22.8311 33.4607 22.9426 33.3864 23.0355C33.3492 23.1099 33.2935 23.1842 33.2377 23.2585C31.6768 25.1539 30.6734 27.3466 29.8558 29.6322C28.9638 32.1222 28.3692 34.7052 28.0719 37.3439C27.8675 39.2207 27.756 41.0975 28.0347 42.9743L28.1462 43.5875C28.1648 43.6804 28.109 43.7547 28.0347 43.7919C27.9418 43.8291 27.8303 43.7919 27.7931 43.699V43.6804C27.7374 43.5317 27.7002 43.3831 27.6631 43.2344C27.4587 41.9337 27.4029 40.6143 27.4772 39.3136ZM64.6974 7.29637C68.8599 7.44503 72.8922 8.18832 76.683 10.0094C76.8502 10.0837 77.0175 10.1766 77.1847 10.2695C77.2776 10.3253 77.3334 10.4368 77.2776 10.5297C77.2219 10.6226 77.1104 10.6598 77.0175 10.6226C76.9245 10.604 76.8131 10.5668 76.7201 10.5111C73.7098 9.02452 70.4951 8.28123 67.1875 7.89101C64.2886 7.55653 61.427 7.87242 58.5839 8.50422C57.9521 8.67146 57.3203 8.89445 56.7257 9.1546C56.6328 9.19176 56.5398 9.24751 56.4469 9.26609C56.3726 9.28467 56.2983 9.24751 56.2611 9.19176C56.2054 9.11743 56.2239 9.02452 56.2797 8.95019C56.4283 8.82012 56.577 8.72721 56.7628 8.67146C57.822 8.2069 58.9369 7.89101 60.089 7.72377C61.6314 7.50078 63.1551 7.27779 64.6974 7.29637Z" fill="#010101"/>
<path d="M15.25 75.9206C16.1048 73.5049 17.0896 71.1263 18.2046 68.8221C19.0222 67.0754 20.1371 65.4959 21.4936 64.158C21.5865 64.0279 21.7166 63.935 21.8653 63.8793C21.9954 63.9722 22.1254 64.0837 22.2183 64.2138C20.3787 65.9605 19.0779 68.0603 18.0931 70.3645C17.294 72.2227 16.4578 74.0623 15.7889 75.9577C15.7517 76.0692 15.696 76.1807 15.6031 76.2736L15.25 75.9206ZM20.2672 79.5998C20.5274 78.6893 20.8247 77.7788 21.0477 76.8683C21.6237 74.6384 22.6271 72.5943 23.8164 70.6432C24.504 69.5097 25.303 68.4319 26.1764 67.4285C26.3436 67.5028 26.4923 67.6143 26.6037 67.7444C24.8384 69.7884 23.4262 72.0926 22.3856 74.6012C21.7352 76.1436 21.345 77.7974 20.8618 79.3769C20.8433 79.5627 20.7689 79.7485 20.676 79.9157C20.5274 79.8228 20.3787 79.7299 20.2672 79.5998ZM26.1392 82.796C26.4923 79.7299 27.1055 76.7382 28.462 73.9323C29.038 72.6687 29.7627 71.498 30.6361 70.4202C30.8033 70.476 30.952 70.5503 31.0821 70.6618C31.0449 70.7361 31.0077 70.8104 30.952 70.8848C29.0566 73.3191 27.9417 76.0878 27.2913 79.0795C27.0311 80.2688 26.8267 81.4767 26.6595 82.7031C26.6409 82.796 26.6223 82.9075 26.5852 83.0004C26.4365 82.9632 26.2693 82.9075 26.1392 82.796Z" fill="#000101"/>
<path d="M32.6618 84.8212C32.5503 84.6539 32.5875 84.4495 32.5875 84.2637C32.6618 81.4206 33.1635 78.5961 34.0926 75.9017C34.4457 74.8239 34.8545 73.7647 35.3191 72.7241C35.5049 72.7427 35.6907 72.7985 35.8394 72.9099C34.8174 75.1398 34.0555 77.4812 33.5909 79.8969C33.275 81.5321 33.1078 83.1859 33.0892 84.8397L32.6618 84.8212ZM40.4106 74.3965C40.2991 75.5672 40.262 76.7379 40.2805 77.9086C40.3177 79.8969 40.7079 81.848 41.3955 83.7248C41.6185 84.2451 41.86 84.7654 42.1388 85.2671L41.7857 85.3229C41.6928 85.3601 41.5999 85.3415 41.5255 85.2857C40.7637 83.8363 40.2434 82.2568 39.9832 80.6402C39.6859 78.689 39.6302 76.7193 39.8346 74.7496C39.8531 74.6009 39.8531 74.4337 39.8717 74.285C40.0575 74.2665 40.2434 74.3036 40.4106 74.3965Z" fill="#010101"/>
<path d="M99.9852 42.695C100.004 43.2153 99.9666 43.7542 99.9109 44.2745C99.8923 44.3674 99.8737 44.4789 99.8551 44.5718C99.8365 44.6461 99.7622 44.6833 99.6879 44.6833C99.595 44.7019 99.5206 44.6461 99.4835 44.5532C99.4649 44.386 99.4463 44.2187 99.4649 44.0329C99.6693 40.9111 99.2419 37.7707 98.1827 34.8161C98.0341 34.3887 97.8482 33.9799 97.681 33.5711C97.6438 33.4968 97.6067 33.4225 97.5695 33.3296C97.5323 33.2366 97.5695 33.1437 97.6438 33.1066C97.7182 33.0694 97.8111 33.0694 97.8854 33.1437C98.0155 33.2738 98.1084 33.441 98.1641 33.6269C98.7774 35.0391 99.2419 36.5071 99.5206 38.0123C99.8551 39.5732 100.004 41.1341 99.9852 42.695Z" fill="#030303"/>
<path d="M46.8399 75.3446C46.9514 76.0693 47.0629 76.8126 47.1929 77.5373C47.5832 79.5628 48.4194 81.4767 49.6458 83.1306C49.7387 83.2235 49.813 83.3536 49.8502 83.4836L49.4042 83.6509C48.1778 82.1457 47.3044 80.399 46.8399 78.5222C46.5797 77.4816 46.3939 76.4224 46.3196 75.3632L46.8399 75.3446Z" fill="#010102"/>
<path d="M62.5048 4.2857C62.4863 4.37861 62.3934 4.45294 62.2819 4.45294C62.1146 4.47152 61.9288 4.49011 61.7616 4.49011C59.7918 4.58302 57.8407 4.9175 55.9639 5.47497C55.1091 5.71653 54.3472 6.14393 53.5482 6.51557C53.3996 6.5899 53.1951 6.79431 53.0465 6.57132C52.8978 6.29258 53.1952 6.23684 53.3624 6.16251C54.9976 5.25198 56.7444 4.73168 58.584 4.3972C59.6989 4.21137 60.8139 4.09988 61.9288 4.00697C62.0775 3.98839 62.2447 4.00697 62.3934 4.06272C62.4863 4.09988 62.5234 4.19279 62.5048 4.2857ZM71.8889 12.945C74.1559 13.0194 76.2929 13.5211 78.2626 14.6546C78.4484 14.7661 78.6342 14.8962 78.8201 15.0262C78.913 15.082 78.9501 15.1935 78.8944 15.2864C78.8944 15.2864 78.8944 15.305 78.8758 15.305C78.82 15.3979 78.69 15.435 78.5971 15.3793C78.467 15.3236 78.3555 15.2492 78.2254 15.1935C76.5344 14.19 74.6205 13.5954 72.6507 13.4467C72.3163 13.4096 72.0004 13.4096 71.6659 13.3724C71.5172 13.3538 71.3314 13.3724 71.3314 13.1494C71.35 12.9636 71.4986 12.9636 71.6473 12.9636C71.7402 12.9264 71.8145 12.945 71.8889 12.945Z" fill="#030303"/>
<path d="M32.7175 27.9038C32.7175 27.6251 32.7733 27.365 32.8662 27.1048C33.4237 25.3395 34.4457 23.8529 35.7093 22.5336C35.765 22.4778 35.8208 22.4407 35.8765 22.4035C35.9508 22.3478 36.0437 22.3478 36.1181 22.4035C36.211 22.4593 36.2296 22.5707 36.1924 22.6637C36.1924 22.6637 36.1924 22.6822 36.1738 22.6822C36.0809 22.8123 35.988 22.9238 35.8765 23.0353C34.8359 24.1688 33.944 25.3767 33.4237 26.8447C33.2936 27.1606 33.2007 27.495 33.1449 27.8295C33.1263 27.9782 33.1078 28.1268 32.9219 28.1268C32.8104 28.1268 32.7361 28.0525 32.7175 27.9596V27.9038Z" fill="#050505"/>
<path d="M92.032 48.5302C92.032 49.1806 91.9763 49.8124 91.8834 50.4442C91.8834 50.4814 91.8834 50.5185 91.8648 50.5557C91.809 50.7044 91.8276 50.9459 91.586 50.9088C91.3631 50.853 91.4002 50.6486 91.4188 50.4814C91.4746 50.054 91.5117 49.6266 91.5675 49.1992C91.7347 47.7126 91.3631 46.2818 91.0472 44.851C91.0286 44.7209 90.9914 44.5908 90.9728 44.4421C90.9543 44.3307 91.0286 44.2377 91.1215 44.2192C91.233 44.2006 91.3259 44.2749 91.3445 44.3864C91.4188 44.628 91.456 44.851 91.5117 45.0925C91.7719 46.226 92.0878 47.3596 92.032 48.5302Z" fill="#040404"/>
<path d="M30.7477 40.2423C30.7663 38.6814 31.1007 37.1576 31.7139 35.7268C31.7883 35.5596 31.844 35.2994 32.0856 35.3923C32.3272 35.4852 32.1971 35.7454 32.1228 35.9312C31.6768 37.009 31.3795 38.1425 31.2308 39.3132C31.1751 39.852 31.1565 40.4095 31.1751 40.967C31.1751 41.1342 31.2494 41.3572 30.9892 41.3572C30.7291 41.3572 30.7663 41.1342 30.7663 40.967C30.7477 40.7254 30.7477 40.4838 30.7477 40.2423ZM25.0058 40.521C25.1358 40.521 25.2102 40.5768 25.2287 40.6697C25.2473 40.7997 25.2659 40.9484 25.2659 41.0785C25.2659 42.658 25.5632 44.2375 26.1207 45.724C26.1393 45.7612 26.1579 45.8169 26.1764 45.8727C26.195 45.9842 26.1764 46.0771 26.0649 46.1328C25.972 46.17 25.8791 46.1328 25.842 46.0585C25.7676 45.947 25.7119 45.8169 25.6561 45.6869C25.0987 44.1817 24.8199 42.6022 24.8385 40.9856C24.8385 40.8741 24.8571 40.7812 24.8757 40.6882C24.8757 40.5953 24.9314 40.5396 25.0058 40.521Z" fill="#050505"/>
<path d="M23.8723 63.229C23.8909 63.1547 23.9466 63.0803 24.021 63.0432C24.82 62.6901 25.6562 62.4485 26.5296 62.56C27.0499 62.6158 27.533 62.8388 27.9418 63.1732C28.0533 63.2662 28.1462 63.3591 28.2206 63.4891C28.2949 63.5635 28.2949 63.6936 28.202 63.7679C28.1091 63.8422 27.9976 63.8422 27.9232 63.7493L27.9047 63.7307C26.8083 62.6158 25.6005 62.8945 24.3555 63.4148C24.244 63.4706 24.1325 63.5263 24.0396 63.6006C23.9838 63.452 23.9281 63.3405 23.8723 63.229Z" fill="#020305"/>
<path d="M72.0189 23.537C71.9446 23.5928 71.8888 23.63 71.8145 23.6857C71.6844 23.7415 71.5358 23.7786 71.4429 23.63C71.3499 23.4813 71.5358 23.4256 71.5544 23.3141C72.4091 22.7752 73.2639 22.2177 74.1373 21.6788C74.3789 21.5302 74.6576 21.4001 74.8992 21.2514C74.9921 21.1771 75.1221 21.1957 75.1965 21.2886L75.2151 21.3072C75.308 21.4558 75.2151 21.5302 75.1036 21.6045C74.9921 21.6788 74.8248 21.7532 74.6948 21.8461C73.8028 22.4407 72.9109 22.9796 72.0189 23.537Z" fill="#060606"/>
<path d="M24.1324 63.7859C24.5041 63.6744 24.8757 63.5629 25.2659 63.4514C25.6562 63.3399 25.8048 63.4142 25.8792 63.6372C25.9535 63.8973 25.8234 64.1761 25.5818 64.2876C25.2845 64.4548 24.95 64.4362 24.6341 64.5291C24.3554 64.6035 24.0581 64.5849 23.7794 64.5106C23.5564 64.4362 23.5192 64.2876 23.6865 64.1203C23.8165 64.0088 23.9652 63.8973 24.1324 63.7859Z" fill="#030304"/>
<path d="M64.6789 21.7535C64.4931 21.9393 64.3072 22.0508 64.0657 21.8464C64.7532 20.9173 65.3293 19.9138 65.9425 18.9476C66.0354 18.7803 66.1097 18.483 66.3699 18.6131C66.6672 18.7617 66.4256 19.0033 66.3141 19.1891C65.7567 20.0625 65.2178 20.9173 64.6789 21.7535Z" fill="#060607"/>
<path d="M89.2259 58.1742C89.2074 58.23 89.1888 58.3043 89.1702 58.36C88.8543 59.2891 88.4826 60.1997 88.0553 61.073C87.9623 61.2403 87.888 61.519 87.6279 61.3889C87.3677 61.2589 87.5721 61.0545 87.6464 60.8872C88.0738 60.051 88.3897 59.1962 88.7242 58.3229C88.7614 58.23 88.7985 58.1371 88.8357 58.0256C88.8729 57.9141 88.9472 57.8397 89.0773 57.8583C89.2445 57.9141 89.2259 58.0441 89.2259 58.1742Z" fill="#070707"/>
<path d="M23.6865 61.5929C23.9838 61.5372 24.2997 61.5 24.597 61.5C24.7642 61.5186 24.8943 61.5558 24.9501 61.7416C24.9872 61.8902 24.9501 62.0575 24.82 62.169C24.6713 62.2805 24.4855 62.3362 24.2997 62.3548C23.9838 62.4105 23.6493 62.2805 23.3334 62.4105C23.2405 62.4291 23.129 62.4291 23.0361 62.4105C22.906 62.3734 22.7388 62.3734 22.7388 62.1875C22.7388 62.0389 22.8317 61.9274 22.9803 61.8902C23.2033 61.7602 23.4449 61.6858 23.6865 61.5929Z" fill="#020304"/>
<path d="M92.7381 26.6775C92.8682 26.9934 92.7195 27.2907 92.6824 27.588C92.6452 27.9597 92.5523 28.3313 92.4966 28.703C92.4036 29.2233 92.1807 29.725 91.8648 30.1524C91.7904 30.2453 91.7161 30.3382 91.6232 30.4311C91.5117 30.5426 91.363 30.6727 91.233 30.5426C91.1029 30.4125 91.2887 30.2824 91.3816 30.1895C91.8276 29.725 92.1063 29.1303 92.1992 28.4986C92.2922 27.9039 92.4036 27.3093 92.5151 26.7147L92.7381 26.6775Z" fill="#030609"/>
<path d="M35.3191 14.2457C35.3191 14.9146 35.3748 15.5836 35.5049 16.2526C35.5606 16.7729 35.8765 17.2374 36.3597 17.479C36.5083 17.5533 36.7685 17.6276 36.657 17.832C36.5455 18.0365 36.3597 17.832 36.211 17.7577C35.6721 17.4976 35.2819 16.9958 35.2076 16.4012C35.0589 15.7508 35.0032 15.0633 35.0218 14.3943C35.0218 14.2828 35.0218 14.1899 35.1147 14.1156L35.3191 14.2457Z" fill="#030507"/>
<path d="M72.7623 24.1316C72.3349 24.3732 72.3349 24.3732 72.0376 24.0944C72.0748 23.9458 72.242 23.9458 72.3349 23.8343C72.9481 23.5741 73.5242 23.2954 74.1002 22.9795C74.1931 22.9237 74.286 22.8866 74.379 22.8308C74.4719 22.7751 74.6205 22.7565 74.6949 22.868C74.7692 22.9795 74.6949 23.1096 74.6019 23.1653C74.4533 23.2582 74.3046 23.3511 74.156 23.4255C73.6914 23.6856 73.2269 23.9086 72.7623 24.1316Z" fill="#080909"/>
<path d="M65.6453 21.8278C65.5338 21.9207 65.4223 21.9764 65.2922 22.0136C65.1435 22.0322 65.0135 22.0136 64.9949 21.8278C65.4408 21.3632 65.9054 20.8987 66.3514 20.4341C66.4629 20.3226 66.5929 20.2297 66.723 20.1368C66.7973 20.081 66.8903 20.081 66.9646 20.1554C67.0389 20.2111 67.0389 20.3226 67.0018 20.3969L66.7788 20.6757C66.4814 20.9916 66.1655 21.326 65.8497 21.6419C65.7939 21.7163 65.7382 21.7906 65.6453 21.8278Z" fill="#0A0B0B"/>
<path d="M66.853 21.7902C66.6486 21.9388 66.407 22.0503 66.1468 22.0875C65.9238 22.1061 66.0168 21.9574 66.0168 21.8459C65.9982 21.7902 65.9982 21.7716 66.0725 21.753C66.5742 21.4743 67.0388 21.1584 67.5033 20.8239C67.5591 20.7867 67.6148 20.731 67.6706 20.6938C67.8192 20.6009 67.9679 20.4337 68.1165 20.6381C68.2652 20.8425 68.0608 20.954 67.9307 21.0469C67.5591 21.307 67.206 21.5486 66.853 21.7902Z" fill="#090909"/>
<path d="M36.4526 14.3572C36.4341 14.7103 36.4712 15.0819 36.5456 15.435C36.6199 15.9553 36.9358 16.4012 37.3818 16.68L37.549 16.7915C37.6047 16.8286 37.6233 16.9215 37.5862 16.9773C37.549 17.033 37.4747 17.0702 37.4189 17.0516C37.2517 16.9959 37.103 16.9215 36.9729 16.8101C36.5084 16.4198 36.2111 15.8624 36.1553 15.2491C36.1182 14.9704 36.1367 14.6731 36.1182 14.3758C36.2297 14.32 36.3412 14.32 36.4526 14.3572Z" fill="#03060A"/>
<path d="M73.4125 24.9863C73.2453 24.9677 73.0223 25.1907 72.9108 24.9491C72.7807 24.6518 73.1524 24.7075 73.2639 24.5589L74.2487 24.2616C74.3416 24.2244 74.4531 24.2058 74.546 24.1872C74.6761 24.1501 74.8062 24.1872 74.8434 24.3173C74.8805 24.4474 74.7876 24.5031 74.6947 24.5589C74.5832 24.6146 74.4717 24.6518 74.3602 24.689L73.4125 24.9863Z" fill="#0B0B0C"/>
<path d="M94.8007 34.7975C94.8007 34.8718 94.7635 34.9462 94.7078 35.0019C94.6334 35.0577 94.5405 35.0391 94.4848 34.9648C94.2246 34.5745 93.9831 34.1471 93.7786 33.7012C93.7415 33.6083 93.7786 33.4782 93.8716 33.4224C93.9645 33.3667 94.076 33.4038 94.1317 33.4968V33.5153C94.3547 33.9056 94.5777 34.2958 94.7821 34.686C94.7821 34.7046 94.8007 34.7418 94.8007 34.7975Z" fill="#101010"/>
<path d="M66.0727 21.7534C66.0541 21.7905 66.0355 21.8091 66.0169 21.8463L65.6267 21.8277C65.6453 21.7348 65.7196 21.6419 65.8125 21.6233C65.8683 21.7162 65.9798 21.7348 66.0727 21.7534Z" fill="#BCCDE3"/>
<path d="M41.5439 85.2671L41.8041 85.3043C41.6926 85.3972 41.6183 85.36 41.5439 85.2671Z" fill="#4B8EE2"/>
<path d="M61.2783 84.858C61.334 84.858 61.3712 84.9138 61.3526 84.9695C61.2969 84.9509 61.2597 84.9138 61.2783 84.858Z" fill="white"/>
<path d="M63.6756 88.8167C64.0658 88.9282 64.4932 88.9096 64.8834 88.7795C66.2213 88.4451 67.5221 88.0177 68.7857 87.4788C68.9343 87.4045 69.1016 87.3673 69.2688 87.293C69.0087 87.8876 68.8228 88.4822 68.7114 89.114C68.6928 89.2069 68.6742 89.3184 68.6556 89.4113C68.6556 89.7087 68.7671 89.8016 69.0272 89.6715C69.4546 89.4485 69.9006 89.2627 70.3466 89.0954C72.1119 88.3893 73.7843 88.5566 75.401 89.5414C75.4939 89.5786 75.5682 89.6529 75.6239 89.7458C75.5124 89.8387 75.3824 89.8759 75.2523 89.8759C74.9178 89.9131 74.8435 90.1175 74.9178 90.4148C74.8992 90.4705 74.8621 90.5077 74.8249 90.5263C74.4161 90.6006 74.0444 90.4334 73.6542 90.4148C73.3941 90.3776 73.1339 90.3962 72.8924 90.4891C74.0445 90.4891 75.1036 90.9723 76.2186 91.1767C76.4416 91.1767 76.6645 91.2696 76.8318 91.3996C76.8875 91.6226 76.7575 91.8085 76.7203 92.0314C76.5159 92.1058 76.3486 91.9757 76.1814 91.9199C75.9398 91.827 75.6983 91.7713 75.4381 91.7713C75.3638 91.7713 75.2523 91.7713 75.2337 91.8828C75.2151 91.9943 75.2895 92.0314 75.3638 92.0872C75.5682 92.1987 75.8098 92.273 76.0328 92.3288C76.1628 92.3659 76.3858 92.3102 76.3858 92.5703C75.3266 93.072 74.1931 93.1464 73.041 93.0906C72.372 93.0535 71.7031 92.9605 71.0341 92.9234C70.6067 92.9048 70.1793 92.9048 69.7334 92.9234C67.9681 92.9791 66.3142 92.5146 64.7162 91.827C64.6047 91.7713 64.4932 91.7155 64.4003 91.6598C63.5269 91.1395 63.3225 90.6749 63.5083 89.6715C63.5641 89.3556 63.6198 89.0769 63.6756 88.8167Z" fill="#38A1FC"/>
<path d="M76.813 91.3802C76.2555 91.3616 75.7166 91.2501 75.1963 91.0829C74.4716 90.8227 73.6912 90.6927 72.9107 90.6927H72.7063C72.6134 90.6927 72.5391 90.6183 72.5391 90.5254C72.5391 90.4325 72.5762 90.3582 72.6691 90.321C72.7992 90.2653 72.9293 90.2467 73.078 90.2653C73.6726 90.2653 74.2858 90.3396 74.8618 90.4697C75.0105 90.4511 75.1777 90.4883 75.3078 90.5626L75.4379 90.6183C75.5308 90.6555 75.6237 90.6741 75.7166 90.6927C76.0511 90.8413 76.4413 90.767 76.7201 91.0271C76.813 91.12 76.8501 91.2501 76.813 91.3802Z" fill="#020406"/>
<path d="M74.8621 90.3586C74.5648 89.9869 74.5834 89.894 75.0293 89.8011C75.2337 89.7639 75.4381 89.7639 75.6425 89.7454C75.9027 89.8754 76.2 89.8754 76.4787 89.9498C76.7761 90.0055 77.0734 90.1356 77.3149 90.34C77.4079 90.4143 77.4822 90.4887 77.4264 90.6001C77.3893 90.7116 77.2592 90.7674 77.1477 90.7302H77.1291C77.0176 90.6931 76.8876 90.6559 76.7761 90.6373C76.4973 90.6931 76.2 90.7302 75.9213 90.7116C75.847 90.7116 75.7726 90.6931 75.6797 90.6931C75.5496 90.6931 75.4196 90.6745 75.3081 90.6373C75.178 90.5072 74.955 90.5444 74.8621 90.3586Z" fill="#050709"/>
<path d="M76.3671 92.5139C76.1441 92.4581 75.9025 92.4024 75.6796 92.3281C75.5495 92.2909 75.4194 92.2537 75.2893 92.198C75.1035 92.1051 74.9177 91.9564 74.9734 91.7334C75.0292 91.5104 75.2708 91.5848 75.4566 91.5848C75.9211 91.6033 76.3114 91.8078 76.7016 92.0122C76.8688 92.2166 77.2033 92.2723 77.2219 92.6254C76.9246 92.6811 76.6644 92.4953 76.3671 92.5139Z" fill="#030405"/>
<path d="M75.9211 90.5817C76.2184 90.5817 76.5157 90.5259 76.7945 90.6374C76.5343 90.7303 76.7387 90.8976 76.7201 91.0277C76.3299 91.0091 75.9583 90.9162 75.6052 90.7675C75.5309 90.7303 75.438 90.7489 75.3822 90.6746C75.3636 90.656 75.3265 90.656 75.3079 90.656C75.2707 90.656 75.2521 90.6374 75.2707 90.6189C75.2893 90.6003 75.2893 90.5817 75.2893 90.5817H75.6981C75.7539 90.6374 75.8468 90.6188 75.9211 90.5817Z" fill="#4B8BDA"/>
<path d="M76.553 37.3063C76.7203 37.2877 76.9061 37.3249 77.0548 37.4178C78.2812 37.9567 79.5076 38.5327 80.604 39.3318C80.7526 39.4433 80.9384 39.6291 81.0871 39.4247C81.2358 39.2203 81.0128 39.0902 80.8641 38.9787C80.158 38.4584 79.4147 38.0124 78.6342 37.6594C78.467 37.6036 78.3183 37.5107 78.1883 37.3806L81.403 36.6745C81.4773 36.6559 81.5702 36.6559 81.6817 36.6374C81.9419 37.6594 82.2206 38.6814 82.4808 39.7034C82.8896 41.2643 83.2055 42.8252 83.67 44.3676C83.7444 44.5348 83.7444 44.7206 83.67 44.8693C82.871 46.3559 82.072 47.861 80.5111 48.753C79.9536 49.0503 79.359 49.3104 78.7457 49.5148C77.1477 50.0537 75.531 50.5555 73.9515 51.1687C73.2082 51.4474 72.9295 51.3545 72.4649 50.7041C72.2977 50.4811 72.1676 50.2396 72.019 49.998C71.9446 49.8865 71.8517 49.8122 71.7217 49.8865C71.5916 49.9608 71.6102 50.0909 71.6845 50.2024C71.9632 50.7041 72.242 51.2058 72.7251 51.5403C72.8737 51.6332 72.9481 51.7819 72.9481 51.9491L73.2268 55.4054C73.4498 58.0441 73.6542 60.6828 73.8772 63.3029C73.8958 63.5259 73.9144 63.7489 73.9701 63.9718C74.0073 64.2134 73.9515 64.3063 73.6914 64.3435C71.1456 64.7337 68.5627 64.9381 65.9983 64.9381C65.6081 64.9381 65.1993 64.9195 64.8091 64.8824C64.3259 64.8638 63.8428 64.7151 63.434 64.4921C61.1484 63.1171 58.8442 61.7977 56.6329 60.2926C55.2392 59.3634 53.957 58.2485 52.8421 57.0035C52.136 56.223 51.6528 55.3125 51.2069 54.3834C50.8538 53.6401 50.7609 52.7853 50.9839 52.0049C51.3555 50.5369 51.5599 49.0131 51.6157 47.4894C51.6343 46.6903 51.6157 45.8913 51.3741 45.1294C51.2812 44.795 51.1139 44.4976 50.9095 44.2189C50.222 43.2898 49.4044 42.5093 48.308 42.0448C46.1897 41.1343 44.5916 39.6105 43.328 37.7151C42.5475 36.5444 41.6742 35.4481 41.0238 34.2031L40.7822 33.7199C40.9309 33.627 41.0981 33.5713 41.2654 33.5527C43.904 32.8837 46.3569 31.6202 48.4381 29.8548C48.6239 29.7062 48.8283 29.5575 49.0142 29.4089C49.2 29.2602 49.4601 29.093 49.6831 28.9629C49.7946 28.9629 49.8318 29.0372 49.8504 29.093C50.5565 30.4495 51.4856 31.6573 52.3775 32.8837C53.3624 34.2588 54.6817 35.2623 56.0568 36.21C56.9116 36.8046 57.8221 37.3063 58.6212 37.9567C59.4202 38.5513 60.052 39.3318 60.4794 40.2237C60.5909 40.4653 60.6281 40.7626 60.5537 41.0228C60.4794 41.3758 60.3493 41.7103 60.1821 42.0448C59.476 43.3827 58.4911 44.5534 57.3204 45.5011C57.1718 45.6126 56.8187 45.7241 57.0417 46.0028C57.2275 46.2258 57.4133 45.9471 57.562 45.8356C58.5097 45.1109 59.3459 44.2375 60.0148 43.2526L60.275 42.881C60.6281 43.104 60.9625 43.3084 61.2784 43.5128C61.8731 43.903 62.4491 44.3118 63.1367 44.5534C63.2482 44.5906 63.3411 44.6835 63.3596 44.8135C63.434 45.1109 63.5455 45.4082 63.6755 45.6869C63.8985 46.1143 63.8056 46.4488 63.5826 46.839C62.2075 49.3104 61.1669 51.912 60.1263 54.5321C59.4945 56.1115 59.9033 57.5981 60.5723 59.029C60.7581 59.4192 60.9811 59.4564 61.3156 59.1962C61.6501 58.936 61.9846 58.6387 62.3005 58.36C62.5606 58.0813 62.8579 57.8397 63.1552 57.6167C63.7127 57.2636 63.9171 56.7433 63.9357 56.1115C64.01 53.1941 64.4746 50.2953 64.7347 47.3965C64.7347 47.0062 64.9206 46.6346 65.2179 46.3745C65.5523 46.0957 65.7568 45.7055 65.9797 45.3338C66.0541 45.148 66.2585 45.0365 66.4629 45.0551C68.6742 45.2224 70.5881 44.3862 72.4464 43.327C72.6508 43.2341 72.7994 43.0296 72.818 42.7881C72.9109 42.435 72.8552 42.0634 72.8738 41.7103C72.8552 41.5616 72.9481 41.413 73.0967 41.3572C73.9701 41.0413 74.7691 40.5396 75.4381 39.9078C75.7354 39.9822 75.7912 40.2609 75.8841 40.5025C76.33 41.4873 76.6645 42.5279 76.8689 43.5871C76.8689 43.7544 76.9618 43.9216 77.1105 44.0145C77.0176 43.2712 76.8318 42.5279 76.5902 41.8032C76.3858 41.2272 76.1442 40.6511 75.8841 40.0937C75.8097 39.9264 75.6611 39.7778 75.7726 39.5733C75.7726 39.3689 75.8841 39.1645 76.0699 39.053C76.423 39.1274 76.5345 39.4804 76.7574 39.7034C76.9061 39.8707 76.999 40.0751 77.222 40.1866C77.0733 39.8149 76.8318 39.4619 76.553 39.1645C76.3858 38.9787 76.1442 38.8301 76.2186 38.5142L76.4787 38.2168C76.9804 38.254 77.2406 38.6442 77.5936 38.9044C77.8352 39.0902 78.0024 39.3689 78.3183 39.4619C77.9839 38.923 77.4821 38.5327 76.999 38.1611C76.8503 38.0496 76.6088 37.9939 76.6088 37.7151L76.553 37.3063Z" fill="white"/>
<path d="M70.235 30.2452C71.0898 30.2452 71.8517 30.5239 72.6321 30.8027C73.7285 31.1929 74.1187 32.122 74.5275 33.0511C74.6576 33.3299 74.6204 33.6458 74.4346 33.8873C74.3046 34.036 74.3417 34.2032 74.3603 34.3705C74.3975 35.0952 74.4532 35.8385 74.2674 36.5446C73.9701 37.771 73.3197 38.6815 72.0004 38.9603C71.8703 38.9789 71.7588 38.9974 71.7402 39.1647C71.7216 39.3319 71.703 39.5363 71.4801 39.5363C71.2571 39.5363 71.3128 39.2762 71.2013 39.1275L70.1235 40.2424C69.8262 40.5955 69.3617 40.7628 68.9157 40.6698C68.5441 40.5955 68.1538 40.6141 67.8008 40.4654C67.392 40.2982 67.3176 40.1495 67.522 39.7593C67.8193 39.1275 67.8751 38.4028 67.6521 37.7338C67.5964 37.548 67.522 37.4365 67.299 37.4179C66.5 37.3994 65.8311 37.0277 65.255 36.526C65.0506 36.3402 64.8834 36.3216 64.679 36.5074C64.4002 36.749 64.0843 36.9906 63.787 37.2321C63.6569 37.325 63.6012 37.4923 63.6941 37.6409C64.1215 38.57 64.586 39.4806 65.2736 40.2424C66.0169 41.0415 67.0203 41.2459 68.0795 41.2087C68.2839 41.1901 68.4883 41.153 68.6927 41.0972C68.8414 41.0601 68.99 41.0415 69.0458 41.2087C69.1201 41.4131 68.9529 41.4875 68.8042 41.5246C68.3025 41.6733 67.7822 41.7104 67.2619 41.6361C66.0355 41.506 64.9391 40.7999 64.3259 39.7407C63.9357 39.1275 63.5826 38.4771 63.2853 37.8082C63.0995 37.9197 62.9322 38.0683 62.8207 38.2541C62.7278 38.3656 62.6535 38.4771 62.5606 38.5886C62.5048 38.6815 62.3748 38.7187 62.2818 38.663C62.1518 38.5886 62.1703 38.4586 62.2261 38.3471C62.3748 38.0497 62.5792 37.7896 62.8207 37.5666C63.0066 37.4365 63.0623 37.1764 62.9322 36.972C62.5606 36.1915 62.1518 35.4296 61.7244 34.6678C61.5943 34.4448 61.4642 34.4448 61.2598 34.5191C60.3865 34.7978 59.5503 35.1695 58.7512 35.6155C58.6583 35.6712 58.5654 35.727 58.4725 35.7641C58.3424 35.8385 58.1752 35.9499 58.0637 35.7641C57.9522 35.5783 58.138 35.4854 58.2495 35.3925C58.584 35.1695 58.9185 34.9651 59.2901 34.8164C59.9219 34.5191 60.5723 34.2961 61.2598 34.036C60.9439 33.6086 60.6094 33.2927 60.0706 33.2927C59.9405 33.2927 59.7918 33.2741 59.6617 33.2741C59.4759 33.2555 59.2158 33.3484 59.2344 33.0511C59.2529 32.7538 59.5131 32.8653 59.6989 32.8653H60.628C61.3527 32.8467 62.0774 32.9025 62.8021 32.7538C63.4897 32.6051 64.1401 32.345 64.7533 31.9733C64.3631 31.8247 63.9728 31.7318 63.5454 31.7132C63.2295 31.676 62.9322 31.676 62.6163 31.6389C62.5048 31.6389 62.4119 31.5831 62.3933 31.4716C62.3748 31.3601 62.4863 31.3044 62.5792 31.2672C62.8393 31.1929 63.0995 31.1929 63.3596 31.2301C63.8985 31.2672 64.4188 31.3787 64.9391 31.5274C65.1993 31.6203 65.4966 31.5831 65.701 31.3973C66.4443 30.8398 67.299 30.4682 68.2096 30.3009C68.414 30.2452 68.6184 30.2266 68.8228 30.2452C69.2873 30.1709 69.7705 30.1709 70.235 30.2452Z" fill="black"/>
<path d="M54.849 30.2448C54.5888 30.0775 54.5888 29.8546 54.6818 29.5758C55.2392 28.0335 56.0197 26.6398 57.2089 25.4877C57.3762 25.3391 57.5063 25.1533 57.6549 24.986C57.8407 24.9674 57.9708 25.0603 58.1752 25.1904C56.8187 26.3611 55.7781 27.8291 55.1091 29.4829C55.1649 29.5758 55.2206 29.5758 55.2578 29.5572C56.6886 28.9254 58.1752 28.9254 59.6804 29.167C60.052 29.2228 60.4422 29.2599 60.8139 29.3343C61.074 29.39 61.3342 29.3343 61.5386 29.1484C61.7802 28.944 62.0032 28.7396 62.2261 28.5166C62.5235 28.2007 62.9137 27.9778 63.3225 27.8477C64.1215 27.5689 65.0135 27.9778 65.3108 28.7768C65.6267 29.5015 65.5152 29.7245 64.7533 29.9103C63.9171 30.0961 63.0623 30.1147 62.2261 29.9846C61.4643 29.8731 60.6838 29.7616 59.9219 29.6316C58.1752 29.3343 56.4656 29.39 54.849 30.2448Z" fill="#000101"/>
<path d="M72.2791 41.6914C72.2791 41.8401 72.2977 42.0073 72.2977 42.156C72.2977 42.955 72.2977 42.955 71.573 43.3266C70.7554 43.754 69.9192 44.1071 69.0458 44.3858C68.2282 44.6646 67.392 44.7017 66.5372 44.7017C66.3328 44.7203 66.1656 44.5902 66.1284 44.3858L65.7939 43.2895C65.8311 43.0107 66.0727 43.0665 66.2399 43.0665C66.9089 43.0293 67.5778 42.8993 68.2468 42.8621C69.6591 42.7692 71.0341 42.3604 72.2791 41.6914Z" fill="white"/>
<path d="M64.2329 42.9929C64.1215 43.3274 63.9356 43.6433 63.6941 43.922C63.4711 44.2007 63.341 44.2379 63.0251 44.0892C62.672 43.922 62.319 43.7362 61.9845 43.5318C61.5385 43.2716 61.1297 42.9557 60.6837 42.6956C60.4793 42.5655 60.3678 42.454 60.5351 42.2124C60.7581 41.8222 60.9067 41.3948 60.9811 40.9489L62.1517 41.7851C62.672 42.1567 63.2295 42.454 63.8241 42.6956C63.9728 42.7699 64.1772 42.8071 64.2329 42.9929ZM65.2921 43.0858C65.4222 43.5504 65.5709 44.0149 65.7009 44.4795C65.7381 44.6096 65.7939 44.7396 65.7009 44.8697C65.385 45.3157 65.1435 45.8174 64.7347 46.2076C64.4188 46.5235 64.363 46.5049 64.1772 46.0961C64.1029 45.9289 64.0471 45.7431 63.9728 45.5758C63.7126 45.0369 63.5268 44.5538 64.14 44.0892C64.4559 43.8477 64.586 43.4017 64.7161 43.0115C64.9205 42.9929 65.1063 43.0301 65.2921 43.0858Z" fill="#FEFEFE"/>
<path d="M73.7099 29.7061C73.6541 30.6352 73.5055 30.914 72.6135 30.4866C72.3534 30.3565 72.0746 30.2636 71.7773 30.245C71.5915 30.245 71.4614 30.0964 71.4614 29.9105C71.4614 29.8734 71.4614 29.8362 71.48 29.799C71.5915 29.3345 71.8517 28.9257 72.2233 28.6469C72.5949 28.3496 73.1338 28.4054 73.4497 28.777C73.5426 28.8885 73.617 29.0372 73.6355 29.1858C73.6727 29.3902 73.6727 29.5761 73.7099 29.7061Z" fill="#010202"/>
<path d="M75.6797 39.6292C76.3486 40.8556 76.8318 42.1749 77.1105 43.55C77.1477 43.7172 77.1663 43.8845 77.1663 44.0703C77.1663 44.2004 77.1105 44.3119 76.9619 44.3119C76.8504 44.3119 76.776 44.2375 76.7574 44.1261C76.7203 43.9588 76.7017 43.7916 76.6645 43.6243C76.4044 42.3607 75.977 41.1343 75.3638 39.9822L74.6577 38.8487C74.5833 38.7186 74.509 38.5885 74.6762 38.4771C74.8435 38.3656 74.9364 38.4956 75.0107 38.6257L75.6797 39.6292Z" fill="#040404"/>
<path d="M66.8902 23.9086C66.8902 24.0201 66.8158 24.0944 66.7229 24.0944H66.6486C66.5557 24.0758 66.4628 24.0201 66.3699 23.9643C66.1655 23.8157 65.9796 23.667 65.8124 23.4998C65.4965 23.1281 64.9762 23.0166 64.5488 23.221L63.2666 23.7785C63.1923 23.8157 63.118 23.8528 63.0436 23.9086C62.9136 23.9643 62.7649 24.0201 62.6906 23.8528C62.6162 23.7228 62.7277 23.6113 62.8392 23.5555C63.4896 23.2025 64.14 22.8494 64.8833 22.7007C65.2363 22.6264 65.5894 22.7193 65.8681 22.9423C66.184 23.1839 66.4813 23.444 66.7972 23.7042C66.8344 23.7228 66.8902 23.8157 66.8902 23.9086Z" fill="#020305"/>
<path d="M76.4971 37.8084C77.0546 38.2544 77.6492 38.626 78.1324 39.1278C78.2439 39.2393 78.3368 39.3507 78.4297 39.4808C78.4854 39.5552 78.4669 39.6481 78.4111 39.7224C78.3554 39.7967 78.2624 39.8153 78.1881 39.7596C78.058 39.6666 77.9465 39.5737 77.8351 39.4622C77.3891 39.0348 76.9059 38.6446 76.3856 38.2916C75.9954 38.0128 75.568 37.7898 75.1221 37.6226C74.992 37.5854 74.8805 37.5111 74.9176 37.381C74.9548 37.251 75.1035 37.1952 75.2521 37.2324C75.6052 37.3253 75.9025 37.5297 76.237 37.6783C76.3299 37.6969 76.4042 37.7527 76.4971 37.8084Z" fill="#050506"/>
<path d="M71.3686 24.7258C71.7589 24.7072 72.1305 24.9116 72.3163 25.2461C72.4278 25.4133 72.5951 25.562 72.7809 25.6549C72.911 25.7292 73.0224 25.8221 72.9295 25.9894C72.8366 26.1566 72.688 26.1009 72.5579 26.0451C72.3349 25.9708 72.1305 25.8035 72.0004 25.5991C71.7774 25.1903 71.4244 25.1346 71.0342 25.1903C70.7926 25.2461 70.5696 25.3018 70.3466 25.3947C70.1979 25.4505 70.0307 25.5248 69.9564 25.3204C69.9006 25.1532 70.0493 25.0788 70.1794 25.0231C70.5324 24.8373 70.9412 24.7444 71.3686 24.7258Z" fill="#030508"/>
<path d="M76.1257 38.5698C76.2929 38.9043 76.5902 39.1087 76.7946 39.406C76.9247 39.6104 77.0919 39.7962 77.2034 40.0006C77.2963 40.1493 77.5007 40.3351 77.2778 40.4838C77.0548 40.6324 76.9433 40.3909 76.8504 40.2422C76.5902 39.852 76.2929 39.4617 75.9584 39.1087C75.7354 38.8485 75.4753 38.607 75.2151 38.384C75.1222 38.3097 75.0293 38.1982 75.1408 38.0681C75.2523 37.938 75.401 37.9752 75.4939 38.0867C75.6983 38.2911 75.8655 38.4955 76.1257 38.5698Z" fill="#050607"/>
<path d="M72.372 27.6248C72.6322 27.6434 72.8923 27.6062 73.1339 27.7363C73.2454 27.792 73.3383 27.8849 73.2826 28.0336C73.2454 28.1265 73.1153 28.1823 73.0224 28.1451C72.8552 28.0893 72.6879 28.0708 72.5207 28.0708C72.0933 28.015 71.6473 28.1265 71.2943 28.3681C71.1828 28.4424 71.0527 28.4796 70.9784 28.3681C70.904 28.2566 70.9598 28.1079 71.0899 28.015C71.4243 27.7363 71.9075 27.6062 72.372 27.6248Z" fill="#030508"/>
<path d="M63.7496 27.1606C63.6939 27.1606 63.6567 27.1792 63.601 27.1792C63.4523 27.2163 63.2665 27.2535 63.2479 27.0305C63.2293 26.8633 63.378 26.8075 63.5081 26.7703C64.0098 26.6774 64.5115 26.8075 64.9017 27.1234C65.0132 27.1792 65.0504 27.3278 64.9761 27.4207V27.4393C64.9017 27.5694 64.7717 27.5322 64.6602 27.4579C64.4 27.2721 64.0841 27.1792 63.7496 27.1606Z" fill="#04070B"/>
<path d="M74.862 74.0438C74.862 76.3852 74.2488 78.6894 73.0781 80.7334C72.2791 82.1085 71.48 83.4836 70.5695 84.7843C70.235 85.2489 69.9377 85.732 69.6776 86.2523C69.5475 86.5496 69.2873 86.7912 68.99 86.9213C67.5406 87.5531 66.054 88.0548 64.5303 88.4079C63.9356 88.5379 63.7312 88.4265 63.4525 87.869C63.2481 87.4602 63.0623 87.0699 62.8579 86.6611C62.096 85.0631 61.0554 83.6137 59.8104 82.3686C58.4353 81.0121 57.0974 79.6556 55.8152 78.2062C54.8675 77.1284 54.0871 75.9578 53.7712 74.5269C53.6225 73.858 53.4924 73.1704 53.3438 72.5015C53.3066 72.2971 53.4181 72.2599 53.5482 72.2042C53.9384 72.0555 54.3286 71.9068 54.7003 71.7582C54.8118 71.721 54.9233 71.6653 55.0162 71.5909C55.0905 71.5538 55.1277 71.4423 55.0905 71.368C55.0533 71.2936 54.979 71.2379 54.8861 71.2379C54.7189 71.2379 54.5516 71.2936 54.3844 71.368C53.511 71.6839 52.6562 72.1112 51.7457 72.3156C49.6087 72.7988 47.5647 72.613 45.6693 71.3865C43.9783 70.2902 42.3059 69.1567 40.4663 68.2833C38.7753 67.4657 36.9542 66.9825 35.0774 66.871C34.2412 66.8153 33.4236 66.7596 32.5874 66.7038C32.1414 66.6666 32.1043 66.6295 32.0857 66.2207C32.0299 65.4031 32.0114 64.604 31.9556 63.7864C31.8999 63.359 32.1043 62.9502 32.4759 62.7458C32.9776 62.4485 33.3679 61.9653 33.7209 61.5008C34.4642 60.4973 35.1146 59.4382 35.6906 58.3418C36.341 57.1154 37.01 55.8704 37.8648 54.7554C38.5337 53.8821 39.2956 53.083 40.1504 52.4141C41.1352 51.6708 42.3059 51.2062 43.5323 51.0947C44.7588 50.9461 44.48 50.9461 45.2233 51.8009C45.6136 52.2468 45.9295 52.73 46.2825 53.2131C46.7842 53.8635 47.3417 54.4953 47.9178 55.0713C48.4195 55.6474 49.1999 55.8889 49.9432 55.7403C50.2591 55.6845 50.5936 55.6845 50.9281 55.6474C51.0953 55.6102 51.2626 55.6845 51.3369 55.8332C52.2474 57.4127 53.5482 58.602 54.9604 59.7169C56.6886 61.0734 58.584 62.1883 60.4608 63.3404C61.2598 63.8236 62.0774 64.2695 62.8579 64.7713C63.6383 65.273 64.4931 65.4031 65.3851 65.4031C66.9645 65.4216 68.5255 65.3659 70.1049 65.2358C70.6067 65.1987 70.5881 65.1986 70.7367 65.6632C70.9411 66.295 71.0898 66.964 71.1455 67.6329C71.1827 68.3205 71.5544 68.9523 72.149 69.3053C72.818 69.7699 73.4126 70.3273 74.063 70.8105C74.3974 71.0335 74.6018 71.4051 74.6204 71.7953C74.7877 72.5572 74.8434 73.3005 74.862 74.0438ZM48.9584 27.3838C49.1442 27.7554 49.1442 28.1457 49.3486 28.4616C49.4229 28.5916 49.33 28.6474 49.2557 28.7217C46.5984 30.8772 43.7553 32.7169 40.3176 33.3859C40.1875 33.4044 40.0203 33.5531 39.8902 33.3673C39.7602 33.1814 39.6858 32.9585 39.6858 32.7355C39.7044 32.5868 39.8531 32.5868 39.9831 32.5682C40.7822 32.4196 41.5255 32.0851 42.2873 31.7878C43.0678 31.4719 43.8111 31.0631 44.4986 30.5614C45.6693 29.7251 46.9143 29.019 48.0478 28.1457C48.3266 27.8855 48.6239 27.6439 48.9584 27.3838Z" fill="white"/>
<path d="M74.3603 70.4574C74.1559 70.2902 73.9514 70.1415 73.7656 69.9743C73.4126 69.6584 73.0223 69.3611 72.6135 69.0823C72.0375 68.7107 71.6658 68.2276 71.6101 67.4843C71.5543 66.8153 71.4057 66.1463 71.1827 65.5145C71.1455 65.403 71.127 65.2916 71.127 65.1801L73.617 64.8456C73.7842 66.7224 74.1001 68.562 74.3603 70.4574Z" fill="white"/>
<path d="M82.8709 35.5601C83.001 36.0246 83.1311 36.4706 83.2611 36.9166C83.8558 38.942 84.3946 40.9861 84.7849 43.0487C84.8778 43.5133 84.9149 43.9778 85.0079 44.4238C85.0636 44.5724 84.9893 44.7397 84.8592 44.8326C84.7105 44.9441 84.5619 45.0556 84.3575 45.2042C84.1717 44.5167 83.9858 43.8663 83.8186 43.2159C83.2797 41.0604 82.7594 38.8863 82.1462 36.7493C82.0905 36.5635 82.0161 36.3963 81.9604 36.2104C81.8489 35.8574 81.9046 35.783 82.2391 35.7087C82.4249 35.653 82.6108 35.6158 82.8709 35.5601ZM51.0395 55.2387C50.5192 55.2758 50.0918 55.2944 49.6645 55.3687C49.2185 55.4245 48.7539 55.2758 48.438 54.9228C47.9363 54.4582 47.4718 53.9379 47.0258 53.4176C46.4869 52.7486 46.0223 52.0053 45.4463 51.355C45.6693 51.2806 45.8179 51.4107 45.9666 51.4665C46.5426 51.7266 47.1187 52.0239 47.6762 52.3212C48.4566 52.7486 49.2371 53.2132 50.1476 53.3618C50.2405 53.3804 50.3334 53.4548 50.352 53.5477C50.575 54.0866 50.798 54.6254 51.0395 55.2387ZM63.4339 55.8333C63.3967 56.0934 63.3781 56.2607 63.3596 56.4093C63.2666 57.0783 63.0622 57.2084 62.4119 57.1712C61.7615 57.134 61.1483 57.004 60.5165 56.9296C60.3492 56.9296 60.2006 56.7996 60.182 56.6137C60.1263 56.2049 60.1448 55.7775 60.2377 55.3873C60.2749 55.2015 60.3864 55.1457 60.5722 55.1829C61.4084 55.313 62.2446 55.4245 63.0808 55.536C63.3596 55.5731 63.5082 55.6475 63.4339 55.8333ZM60.5165 54.6998C60.6837 54.1237 60.9067 53.5477 61.1669 52.9902C61.2226 52.8601 61.3341 52.8787 61.427 52.8787C62.096 52.9902 62.7463 53.0831 63.4153 53.1946C63.5082 53.1946 63.564 53.2689 63.564 53.3618C63.5268 53.8821 63.4896 54.4024 63.4525 54.9042C63.4339 55.0528 63.3224 55.0528 63.2109 55.0342L60.5165 54.6998Z" fill="#FEFEFE"/>
<path d="M61.4269 52.414C61.5384 51.9494 61.7614 51.5778 61.9101 51.1876C61.9658 51.0575 62.0587 51.0203 62.2074 51.0389C62.6348 51.0947 63.0622 51.169 63.4895 51.2061C63.7125 51.2247 63.7869 51.3176 63.7683 51.5406C63.7311 51.8565 63.6939 52.191 63.6568 52.5255C63.6382 52.7113 63.5453 52.7299 63.3781 52.7113C62.7463 52.6556 62.1145 52.5441 61.4269 52.414ZM62.2074 50.5743C62.3746 50.1098 62.579 49.6452 62.802 49.1807C62.8392 49.1064 62.8763 49.032 62.9878 49.0134C63.3037 49.0134 63.601 49.0506 63.8984 49.1249C64.0098 49.1435 63.9913 49.255 63.9913 49.3293L63.8798 50.5558C63.8612 50.723 63.7683 50.7416 63.6196 50.723C63.1551 50.7044 62.6905 50.6487 62.2074 50.5743ZM60.3306 57.3569L62.3003 57.6542C61.8729 58.1002 61.4083 58.5275 60.9066 58.8992C60.6465 58.4346 60.4606 57.8958 60.3306 57.3569ZM63.1179 48.5675C63.3223 47.9357 63.6754 47.4154 63.9541 46.8765C63.9727 46.8393 64.0098 46.7836 64.0656 46.8022C64.1213 46.8207 64.1771 46.8579 64.2328 46.9136C64.2514 46.9508 64.27 47.0066 64.2514 47.0623C64.1585 47.5826 64.2143 48.1215 64.047 48.679L63.1179 48.5675Z" fill="white"/>
<path d="M57.0229 36.3585C57.1159 36.2842 57.1159 36.3585 57.1159 36.4143L57.0229 36.3585Z" fill="#4B8EE2"/>
<path d="M75.2895 90.5817C75.308 90.6003 75.308 90.6189 75.308 90.6561C75.1594 90.6189 74.9921 90.6189 74.8621 90.4888V90.3773C74.9921 90.4516 75.1965 90.4145 75.2895 90.5817ZM75.3824 90.6746C75.4753 90.6561 75.5496 90.6932 75.6053 90.7675C75.531 90.7861 75.4381 90.749 75.3824 90.6746ZM75.9213 90.5817C75.8841 90.6375 75.7912 90.6561 75.7354 90.6189C75.7168 90.6189 75.7168 90.6003 75.6983 90.5817H75.9213Z" fill="#224066"/>
<path d="M71.3685 50.8531C71.48 50.8717 71.5729 50.9461 71.6101 51.039C71.9631 51.6522 72.2047 52.3211 72.3348 53.0087C72.372 53.1202 72.3162 53.2503 72.2047 53.2874H72.1861C72.0375 53.3246 71.9632 53.2317 71.926 53.1016C71.8888 52.9715 71.8702 52.86 71.8331 52.7485C71.703 52.2096 71.5172 51.6894 71.2384 51.2248C71.1827 51.1319 71.1269 51.0018 71.2384 50.8903C71.2942 50.8717 71.3314 50.8531 71.3685 50.8531Z" fill="#0A0A0A"/>
<path d="M53.0463 47.2663C52.8419 47.2849 52.6375 47.2477 52.4331 47.192C52.3402 47.1548 52.2473 47.099 52.2473 46.969C52.2659 46.8017 52.396 46.7831 52.5075 46.8017C52.9349 46.8761 53.3622 46.8575 53.7896 46.7274C53.9569 46.6716 54.1055 46.6159 54.2728 46.5602C54.3843 46.5044 54.5143 46.5416 54.5701 46.6531C54.6258 46.8017 54.5329 46.8946 54.4214 46.9318C53.994 47.1734 53.5295 47.2849 53.0463 47.2663Z" fill="#0C0C0C"/>
<path d="M65.9796 31.7691C66.4627 31.3789 67.0202 31.1002 67.6148 30.8958C67.7449 30.8586 67.8936 30.8772 68.005 30.9515C69.566 31.5833 70.6809 32.6425 71.2755 34.222C71.387 34.5193 71.4613 34.8538 71.6658 35.1139C71.7587 35.244 71.7587 35.4113 71.6843 35.5599C71.6286 35.7272 71.5543 35.8758 71.4985 36.0431C71.4428 36.1546 71.4056 36.2846 71.5543 36.359C71.7215 36.4519 71.8144 36.3404 71.8887 36.2103C72.0002 36.0059 72.0746 35.8015 72.1303 35.5785C72.1489 35.3927 72.279 35.2254 72.4648 35.1883C72.9851 35.0396 73.3939 34.6494 73.8399 34.3892C74.0071 34.4636 73.9514 34.5936 73.9514 34.7051C73.9699 35.1697 73.9699 35.6343 73.9142 36.0988C73.8399 36.8049 73.5054 37.4739 72.9851 37.9756C72.7249 38.2543 72.3719 38.4402 72.0002 38.5145C71.7958 38.5517 71.6472 38.5517 71.6472 38.3101C71.6472 38.2543 71.6286 38.1986 71.61 38.1614C71.3684 37.3067 70.8481 36.8978 69.9376 36.8978C69.4916 36.8978 69.0457 36.9164 68.5997 36.9722C67.5219 37.1208 66.4813 37.0465 65.6265 36.3032C65.5708 36.2475 65.4779 36.2103 65.4593 36.0802C65.8123 35.8572 66.2026 35.69 66.63 35.5971C67.0945 35.467 67.5777 35.3741 68.0422 35.244C68.1537 35.2254 68.2838 35.1883 68.3953 35.1511C68.4696 35.1325 68.5068 35.0582 68.5068 34.9839C68.5068 34.891 68.4324 34.8166 68.3395 34.798C68.2466 34.7795 68.1723 34.7981 68.0794 34.8166C67.1874 34.9839 66.2769 35.1697 65.4407 35.5599C65.0319 35.7457 65.0319 35.7457 64.7717 35.4113C64.716 35.3369 64.6788 35.2812 64.6045 35.2069C64.7346 35.021 64.939 35.021 65.1062 34.9839C65.7008 34.8352 66.3141 34.7051 66.9273 34.5565C67.0202 34.5379 67.0945 34.5379 67.1874 34.5007C67.2989 34.4636 67.4104 34.3892 67.3733 34.2406C67.3361 34.1105 67.2246 34.0919 67.1317 34.1105C67.0202 34.1105 66.9273 34.1291 66.8158 34.1477C66.0539 34.2777 65.292 34.4636 64.5488 34.668C64.3629 34.7609 64.1214 34.7051 64.0285 34.5007C63.8984 34.2963 63.694 34.1477 63.6011 33.9247C63.694 33.8132 63.824 33.8132 63.9355 33.7946C64.9204 33.6088 65.9238 33.5716 66.9273 33.6831C67.0388 33.7017 67.1688 33.7017 67.2989 33.7017C67.3918 33.7017 67.4847 33.6831 67.5033 33.5716C67.5405 33.4601 67.4662 33.3672 67.3547 33.3301C67.2618 33.3115 67.1503 33.2929 67.0574 33.2743C65.8495 33.1071 64.6417 33.1628 63.4524 33.4415C63.2666 33.5159 63.0436 33.4415 62.9507 33.2371C63.025 33.1256 63.1551 33.1442 63.248 33.1071C63.8984 32.9212 64.5116 32.6425 65.0876 32.2894C65.292 32.1408 65.5522 32.1222 65.7566 32.2151C66.76 32.5868 67.7263 32.9584 68.4882 33.7574C68.5811 33.8504 68.674 33.9247 68.8041 33.8132C68.897 33.7203 68.897 33.5902 68.8041 33.4973C68.674 33.3486 68.5439 33.2186 68.3953 33.1071C67.8006 32.6425 67.1503 32.2894 66.4627 32.0293C66.2955 31.955 66.1282 31.9364 65.9796 31.7691Z" fill="#38A1FC"/>
<path d="M67.8936 40.0381C68.3024 39.1647 68.2838 38.3471 68.005 37.4551C68.6368 37.418 69.2129 37.2879 69.8447 37.3436C69.8261 38.0498 69.6217 38.7187 69.2686 39.3134C69.1757 39.462 68.9156 39.6664 69.1943 39.8337C69.4359 39.9637 69.5288 39.685 69.6403 39.5178C69.9934 38.9603 70.1978 38.3285 70.2349 37.6595C70.2535 37.3436 70.3278 37.3065 70.6066 37.4366C71.0897 37.6781 71.2384 38.1427 70.941 38.6258C70.588 39.2019 70.1048 39.6293 69.6403 40.0752C69.5474 40.1682 69.4359 40.2053 69.3058 40.2053C68.8227 40.2425 68.3395 40.1681 67.8936 40.0381Z" fill="white"/>
<path d="M62.0402 34.3333C62.0774 34.2962 62.0959 34.2776 62.1331 34.259C63.118 33.9245 63.1551 33.9245 63.7498 34.8908C63.5825 35.0209 63.4153 35.1324 63.2666 35.2624C63.1737 35.3182 63.1365 35.4483 63.1923 35.5412C63.2666 35.6713 63.3781 35.6713 63.5082 35.5969L63.6011 35.5412C64.1028 35.281 64.3072 35.3368 64.5674 35.8385C64.6231 35.9314 64.6231 36.0057 64.5488 36.0615C64.1771 36.3402 63.8241 36.6375 63.4524 36.9163L63.3595 36.8234C62.9507 35.95 62.5047 35.1324 62.0402 34.3333ZM62.5977 33.6086C61.557 33.9989 61.7615 33.9431 61.2783 33.3113C61.7615 33.2741 62.2074 33.1441 62.5977 33.6086Z" fill="#38A1FC"/>
<path d="M61.8916 29.483C62.5791 28.8698 63.0809 28.1079 64.2144 28.2751C63.8056 28.6282 63.6012 28.9813 63.6197 29.4458C63.6383 29.6316 63.4897 29.6316 63.3782 29.6316C62.8765 29.6316 62.3747 29.5759 61.8916 29.483ZM72.4835 28.9998C72.2977 29.1485 72.149 29.3343 72.0189 29.5387C71.9632 29.6316 71.8703 29.7617 72.0561 29.8175C72.1862 29.8546 72.3348 29.9104 72.372 29.6874C72.3906 29.4644 72.5206 29.26 72.6879 29.1113C72.7808 29.0556 72.8737 29.037 72.9109 28.9069C72.7622 28.8512 72.595 28.8884 72.4835 28.9998Z" fill="white"/>
<path d="M28.778 51.3918C28.8338 51.4847 28.8895 51.559 28.9267 51.6333C29.0196 51.782 29.0568 51.9492 29.0568 52.1351C29.0568 52.2465 29.0939 52.2837 29.2054 52.3023C29.5027 52.3209 29.8 52.3766 30.1159 52.4138C30.2089 52.4324 30.3389 52.4138 30.3575 52.5624C30.3575 52.6554 30.2646 52.6925 30.0788 52.6739C29.7629 52.6368 29.4656 52.5996 29.1497 52.5624C29.0382 52.5253 28.9453 52.581 28.8895 52.6739C28.7037 52.9527 28.4435 53.1571 28.1276 53.2872C27.6817 53.4916 27.1799 53.5845 26.6782 53.5287C26.6782 53.6216 26.7526 53.6588 26.7897 53.7145C27.1614 54.1419 27.533 54.5693 27.8675 55.0339C27.9418 55.1454 28.0162 55.2569 28.0905 55.3869C28.1276 55.4427 28.1276 55.5356 28.0533 55.5728H28.0347C27.9604 55.6285 27.9047 55.5728 27.8489 55.4984C27.3844 54.7552 26.7897 54.1419 26.2323 53.4916C26.2137 53.473 26.1951 53.4358 26.1765 53.4172C26.1393 53.3801 26.1393 53.3057 26.1579 53.25C26.1951 53.1942 26.2508 53.1757 26.3066 53.1757C26.3623 53.1757 26.4181 53.1942 26.4738 53.2128C27.087 53.3429 27.7374 53.2128 28.2763 52.8783C28.425 52.804 28.5365 52.6925 28.6294 52.5439C28.5922 52.451 28.5179 52.4881 28.4621 52.4695C27.9604 52.4324 27.4401 52.4138 26.9384 52.3766C26.8455 52.3766 26.734 52.3952 26.734 52.2651C26.734 52.1351 26.8641 52.1351 26.9384 52.1351C27.1985 52.1351 27.4401 52.1536 27.7003 52.1722C28.0162 52.1908 28.3135 52.2094 28.6294 52.228C28.7594 52.2465 28.778 52.1908 28.778 52.0793C28.7409 51.6891 28.4435 51.3546 28.0719 51.2803C27.5516 51.2059 27.0127 51.1688 26.4738 51.113C26.1208 51.0759 25.7677 51.0759 25.4146 51.0573C25.3589 51.0573 25.3217 51.0573 25.266 51.0387C25.2288 51.0387 25.1917 51.0015 25.1917 50.9458C25.1917 50.89 25.2102 50.8529 25.266 50.8343C25.3217 50.8157 25.3961 50.8157 25.4518 50.8157C26.8455 50.8529 28.2577 51.0015 29.6328 51.2245C29.8186 51.2431 29.893 51.2989 29.8558 51.3918C29.8186 51.5404 29.6886 51.5033 29.5956 51.4847C29.3541 51.4847 29.0753 51.4103 28.778 51.3918ZM46.7285 8.46677C46.7842 8.55968 46.84 8.63401 46.8771 8.70834C46.97 8.857 47.0072 9.02424 47.0072 9.21006C47.0072 9.32155 47.0444 9.35872 47.1559 9.3773C47.4532 9.39588 47.7691 9.45163 48.0664 9.48879C48.1593 9.50738 48.2894 9.48879 48.308 9.63745C48.308 9.73036 48.215 9.76753 48.0292 9.73036C47.7133 9.6932 47.416 9.65603 47.1001 9.61887C46.9886 9.5817 46.8957 9.63745 46.84 9.73036C46.6541 10.0091 46.394 10.2135 46.0781 10.3436C45.6321 10.548 45.1304 10.6409 44.6287 10.5851C44.6287 10.6781 44.703 10.7152 44.7402 10.771C45.1118 11.1984 45.4835 11.6258 45.8179 12.0903C45.8923 12.2018 45.9666 12.3133 46.0409 12.4434C46.0781 12.4991 46.0595 12.592 46.0038 12.6292C45.9294 12.6849 45.8551 12.6292 45.8179 12.5549C45.3534 11.8302 44.7587 11.1984 44.2013 10.548C44.1827 10.5294 44.1641 10.4922 44.1269 10.4737C44.0898 10.4365 44.0898 10.3622 44.1084 10.3064C44.1455 10.2507 44.2013 10.2321 44.257 10.2507C44.3128 10.2507 44.3685 10.2692 44.4243 10.2878C45.0375 10.4179 45.6879 10.3064 46.2267 9.97193C46.3754 9.8976 46.4869 9.78611 46.5798 9.63745C46.5426 9.54454 46.4683 9.5817 46.4126 9.56312C45.9108 9.52596 45.3905 9.50738 44.8888 9.47021C44.7959 9.47021 44.6844 9.48879 44.6844 9.35872C44.6844 9.22864 44.7959 9.22864 44.8888 9.22864C45.149 9.22864 45.3905 9.24722 45.6507 9.26581C45.9666 9.28439 46.2825 9.30297 46.5798 9.32155C46.7099 9.34013 46.747 9.28439 46.747 9.17289C46.7099 8.78267 46.4126 8.44819 46.0223 8.37386C45.502 8.29953 44.9632 8.26236 44.4243 8.20662C44.0712 8.16945 43.7181 8.16945 43.3651 8.15087C43.3093 8.15087 43.2722 8.15087 43.2164 8.13229C43.1793 8.13229 43.1421 8.09512 43.1421 8.03938C43.1421 7.98363 43.1607 7.94647 43.2164 7.92788C43.2722 7.9093 43.3465 7.9093 43.4022 7.9093C44.7959 7.94647 46.2082 8.09512 47.5832 8.31811C47.7691 8.33669 47.8434 8.39244 47.8062 8.48535C47.7691 8.63401 47.639 8.59685 47.5461 8.57826C47.3045 8.5411 47.0258 8.48535 46.7285 8.46677ZM87.758 16.4943C87.8138 16.5872 87.8695 16.6615 87.9067 16.7359C87.9996 16.8845 88.0368 17.0518 88.0368 17.2376C88.0368 17.3491 88.0739 17.3862 88.1854 17.4048C88.4828 17.442 88.7801 17.4792 89.096 17.5163C89.1889 17.5349 89.319 17.5163 89.3375 17.665C89.3375 17.7579 89.2446 17.7951 89.0588 17.7765C88.7429 17.7393 88.4456 17.7021 88.1297 17.665C88.0182 17.6278 87.9253 17.6836 87.8695 17.7765C87.6837 18.0552 87.4236 18.2596 87.1077 18.3897C86.6617 18.5941 86.16 18.687 85.6583 18.6313C85.6583 18.7242 85.7326 18.7613 85.7697 18.8171C86.1414 19.2445 86.513 19.6719 86.8475 20.1364C86.9218 20.2479 86.9962 20.3594 87.0705 20.4895C87.1077 20.5452 87.1077 20.6381 87.0333 20.6753H87.0148C86.9218 20.7311 86.8847 20.6753 86.8289 20.601C86.3644 19.8763 85.7697 19.2445 85.2123 18.5941C85.1937 18.5755 85.1751 18.5383 85.138 18.5198C85.1008 18.4826 85.1008 18.4083 85.1194 18.3525C85.1565 18.2968 85.2123 18.2782 85.268 18.2968C85.3238 18.2968 85.3795 18.3154 85.4353 18.3339C86.0485 18.464 86.6989 18.3339 87.2192 17.9995C87.3678 17.9251 87.4793 17.8136 87.5722 17.665C87.5351 17.5721 87.4607 17.6092 87.405 17.5907C86.9033 17.5535 86.383 17.5349 85.8812 17.4977C85.7883 17.4977 85.6768 17.5163 85.6768 17.3862C85.6768 17.2562 85.7883 17.2562 85.8812 17.2562C86.1414 17.2562 86.383 17.2748 86.6431 17.2933C86.959 17.3119 87.2749 17.3305 87.5722 17.3491C87.7023 17.3677 87.7395 17.3119 87.7395 17.2004C87.7023 16.8102 87.405 16.4757 87.0148 16.4014C86.4945 16.3271 85.9556 16.2713 85.4353 16.2341C85.0822 16.197 84.7291 16.197 84.3761 16.1784C84.3203 16.1784 84.2832 16.1784 84.2274 16.1598C84.1903 16.1598 84.1531 16.1227 84.1531 16.0669C84.1531 16.0112 84.1717 15.974 84.2274 15.9554C84.2832 15.9368 84.3575 15.9368 84.4132 15.9368C85.8255 15.974 87.2192 16.1227 88.6128 16.3456C88.7986 16.3642 88.873 16.42 88.8358 16.5129C88.7987 16.6615 88.6686 16.6244 88.5757 16.6058C88.3341 16.55 88.0368 16.5129 87.758 16.4943ZM84.7849 68.0043C84.8406 68.0972 84.8964 68.1715 84.9335 68.2459C85.0265 68.3945 85.0636 68.5618 85.0636 68.7476C85.0636 68.8591 85.1008 68.8962 85.2123 68.9148C85.5096 68.9334 85.8069 68.9892 86.1228 69.0263C86.2157 69.0449 86.3458 69.0263 86.3644 69.175C86.3644 69.2679 86.2715 69.305 86.0856 69.2865C85.7697 69.2493 85.4724 69.2121 85.1565 69.175C85.045 69.1564 84.9521 69.1936 84.8964 69.2865C84.7106 69.5652 84.4504 69.7696 84.1345 69.8997C83.6885 70.1041 83.1868 70.197 82.6851 70.1413C82.6851 70.2342 82.7594 70.2713 82.7966 70.3271C83.1682 70.7545 83.5399 71.1819 83.8744 71.6464C83.9487 71.7579 84.023 71.8694 84.0973 71.9995C84.1345 72.0552 84.1159 72.1481 84.0602 72.1853C83.9673 72.241 83.9301 72.1853 83.8744 72.111C83.4098 71.3863 82.8152 70.7545 82.2577 70.1041C82.2391 70.0855 82.2205 70.0483 82.1834 70.0298C82.1462 69.9926 82.1462 69.9183 82.1648 69.8625C82.202 69.8254 82.2577 69.8068 82.3134 69.8254C82.3692 69.8254 82.4249 69.8439 82.4807 69.8625C83.0939 69.9926 83.7443 69.8811 84.2646 69.528C84.4132 69.4537 84.5247 69.3422 84.6176 69.1936C84.5805 69.1006 84.5062 69.1378 84.4504 69.1192C83.9487 69.0821 83.4284 69.0635 82.9267 69.0263C82.8338 69.0263 82.7223 69.0449 82.7223 68.9148C82.7223 68.7847 82.8338 68.7847 82.9267 68.7847C83.1868 68.7847 83.4284 68.8033 83.6885 68.8219C84.0044 68.8405 84.3203 68.8591 84.6176 68.8777C84.7477 68.8777 84.7849 68.8405 84.7849 68.729C84.7477 68.3388 84.4504 68.0043 84.0602 67.93C83.5399 67.8556 83.001 67.8185 82.4621 67.7627C82.109 67.7256 81.756 67.7256 81.4029 67.707C81.3472 67.707 81.31 67.707 81.2543 67.6884C81.2171 67.6884 81.1799 67.6512 81.1799 67.5955C81.1799 67.5397 81.1985 67.5026 81.2543 67.484C81.31 67.4654 81.3843 67.4654 81.4401 67.4654C82.8523 67.5026 84.246 67.6327 85.6397 67.8742C85.8255 67.8928 85.8998 67.9485 85.8627 68.0415C85.8255 68.1901 85.6954 68.153 85.6025 68.1344C85.3609 68.06 85.0822 68.0229 84.7849 68.0043Z" fill="#010100"/>
</svg>
