<svg width="30" height="30" viewBox="0 0 30 30" fill="none" xmlns="http://www.w3.org/2000/svg">
<g clip-path="url(#clip0_1877_7539)">
<path d="M30 15C30.002 23.2809 23.2878 29.9955 15.0036 29.9976C6.71935 29.9995 0.00192044 23.288 4.37816e-07 15.007V15C-0.00197957 6.71899 6.71215 0.00435894 14.9965 0.00231975C23.2808 0.000400511 29.9981 6.71185 30.0001 14.9928L30 15Z" fill="#156DD1"/>
<path d="M17.7001 15.0001C17.7001 16.4907 16.4912 17.699 15.0001 17.699C13.5088 17.699 12.3 16.4907 12.3 15.0001C12.3 13.5095 13.5088 12.3011 15.0001 12.3011C16.4912 12.3011 17.7001 13.5095 17.7001 15.0001Z" fill="white"/>
<path d="M14.0691 16.9646H15.9312V29.9941H14.0691V16.9646Z" fill="white"/>
</g>
<defs>
<clipPath id="clip0_1877_7539">
<rect width="30" height="30" fill="white"/>
</clipPath>
</defs>
</svg>
