<svg width="345" height="252" viewBox="0 0 345 252" fill="none" xmlns="http://www.w3.org/2000/svg">
<g clip-path="url(#clip0_62_45)">
<path fill-rule="evenodd" clip-rule="evenodd" d="M173.095 170.252C169.651 168.235 164.433 168.016 161.45 169.763L147.246 178.082C144.263 179.83 144.638 182.886 148.082 184.903L199.68 215.125C203.127 217.144 208.343 217.362 211.326 215.615L225.53 207.296C228.513 205.549 228.14 202.493 224.693 200.474L173.095 170.252Z" fill="#E1E2EE"/>
<path fill-rule="evenodd" clip-rule="evenodd" d="M156.026 17.7375C157.447 16.8987 159.302 16.9734 161.331 18.1616L211.828 47.7386C216.294 50.3542 219.92 57.3824 219.92 63.4235V200.835C219.92 203.805 219.044 205.987 217.622 207.127L217.637 207.17L208.616 212.454L204.41 200.848L162.908 176.54C158.442 173.925 154.816 166.896 154.816 160.855L153.239 45.4982L147.005 23.0215L156.026 17.7375Z" fill="#A9A9A9"/>
<mask id="mask0_62_45" style="mask-type:luminance" maskUnits="userSpaceOnUse" x="147" y="17" width="73" height="196">
<path d="M156.026 17.7375C157.447 16.8987 159.302 16.9734 161.331 18.1616L211.828 47.7386C216.294 50.3542 219.92 57.3824 219.92 63.4235V200.835C219.92 203.805 219.044 205.987 217.622 207.127L217.637 207.17L208.616 212.454L204.41 200.848L162.908 176.54C158.442 173.925 154.816 166.896 154.816 160.855L153.239 45.4982L147.005 23.0215L156.026 17.7375Z" fill="white"/>
</mask>
<g mask="url(#mask0_62_45)">
<path d="M222.959 60.2588L207.249 69.4606V213.749L222.959 204.547V60.2588Z" fill="#939393"/>
</g>
<path fill-rule="evenodd" clip-rule="evenodd" d="M241.21 86.4671C243.788 81.9365 242.258 76.1353 237.79 73.5187L187.294 43.9423C182.828 41.3265 177.109 42.8812 174.531 47.4118L115.88 150.47C113.301 155.001 114.834 160.803 119.3 163.419L169.796 192.995C174.263 195.612 179.981 194.057 182.559 189.526L241.21 86.4671Z" fill="#DBD8DB"/>
<path fill-rule="evenodd" clip-rule="evenodd" d="M207.249 87.9557C207.249 83.2889 204.021 76.5146 200.042 72.8346L155.065 31.2393C151.088 27.5606 147.858 28.3629 147.858 33.0297V147.818C147.858 152.485 151.088 159.26 155.065 162.939L200.042 204.534C204.021 208.214 207.249 207.411 207.249 202.744V87.9557Z" fill="#E1E2EE"/>
<mask id="mask1_62_45" style="mask-type:luminance" maskUnits="userSpaceOnUse" x="147" y="29" width="61" height="178">
<path d="M207.249 107.006C207.249 103.06 204.021 95.7651 200.042 90.7212L155.065 33.7097C151.088 28.6676 147.858 27.7772 147.858 31.7227V128.768C147.858 132.713 151.088 140.01 155.065 145.053L200.042 202.064C204.021 207.108 207.249 207.996 207.249 204.051V107.006Z" fill="white"/>
</mask>
<g mask="url(#mask1_62_45)">
<path d="M207.251 58.095L147.858 21.3759V55.972L207.251 92.6911V58.095Z" fill="#F2F2F7"/>
</g>
<path fill-rule="evenodd" clip-rule="evenodd" d="M203.98 101.168C203.98 100.026 203.295 98.6973 202.45 98.2026L154.063 69.8611C153.218 69.3664 152.533 69.8923 152.533 71.0343V82.9421C152.533 84.0842 153.218 85.4128 154.063 85.9075L202.45 114.249C203.295 114.744 203.98 114.218 203.98 113.076V101.168Z" fill="#F2F2F7"/>
<path fill-rule="evenodd" clip-rule="evenodd" d="M200.269 104.947C200.269 102.414 198.749 99.4663 196.876 98.3692L159.635 76.5568C157.762 75.4597 156.241 76.6259 156.241 79.1595C156.241 81.693 157.762 84.6406 159.635 85.7377L196.876 107.55C198.749 108.647 200.269 107.481 200.269 104.947Z" fill="#E1E2EE"/>
<path fill-rule="evenodd" clip-rule="evenodd" d="M178.257 92.0539C178.257 90.0549 177.057 87.7292 175.579 86.8634L159.919 77.6912C158.441 76.8255 157.241 77.7458 157.241 79.7449C157.241 81.7438 158.441 84.0696 159.919 84.9353L175.579 94.1075C177.057 94.9732 178.257 94.0529 178.257 92.0539Z" fill="#F05E5E"/>
<path fill-rule="evenodd" clip-rule="evenodd" d="M203.98 189.226C203.98 188.084 203.295 186.755 202.45 186.26L154.063 157.919C153.218 157.424 152.533 157.95 152.533 159.092V171C152.533 172.142 153.218 173.471 154.063 173.965L202.45 202.307C203.295 202.802 203.98 202.276 203.98 201.134V189.226Z" fill="#F2F2F7"/>
<path d="M132.565 158.079C134.795 159.385 137.507 158.856 138.621 156.897C139.736 154.938 138.832 152.291 136.603 150.985C134.373 149.679 131.662 150.209 130.547 152.168C129.432 154.127 130.336 156.774 132.565 158.079Z" fill="#939393"/>
<path d="M144.468 165.051C146.697 166.357 149.409 165.827 150.523 163.868C151.638 161.909 150.735 159.263 148.505 157.957C146.275 156.651 143.564 157.18 142.449 159.139C141.334 161.098 142.238 163.745 144.468 165.051Z" fill="black"/>
<path d="M156.37 172.022C158.599 173.328 161.311 172.799 162.426 170.84C163.54 168.881 162.637 166.234 160.407 164.928C158.177 163.622 155.466 164.151 154.351 166.11C153.236 168.069 154.14 170.716 156.37 172.022Z" fill="black"/>
<path d="M168.272 178.993C170.502 180.299 173.213 179.77 174.328 177.811C175.443 175.852 174.539 173.205 172.309 171.899C170.08 170.593 167.368 171.123 166.253 173.082C165.138 175.041 166.042 177.687 168.272 178.993Z" fill="black"/>
<path fill-rule="evenodd" clip-rule="evenodd" d="M203.98 122.21C203.98 121.022 203.267 119.64 202.389 119.125L154.124 90.8558C153.246 90.3414 152.533 90.8883 152.533 92.0767V117.662C152.533 118.85 153.246 120.233 154.124 120.747L202.389 149.016C203.267 149.531 203.98 148.984 203.98 147.795V122.21Z" fill="#F2F2F7"/>
<path fill-rule="evenodd" clip-rule="evenodd" d="M203.98 155.656C203.98 154.467 203.267 153.085 202.389 152.57L154.124 124.301C153.246 123.786 152.533 124.333 152.533 125.522V151.107C152.533 152.295 153.246 153.678 154.124 154.192L202.389 182.461C203.267 182.976 203.98 182.429 203.98 181.241V155.656Z" fill="#F2F2F7"/>
<path fill-rule="evenodd" clip-rule="evenodd" d="M186.257 54.4479C186.257 52.6816 185.197 50.6268 183.89 49.8615L171.22 42.4401C169.914 41.6753 168.854 42.4882 168.854 44.2545C168.854 46.0205 169.914 48.0753 171.22 48.8401L183.89 56.2616C185.197 57.0268 186.257 56.2139 186.257 54.4479Z" fill="#060F61"/>
<path fill-rule="evenodd" clip-rule="evenodd" d="M192.838 72.6198C192.838 70.8535 191.777 68.7985 190.469 68.0322L164.638 52.9026C163.332 52.1379 162.272 52.9507 162.272 54.717C162.272 56.483 163.332 58.5379 164.638 59.3026L190.469 74.4322C191.777 75.1985 192.838 74.3859 192.838 72.6198Z" fill="#939393"/>
<path fill-rule="evenodd" clip-rule="evenodd" d="M202.667 46.1863L202.668 46.1866L202.719 44.7057L198.496 42.7639L195.678 41.0298C194.414 40.2516 192.487 40.0673 191.293 40.593L190.399 40.1821L190.347 41.663L190.349 41.6636C190.302 42.1768 190.657 42.7426 191.402 43.2006L197.336 46.8527C198.647 47.6592 200.669 47.8279 201.849 47.2289C202.373 46.9628 202.644 46.5897 202.667 46.1863Z" fill="black"/>
<path fill-rule="evenodd" clip-rule="evenodd" d="M102.217 203.9C111.386 197.943 119.005 197.735 128.291 204.795C135.403 210.202 148.62 205.59 149.614 211.119C152.645 227.956 129.101 218.899 119.211 213.107C109.321 207.314 93.8733 209.32 102.217 203.9Z" fill="#E1E2EE"/>
<path fill-rule="evenodd" clip-rule="evenodd" d="M136.933 204.958C136.933 204.958 147.034 204.488 151.198 203.202C155.362 201.915 156.742 206.398 151.626 209.864C146.51 213.33 140.027 215.397 138.294 213.602C136.56 211.808 136.933 204.958 136.933 204.958Z" fill="#060F61"/>
<path fill-rule="evenodd" clip-rule="evenodd" d="M139.406 149.537C139.406 149.537 147.443 189.619 148.049 204.621C148.049 204.621 141.442 212.989 130.57 207.952C130.57 207.952 126.6 164.31 122.189 152.187C122.189 152.187 127.849 146.027 139.406 149.537Z" fill="#001510"/>
<mask id="mask2_62_45" style="mask-type:luminance" maskUnits="userSpaceOnUse" x="122" y="148" width="27" height="62">
<path d="M139.406 149.537C139.406 149.537 147.443 189.619 148.049 204.621C148.049 204.621 141.442 212.989 130.57 207.952C130.57 207.952 126.6 164.31 122.189 152.187C122.189 152.187 127.849 146.027 139.406 149.537Z" fill="white"/>
</mask>
<g mask="url(#mask2_62_45)">
<path fill-rule="evenodd" clip-rule="evenodd" d="M141.547 154.96L142.17 158.828C142.17 158.828 133.722 166.959 123.252 162.698L122.189 155.765L141.547 154.96Z" fill="#060F61"/>
</g>
<path fill-rule="evenodd" clip-rule="evenodd" d="M103.605 197.449C103.605 197.449 112.054 200.494 115.883 201.057C119.711 201.619 119.425 204.918 114.123 205.422C108.82 205.927 102.839 205.092 101.983 203.38C101.127 201.669 103.605 197.449 103.605 197.449Z" fill="#060F61"/>
<path fill-rule="evenodd" clip-rule="evenodd" d="M124.079 152.207C124.079 152.207 110.613 186.908 104.34 198.923C104.34 198.923 98.4634 201.063 93.2466 191.097C93.2466 191.097 111.191 154.358 114.393 141.784C114.393 141.784 119.926 141.12 124.079 152.207Z" fill="black"/>
<mask id="mask3_62_45" style="mask-type:luminance" maskUnits="userSpaceOnUse" x="93" y="141" width="32" height="59">
<path d="M124.217 154.137C124.217 154.137 110.321 187.833 103.919 199.216C103.919 199.216 98.0793 200.408 93.1008 189.137C93.1008 189.137 111.454 154.11 114.834 141.606C114.834 141.606 120.308 141.887 124.217 154.137Z" fill="white"/>
</mask>
<g mask="url(#mask3_62_45)">
<path fill-rule="evenodd" clip-rule="evenodd" d="M121.823 152.994L119.679 159.955C119.679 159.955 109.22 163.04 102.819 150.974L105.773 145.751L121.823 152.994Z" fill="#060F61"/>
</g>
<path fill-rule="evenodd" clip-rule="evenodd" d="M143.69 113.792C147.512 116.456 147.624 121.886 147.657 127.317C147.683 131.582 144.111 139.38 144.111 139.38L147.503 156.154C147.503 156.154 117.599 166.965 99.2549 143.506L107.218 127.739L114.166 105.317C114.166 105.317 138.731 110.337 143.69 113.792Z" fill="#060F66"/>
<path fill-rule="evenodd" clip-rule="evenodd" d="M176.275 131.453C176.275 131.453 172.999 129.927 172.928 126.482C172.928 126.482 174.933 122.867 177.392 121.305C179.85 119.743 180.955 120.327 183.12 121.096C185.286 121.866 184.361 123.71 182.922 123.356C181.711 123.057 180.72 123.057 180.667 123.424C180.667 123.424 182.037 123.978 182.808 125.868C183.579 127.757 181.243 128.853 181.243 128.853C181.243 128.853 181.572 131.125 179.399 130.802C179.399 130.802 178.651 132.093 176.275 131.453Z" fill="#C3C3C3"/>
<path fill-rule="evenodd" clip-rule="evenodd" d="M151.712 108.63C151.712 108.63 153.921 122.088 155.852 127.57C156.815 130.301 168.145 134.864 177.245 133.985C177.245 133.985 183.106 137.728 179.993 144.191C178.029 148.27 173.692 152.263 164.358 150.23C164.358 150.23 151.873 149.105 142.585 139.119C136.12 132.167 136.114 120.321 137.029 110.639C137.029 110.639 144.504 104.897 151.712 108.63Z" fill="#060F66"/>
<path fill-rule="evenodd" clip-rule="evenodd" d="M145.349 136.562C145.732 136.16 143.55 134.089 142.234 131.954C141.177 130.24 139.37 126.971 138.926 125.316C138.926 125.316 137.331 130.755 139.713 134.285C142.059 137.762 144.752 137.187 145.349 136.562Z" fill="#060F61"/>
<path d="M137.652 112.208C145.784 112.208 152.377 105.52 152.377 97.2698C152.377 89.0195 145.784 82.3313 137.652 82.3313C129.519 82.3313 122.927 89.0195 122.927 97.2698C122.927 105.52 129.519 112.208 137.652 112.208Z" fill="#C3C3C3"/>
<path fill-rule="evenodd" clip-rule="evenodd" d="M150.298 95.177C150.298 95.177 153.041 93.6725 154.353 94.8818C155.664 96.0911 151.038 99.7213 151.038 99.7213L150.298 95.177Z" fill="#C3C3C3"/>
<path fill-rule="evenodd" clip-rule="evenodd" d="M117.779 84.3398C117.779 84.3398 114.591 85.8872 113.345 90.4486C112.098 95.0099 110.653 99.1302 106.797 99.5523C102.941 99.9745 99.0731 105.813 100.886 110.046C100.886 110.046 93.8785 110.507 94.4364 119.349C94.9943 128.19 102.758 129.641 106.896 127.933C106.896 127.933 110.649 136.367 118.884 131.959C118.884 131.959 129.615 136.051 132.265 127.907C132.265 127.907 142.969 125.831 139.241 116.917C139.241 116.917 144.895 113.505 141.871 107.674C138.847 101.843 139.908 99.0922 139.908 99.0922C139.908 99.0922 143.4 96.7891 142.796 92.1455C142.796 92.1455 152.773 87.6856 150.216 80.2988C147.659 72.9119 138.72 70.7905 135.253 77.9809C133.93 74.0761 121.222 72.9765 117.779 84.3398Z" fill="#171616"/>
<path fill-rule="evenodd" clip-rule="evenodd" d="M222.911 69.9907C223.602 69.5977 224.504 69.6315 225.491 70.1858L243.064 80.0572C245.232 81.2749 246.991 84.5467 246.991 87.3589V105.736C246.991 107.267 246.471 108.347 245.647 108.819C245.637 108.824 245.629 108.829 245.62 108.834L240.537 111.689L236.685 105.043L225.491 98.7542C223.323 97.5365 221.563 94.2645 221.563 91.4522V78.945L217.979 72.761L222.911 69.9907Z" fill="#060F66"/>
<path fill-rule="evenodd" clip-rule="evenodd" d="M223.701 79.839C224.952 77.73 224.247 75.0506 222.124 73.858L204.384 63.8928C202.262 62.7011 199.524 63.4462 198.272 65.5552L190.093 79.3383C188.842 81.4476 189.548 84.1274 191.669 85.319L209.41 95.2842C211.533 96.4768 214.27 95.7314 215.522 93.6221L223.701 79.839Z" fill="#C3C3C3"/>
<path d="M224.717 86.6642L221.662 84.875V91.7288L224.717 93.518V86.6642Z" fill="#F05E5E"/>
<path d="M228.167 85.7892L225.112 84V93.7946L228.167 95.5837V85.7892Z" fill="#00D09C"/>
<path d="M232.48 84.0392L229.425 82.25V96.3687L232.48 98.1578V84.0392Z" fill="#F05E5E"/>
<path d="M236.792 90.1642L233.737 88.375V99.4087L236.792 101.198V90.1642Z" fill="#00D09C"/>
<path fill-rule="evenodd" clip-rule="evenodd" d="M222.911 105.858C223.602 105.465 224.504 105.499 225.491 106.053L243.064 115.924C245.232 117.142 246.991 120.414 246.991 123.226V141.604C246.991 143.134 246.471 144.215 245.647 144.686C245.637 144.691 245.629 144.696 245.62 144.701L240.537 147.556L236.685 140.91L225.491 134.621C223.323 133.404 221.563 130.132 221.563 127.32V114.812L217.979 108.628L222.911 105.858Z" fill="#060F66"/>
<path fill-rule="evenodd" clip-rule="evenodd" d="M223.701 115.706C224.952 113.597 224.247 110.918 222.124 109.725L204.384 99.7601C202.262 98.5684 199.524 99.3135 198.272 101.423L190.093 115.206C188.842 117.315 189.548 119.995 191.669 121.186L209.41 131.152C211.533 132.344 214.27 131.599 215.522 129.489L223.701 115.706Z" fill="#C3C3C3"/>
<path fill-rule="evenodd" clip-rule="evenodd" d="M227.335 120.043L232.327 119.59L237.321 125.892L232.327 126.344L227.335 120.043ZM231.831 127.061V133.814L226.838 127.512V120.758L231.831 127.061ZM237.816 127.188V133.942L232.824 134.395V127.642L237.816 127.188Z" fill="#F05E5E"/>
<path fill-rule="evenodd" clip-rule="evenodd" d="M222.911 141.108C223.602 140.715 224.504 140.749 225.491 141.303L243.064 151.174C245.232 152.392 246.991 155.664 246.991 158.476V176.853C246.991 178.384 246.471 179.464 245.647 179.936C245.637 179.941 245.629 179.946 245.62 179.951L240.537 182.806L236.685 176.16L225.491 169.871C223.323 168.654 221.563 165.382 221.563 162.569V150.062L217.979 143.878L222.911 141.108Z" fill="#060F66"/>
<path fill-rule="evenodd" clip-rule="evenodd" d="M223.701 150.956C224.952 148.847 224.247 146.168 222.124 144.975L204.384 135.01C202.262 133.818 199.524 134.563 198.272 136.672L190.093 150.455C188.842 152.565 189.548 155.244 191.669 156.436L209.41 166.401C211.533 167.594 214.27 166.848 215.522 164.739L223.701 150.956Z" fill="#C3C3C3"/>
<path fill-rule="evenodd" clip-rule="evenodd" d="M235.451 156.855C235.451 156.855 236.036 157.519 235.573 159.081C235.022 160.946 234.504 163.651 234.719 165.913C234.942 168.247 235.68 169.535 235.68 169.535C232.263 168.863 230.417 168.135 227.088 165.968C227.088 165.968 226.082 164.639 225.983 162.296C225.867 159.587 227.107 156.568 227.452 154.408C227.661 153.112 227.011 152.25 227.011 152.25C230.106 153.588 232.698 154.659 235.451 156.855ZM228.447 161.855C228.447 161.855 229.589 162.492 230.824 163.097C230.977 163.171 231.158 163.101 231.226 162.939C231.296 162.777 231.231 162.585 231.079 162.51C229.858 161.913 228.73 161.284 228.73 161.284C228.583 161.201 228.399 161.262 228.32 161.419C228.244 161.577 228.3 161.772 228.447 161.855ZM228.922 157.888C228.922 157.888 231.994 159.599 233.526 160.082C233.687 160.133 233.854 160.035 233.902 159.865C233.95 159.694 233.86 159.514 233.699 159.463C232.201 158.992 229.205 157.316 229.205 157.316C229.055 157.233 228.874 157.294 228.795 157.452C228.716 157.61 228.772 157.805 228.922 157.888ZM228.535 159.637C228.535 159.637 231.607 161.348 233.139 161.831C233.3 161.881 233.47 161.784 233.515 161.613C233.563 161.442 233.473 161.263 233.312 161.212C231.814 160.741 228.817 159.065 228.817 159.065C228.671 158.982 228.487 159.043 228.408 159.201C228.329 159.358 228.388 159.554 228.535 159.637Z" fill="#DBD8DB"/>
<path d="M198.464 235.461C202.161 235.461 205.158 234.165 205.158 232.566C205.158 230.967 202.161 229.67 198.464 229.67C194.768 229.67 191.771 230.967 191.771 232.566C191.771 234.165 194.768 235.461 198.464 235.461Z" fill="#E1E2EE"/>
<path d="M207.494 237.855C212.481 237.855 216.524 236.242 216.524 234.252C216.524 232.262 212.481 230.648 207.494 230.648C202.506 230.648 198.464 232.262 198.464 234.252C198.464 236.242 202.506 237.855 207.494 237.855Z" fill="#E1E2EE"/>
<path fill-rule="evenodd" clip-rule="evenodd" d="M193.079 227.752C191.408 224.228 185.75 216.119 189.223 211.584C192.435 207.391 196.761 213.138 197.687 217.829C197.687 217.829 194.933 197.693 201.61 197.312C208.286 196.93 205.992 210.012 204.808 215.447C204.808 215.447 210.605 204.676 214.646 208.539C218.687 212.402 205.472 229.24 205.472 229.24C204.589 230.839 202.139 232.711 199.247 232.729C196.856 232.743 194.217 230.154 193.079 227.752Z" fill="#00D09C" fill-opacity="0.611765"/>
<path fill-rule="evenodd" clip-rule="evenodd" d="M201.933 202.159C201.944 201.968 202.107 201.824 202.294 201.836C202.482 201.848 202.625 202.012 202.613 202.203C202.613 202.203 201.232 224.309 199.136 232.91C199.091 233.095 198.906 233.209 198.723 233.163C198.541 233.117 198.429 232.93 198.474 232.744C200.562 224.178 201.933 202.159 201.933 202.159Z" fill="#F2F2F7"/>
<path fill-rule="evenodd" clip-rule="evenodd" d="M193.193 217.133C193.153 216.947 193.269 216.763 193.453 216.722C193.637 216.682 193.819 216.8 193.859 216.987C193.859 216.987 194.541 220.173 196.015 223.152C196.974 225.092 198.262 226.955 199.94 227.735C200.111 227.815 200.186 228.02 200.108 228.194C200.03 228.367 199.827 228.443 199.656 228.364C197.852 227.525 196.437 225.548 195.406 223.462C193.893 220.404 193.193 217.133 193.193 217.133ZM200.665 223.752C200.49 223.822 200.291 223.735 200.222 223.558C200.153 223.38 200.238 223.179 200.413 223.109C200.413 223.109 207.687 220.191 210.474 214.331C210.556 214.159 210.76 214.087 210.929 214.17C211.099 214.253 211.17 214.46 211.088 214.632C208.196 220.71 200.665 223.752 200.665 223.752Z" fill="#F2F2F7"/>
<path fill-rule="evenodd" clip-rule="evenodd" d="M208.373 224.358C212.409 224.312 211.296 227.139 213.836 228.804C216.162 230.33 216.11 233.665 212.381 234.354C208.653 235.042 205.49 234.933 202.911 234.142C198.26 232.714 199.186 229.35 202.161 228.368C204.623 227.555 205.379 224.392 208.373 224.358Z" fill="#F05E5E"/>
<path d="M209.43 228.246C209.945 228.246 210.362 227.839 210.362 227.336C210.362 226.833 209.945 226.426 209.43 226.426C208.916 226.426 208.499 226.833 208.499 227.336C208.499 227.839 208.916 228.246 209.43 228.246Z" fill="#E1E2EE"/>
<path d="M210.831 229.327C211.09 229.327 211.3 229.132 211.3 228.892C211.3 228.651 211.09 228.456 210.831 228.456C210.572 228.456 210.362 228.651 210.362 228.892C210.362 229.132 210.572 229.327 210.831 229.327Z" fill="#E1E2EE"/>
<path d="M132.3 62.7966C142.768 52.1764 142.768 34.9576 132.3 24.3374C121.831 13.7172 104.859 13.7173 94.3902 24.3374C83.9217 34.9576 83.9217 52.1764 94.3902 62.7966C104.859 73.4168 121.831 73.4168 132.3 62.7966Z" fill="#00D09C"/>
<path fill-rule="evenodd" clip-rule="evenodd" d="M99.0347 46.625C97.6803 45.251 97.6803 43.0197 99.0347 41.6457C100.389 40.2715 102.588 40.2717 103.943 41.6457L110.814 48.616L122.745 36.5112C124.1 35.1372 126.299 35.1372 127.654 36.5112C129.008 37.8852 129.008 40.1165 127.654 41.4905L113.268 56.085C111.912 57.46 109.715 57.46 108.359 56.085L99.0347 46.625Z" fill="#F2F2F7"/>
<path fill-rule="evenodd" clip-rule="evenodd" d="M138.616 65.6929C138.911 66.6859 138.644 67.7644 137.921 68.4973C137.199 69.2301 136.136 69.5017 135.157 69.2021C127.928 66.9904 115.338 63.1383 115.338 63.1383L132.641 45.584C132.641 45.584 136.436 58.3591 138.616 65.6929Z" fill="#00D09C"/>
</g>
<defs>
<clipPath id="clip0_62_45">
<rect width="345" height="252" fill="white"/>
</clipPath>
</defs>
</svg>
