<svg width="21" height="20" viewBox="0 0 21 20" fill="none" xmlns="http://www.w3.org/2000/svg">
<path d="M15.9424 9.99984C15.9424 10.2209 15.8546 10.4328 15.6983 10.5891C15.5421 10.7454 15.3301 10.8332 15.1091 10.8332C14.8881 10.8332 14.6761 10.7454 14.5198 10.5891C14.3636 10.4328 14.2758 10.2209 14.2758 9.99984C14.2758 9.77882 14.3636 9.56686 14.5198 9.41058C14.6761 9.2543 14.8881 9.1665 15.1091 9.1665C15.3301 9.1665 15.5421 9.2543 15.6983 9.41058C15.8546 9.56686 15.9424 9.77882 15.9424 9.99984Z" fill="white"/>
<path fill-rule="evenodd" clip-rule="evenodd" d="M8.39576 2.7085H10.9891C12.5208 2.7085 13.7341 2.7085 14.6833 2.836C15.6599 2.96766 16.4508 3.24433 17.0749 3.86766C17.8449 4.6385 18.0908 5.67016 18.1799 7.00933C18.6608 7.22016 19.0241 7.66766 19.0633 8.23433C19.0674 8.28516 19.0674 8.33933 19.0674 8.38933V11.611C19.0674 11.661 19.0674 11.7152 19.0641 11.7652C19.0241 12.3318 18.6608 12.7802 18.1799 12.9918C18.0908 14.3302 17.8449 15.3618 17.0749 16.1327C16.4508 16.756 15.6599 17.0327 14.6833 17.1643C13.7333 17.2918 12.5208 17.2918 10.9891 17.2918H8.39576C6.86409 17.2918 5.65076 17.2918 4.70159 17.1643C3.72492 17.0327 2.93409 16.756 2.30992 16.1327C1.68659 15.5085 1.40992 14.7177 1.27826 13.741C1.15076 12.791 1.15076 11.5785 1.15076 10.0468V9.9535C1.15076 8.42183 1.15076 7.2085 1.27826 6.25933C1.40992 5.28266 1.68659 4.49183 2.30992 3.86766C2.93409 3.24433 3.72492 2.96766 4.70159 2.836C5.65159 2.7085 6.86409 2.7085 8.39576 2.7085ZM16.9158 13.1252H15.3008C13.5133 13.1252 11.9833 11.7685 11.9833 10.0002C11.9833 8.23183 13.5133 6.87516 15.2999 6.87516H16.9149C16.8199 5.75766 16.6058 5.16683 16.1899 4.75183C15.8374 4.39933 15.3541 4.18766 14.5158 4.07516C13.6599 3.96016 12.5308 3.9585 10.9416 3.9585H8.44159C6.85242 3.9585 5.72409 3.96016 4.86659 4.07516C4.02909 4.18766 3.54576 4.39933 3.19326 4.75183C2.84076 5.10433 2.62909 5.58766 2.51659 6.426C2.40159 7.28266 2.39992 8.411 2.39992 10.0002C2.39992 11.5893 2.40159 12.7185 2.51659 13.5752C2.62909 14.4127 2.84076 14.896 3.19326 15.2485C3.54576 15.601 4.02909 15.8127 4.86742 15.9252C5.72409 16.0402 6.85242 16.0418 8.44159 16.0418H10.9416C12.5308 16.0418 13.6599 16.0402 14.5166 15.9252C15.3541 15.8127 15.8374 15.601 16.1899 15.2485C16.6058 14.8335 16.8208 14.2435 16.9158 13.1252ZM4.48409 6.66683C4.48409 6.50107 4.54994 6.3421 4.66715 6.22489C4.78436 6.10768 4.94333 6.04183 5.10909 6.04183H8.44242C8.60818 6.04183 8.76715 6.10768 8.88436 6.22489C9.00157 6.3421 9.06742 6.50107 9.06742 6.66683C9.06742 6.83259 9.00157 6.99156 8.88436 7.10877C8.76715 7.22598 8.60818 7.29183 8.44242 7.29183H5.10909C4.94333 7.29183 4.78436 7.22598 4.66715 7.10877C4.54994 6.99156 4.48409 6.83259 4.48409 6.66683ZM17.5458 8.12516H15.3008C14.1141 8.12516 13.2333 9.00766 13.2333 10.0002C13.2333 10.9927 14.1141 11.8752 15.2999 11.8752H17.5649C17.7366 11.8643 17.8108 11.7485 17.8166 11.6785V8.32183C17.8108 8.25183 17.7366 8.136 17.5649 8.126L17.5458 8.12516Z" fill="#FFFDFD"/>
</svg>
