<svg width="25" height="25" viewBox="0 0 25 25" fill="none" xmlns="http://www.w3.org/2000/svg">
<path d="M19.2001 12.8333C19.0168 12.8333 18.8251 12.775 18.6418 12.7333C18.2705 12.6515 17.9056 12.5429 17.5501 12.4083C17.1635 12.2677 16.7385 12.275 16.357 12.4288C15.9755 12.5827 15.6643 12.8722 15.4834 13.2416L15.3001 13.6166C14.4884 13.1651 13.7426 12.6043 13.0834 11.95C12.4291 11.2908 11.8683 10.545 11.4168 9.7333L11.7668 9.49997C12.1362 9.31907 12.4257 9.00791 12.5796 8.62638C12.7334 8.24485 12.7407 7.8199 12.6001 7.4333C12.4678 7.07699 12.3592 6.7123 12.2751 6.34164C12.2334 6.1583 12.2001 5.96664 12.1751 5.77497C12.0739 5.18799 11.7664 4.65642 11.3081 4.276C10.8498 3.89559 10.2707 3.69131 9.67508 3.69997H7.17508C6.81594 3.6966 6.46029 3.77065 6.13234 3.91708C5.80439 4.06351 5.51184 4.27888 5.27461 4.54854C5.03738 4.81819 4.86103 5.1358 4.75757 5.47973C4.65412 5.82367 4.62598 6.18585 4.67508 6.54164C5.11903 10.0328 6.71344 13.2765 9.20646 15.7605C11.6995 18.2445 14.949 19.8271 18.4418 20.2583H18.7584C19.3729 20.2592 19.9662 20.0337 20.4251 19.625C20.6887 19.3892 20.8993 19.1001 21.043 18.7769C21.1866 18.4537 21.2601 18.1037 21.2584 17.75V15.25C21.2482 14.6711 21.0374 14.1138 20.662 13.673C20.2866 13.2323 19.7699 12.9355 19.2001 12.8333ZM19.6168 17.8333C19.6166 17.9516 19.5913 18.0686 19.5424 18.1763C19.4935 18.2841 19.4223 18.3802 19.3334 18.4583C19.2403 18.5387 19.1314 18.5988 19.0138 18.6346C18.8961 18.6705 18.7722 18.6814 18.6501 18.6666C15.5292 18.2665 12.6303 16.8387 10.4107 14.6085C8.19108 12.3784 6.77709 9.47275 6.39175 6.34997C6.37849 6.2279 6.39011 6.10441 6.42592 5.98696C6.46173 5.86951 6.52098 5.76054 6.60008 5.66664C6.67818 5.57775 6.7743 5.50651 6.88207 5.45765C6.98983 5.4088 7.10676 5.38345 7.22508 5.3833H9.72508C9.91887 5.37899 10.1081 5.44237 10.2602 5.56253C10.4123 5.68269 10.5178 5.85211 10.5584 6.04164C10.5918 6.26942 10.6334 6.49442 10.6834 6.71664C10.7797 7.15592 10.9078 7.58762 11.0668 8.0083L9.90008 8.54997C9.80033 8.59574 9.7106 8.66076 9.63605 8.7413C9.56149 8.82184 9.50358 8.91632 9.46564 9.0193C9.4277 9.12228 9.41048 9.23175 9.41496 9.34141C9.41944 9.45107 9.44553 9.55876 9.49175 9.6583C10.6911 12.2273 12.7561 14.2923 15.3251 15.4916C15.528 15.575 15.7555 15.575 15.9584 15.4916C16.0623 15.4545 16.1579 15.397 16.2394 15.3226C16.3209 15.2482 16.3869 15.1584 16.4334 15.0583L16.9501 13.8916C17.3809 14.0457 17.8206 14.1737 18.2668 14.275C18.489 14.325 18.714 14.3666 18.9417 14.4C19.1313 14.4406 19.3007 14.5461 19.4209 14.6982C19.541 14.8503 19.6044 15.0395 19.6001 15.2333L19.6168 17.8333Z" fill="black"/>
</svg>
