<svg width="20" height="20" viewBox="0 0 20 20" fill="none" xmlns="http://www.w3.org/2000/svg">
<path fill-rule="evenodd" clip-rule="evenodd" d="M5.01623 3.78147C5.00891 3.53325 5.07569 3.28846 5.20805 3.07835C5.34041 2.86824 5.53235 2.7024 5.7594 2.60182C5.98644 2.50124 6.2383 2.47048 6.48285 2.51362C6.7274 2.55676 6.95356 2.67178 7.13248 2.84397L13.77 9.08146C13.8945 9.19836 13.9937 9.33962 14.0615 9.49635C14.1294 9.65307 14.1643 9.82194 14.1643 9.99272C14.1643 10.1635 14.1294 10.3325 14.0615 10.4892C13.9937 10.646 13.8945 10.7871 13.77 10.904L7.13248 17.1415C7.01393 17.2591 6.873 17.3519 6.71801 17.4141C6.56303 17.4764 6.39714 17.5071 6.23013 17.5042C6.06313 17.5012 5.8984 17.4648 5.74569 17.3972C5.59297 17.3295 5.45536 17.2319 5.34099 17.1102C5.22661 16.9885 5.1378 16.8451 5.07978 16.6884C5.02176 16.5318 4.99573 16.3652 5.00321 16.1983C5.01069 16.0315 5.05153 15.8677 5.12333 15.7169C5.19513 15.5661 5.29643 15.4313 5.42123 15.3203L11.09 9.99272L5.42123 4.66526C5.29813 4.55247 5.19886 4.4162 5.1293 4.26441C5.05974 4.11263 5.0213 3.94836 5.01623 3.78147Z" fill="url(#paint0_linear_3090_310)"/>
<defs>
<linearGradient id="paint0_linear_3090_310" x1="9.58248" y1="2.49523" x2="9.58248" y2="17.5053" gradientUnits="userSpaceOnUse">
<stop stop-color="#CAD1D8"/>
<stop offset="1" stop-color="#BABDC1"/>
</linearGradient>
</defs>
</svg>
