<svg width="23" height="23" viewBox="0 0 23 23" fill="none" xmlns="http://www.w3.org/2000/svg">
<path d="M8.53429 4.6335C9.85409 2.26683 10.5135 1.0835 11.4999 1.0835C12.4864 1.0835 13.1458 2.26683 14.4655 4.6335L14.8072 5.246C15.1822 5.91891 15.3697 6.25537 15.6614 6.47725C15.953 6.69912 16.3176 6.78141 17.0468 6.946L17.7093 7.096C20.2718 7.6762 21.552 7.96579 21.8572 8.946C22.1614 9.92516 21.2885 10.947 19.5416 12.9897L19.0895 13.5179C18.5937 14.0981 18.3447 14.3887 18.2333 14.747C18.1218 15.1064 18.1593 15.4939 18.2343 16.2679L18.303 16.9731C18.5666 19.6991 18.6989 21.0616 17.901 21.6668C17.103 22.2731 15.903 21.72 13.5051 20.6158L12.8833 20.3304C12.202 20.0158 11.8614 19.8595 11.4999 19.8595C11.1385 19.8595 10.7978 20.0158 10.1166 20.3304L9.49575 20.6158C7.09679 21.72 5.89679 22.272 5.09992 21.6679C4.30096 21.0616 4.43325 19.6991 4.69679 16.9731L4.76554 16.2689C4.84054 15.4939 4.87804 15.1064 4.76554 14.7481C4.65513 14.3887 4.40617 14.0981 3.91034 13.5189L3.45825 12.9897C1.71138 10.9481 0.838461 9.9262 1.14263 8.946C1.44784 7.96579 2.72909 7.67516 5.29159 7.096L5.95409 6.946C6.68221 6.78141 7.04575 6.69912 7.33846 6.47725C7.63013 6.25537 7.81763 5.91891 8.19263 5.246L8.53429 4.6335Z" stroke="black" stroke-width="1.5"/>
</svg>
