<svg width="25" height="25" viewBox="0 0 25 25" fill="none" xmlns="http://www.w3.org/2000/svg">
<path d="M2.08325 4.15937C2.08516 3.88581 2.19461 3.62398 2.38795 3.43044C2.5813 3.23689 2.84302 3.12718 3.11659 3.125H21.8833C22.4541 3.125 22.9166 3.58854 22.9166 4.15937V20.8406C22.9147 21.1142 22.8052 21.376 22.6119 21.5696C22.4185 21.7631 22.1568 21.8728 21.8833 21.875H3.11659C2.84243 21.8747 2.5796 21.7656 2.38585 21.5717C2.19209 21.3777 2.08325 21.1148 2.08325 20.8406V4.15937ZM4.16659 5.20833V19.7917H20.8333V5.20833H4.16659ZM11.0645 8.76562L16.1468 12.1531C16.2039 12.1912 16.2508 12.2427 16.2832 12.3032C16.3157 12.3638 16.3326 12.4313 16.3326 12.5C16.3326 12.5687 16.3157 12.6362 16.2832 12.6968C16.2508 12.7573 16.2039 12.8088 16.1468 12.8469L11.0635 16.2344C11.0008 16.2759 10.928 16.2997 10.8529 16.3033C10.7778 16.3068 10.7031 16.29 10.6368 16.2545C10.5705 16.2191 10.515 16.1663 10.4762 16.1019C10.4375 16.0375 10.4168 15.9637 10.4166 15.8885V9.11146C10.4167 9.03609 10.4373 8.96218 10.4761 8.89758C10.5149 8.83299 10.5706 8.78013 10.6371 8.74465C10.7035 8.70916 10.7784 8.69237 10.8537 8.69606C10.9289 8.69976 11.0018 8.7238 11.0645 8.76562Z" fill="black"/>
</svg>
